M48
; DRILL file {KiCad (6.0.9)} date Fri Dec  2 14:17:10 2022
; FORMAT={-:-/ absolute / metric / decimal}
; #@! TF.CreationDate,2022-12-02T14:17:10-08:00
; #@! TF.GenerationSoftware,Kicad,Pcbnew,(6.0.9)
; #@! TF.FileFunction,Plated,1,4,PTH
FMAT,2
METRIC
; #@! TA.AperFunction,Plated,PTH,ViaDrill
T1C0.300
; #@! TA.AperFunction,Plated,PTH,ComponentDrill
T2C0.500
; #@! TA.AperFunction,Plated,PTH,ComponentDrill
T3C0.600
; #@! TA.AperFunction,Plated,PTH,ComponentDrill
T4C0.700
; #@! TA.AperFunction,Plated,PTH,ComponentDrill
T5C1.000
; #@! TA.AperFunction,Plated,PTH,ComponentDrill
T6C2.200
%
G90
G05
T1
X115.25Y-104.0
X115.25Y-112.5
X116.0Y-105.75
X116.0Y-107.45
X116.0Y-109.1
X116.4Y-99.9
X116.5Y-95.9
X116.5Y-97.0
X116.5Y-98.0
X117.75Y-108.25
X118.2Y-88.0
X118.2Y-99.0
X118.2Y-100.75
X118.675Y-119.0
X119.2Y-88.0
X119.5Y-103.5
X119.675Y-119.0
X119.7Y-102.5
X120.2Y-88.0
X120.6Y-93.0
X120.6Y-97.5
X120.675Y-119.0
X121.25Y-78.25
X121.275Y-102.5
X121.3Y-117.137
X121.3Y-122.862
X121.4Y-92.6
X121.514Y-89.611
X122.2Y-92.2
X122.25Y-101.5
X122.4Y-96.8
X122.5Y-82.0
X122.55Y-78.25
X122.725Y-115.8
X122.8Y-97.6
X123.0Y-91.8
X123.2Y-98.4
X123.2Y-109.5
X123.8Y-91.4
X124.0Y-87.0
X124.025Y-115.8
X124.4Y-86.2
X124.6Y-91.0
X124.8Y-85.4
X125.2Y-84.6
X125.325Y-115.8
X125.4Y-90.6
X125.6Y-83.8
X125.8Y-104.0
X126.625Y-115.8
X127.0Y-98.4
X127.45Y-78.25
X127.925Y-115.8
X128.1Y-97.6
X128.4Y-82.75
X128.5Y-98.4
X128.5Y-104.525
X128.75Y-78.25
X129.3Y-99.2
X129.4Y-90.5
X129.4Y-92.0
X129.4Y-97.0
X129.5Y-100.5
X130.2Y-104.0
X130.4Y-100.5
X131.1Y-103.8
X131.325Y-121.0
X131.4Y-103.0
X131.5Y-83.0
X132.25Y-110.75
X132.75Y-83.0
X133.0Y-79.0
X133.4Y-89.7
X133.4Y-90.7
X133.5Y-88.625
X133.5Y-93.275
X133.5Y-96.9
X133.5Y-97.75
X133.5Y-98.775
X134.0Y-78.25
X134.0Y-81.75
X134.0Y-107.5
X134.0Y-109.2
X134.0Y-110.85
X134.75Y-89.2
X134.75Y-92.75
X134.75Y-105.75
X135.0Y-79.0
X135.0Y-80.1
T2
X112.7Y-80.75
X112.7Y-82.0
X112.7Y-83.25
X112.7Y-84.5
X112.7Y-85.75
X112.7Y-90.75
X112.7Y-92.0
X112.7Y-93.25
X112.7Y-94.5
X112.7Y-105.75
X112.7Y-107.0
X112.7Y-108.25
X112.7Y-109.5
X112.7Y-110.75
X122.5Y-127.3
X123.75Y-127.3
X125.0Y-127.3
X126.25Y-127.3
X127.5Y-127.3
X137.3Y-82.5
X137.3Y-83.75
X137.3Y-85.0
X137.3Y-86.25
X137.3Y-87.5
X137.3Y-92.5
X137.3Y-93.75
X137.3Y-95.0
X137.3Y-96.25
X137.3Y-107.5
X137.3Y-108.75
X137.3Y-110.0
X137.3Y-111.25
X137.3Y-112.5
T4
X123.0Y-113.0
X125.0Y-113.0
X127.0Y-113.0
T5
X113.05Y-126.0
X115.55Y-126.0
X134.45Y-74.0
X134.45Y-126.0
X136.95Y-74.0
X136.95Y-126.0
T6
X114.0Y-74.0
T3
G00X120.68Y-72.25
M15
G01X120.68Y-71.65
M16
G05
G00X120.68Y-76.68
M15
G01X120.68Y-75.58
M16
G05
G00X129.32Y-72.25
M15
G01X129.32Y-71.65
M16
G05
G00X129.32Y-76.68
M15
G01X129.32Y-75.58
M16
G05
T0
M30
