%TF.GenerationSoftware,KiCad,Pcbnew,(6.0.9)*%
%TF.CreationDate,2022-12-02T14:17:00-08:00*%
%TF.ProjectId,controller,636f6e74-726f-46c6-9c65-722e6b696361,1*%
%TF.SameCoordinates,Original*%
%TF.FileFunction,Copper,L4,Bot*%
%TF.FilePolarity,Positive*%
%FSLAX46Y46*%
G04 Gerber Fmt 4.6, Leading zero omitted, Abs format (unit mm)*
G04 Created by KiCad (PCBNEW (6.0.9)) date 2022-12-02 14:17:00*
%MOMM*%
%LPD*%
G01*
G04 APERTURE LIST*
G04 Aperture macros list*
%AMRoundRect*
0 Rectangle with rounded corners*
0 $1 Rounding radius*
0 $2 $3 $4 $5 $6 $7 $8 $9 X,Y pos of 4 corners*
0 Add a 4 corners polygon primitive as box body*
4,1,4,$2,$3,$4,$5,$6,$7,$8,$9,$2,$3,0*
0 Add four circle primitives for the rounded corners*
1,1,$1+$1,$2,$3*
1,1,$1+$1,$4,$5*
1,1,$1+$1,$6,$7*
1,1,$1+$1,$8,$9*
0 Add four rect primitives between the rounded corners*
20,1,$1+$1,$2,$3,$4,$5,0*
20,1,$1+$1,$4,$5,$6,$7,0*
20,1,$1+$1,$6,$7,$8,$9,0*
20,1,$1+$1,$8,$9,$2,$3,0*%
G04 Aperture macros list end*
%TA.AperFunction,ComponentPad*%
%ADD10RoundRect,0.200000X-0.450000X0.200000X-0.450000X-0.200000X0.450000X-0.200000X0.450000X0.200000X0*%
%TD*%
%TA.AperFunction,ComponentPad*%
%ADD11O,1.300000X0.800000*%
%TD*%
%TA.AperFunction,ComponentPad*%
%ADD12RoundRect,0.200000X0.450000X-0.200000X0.450000X0.200000X-0.450000X0.200000X-0.450000X-0.200000X0*%
%TD*%
%TA.AperFunction,ComponentPad*%
%ADD13RoundRect,0.200000X0.200000X0.450000X-0.200000X0.450000X-0.200000X-0.450000X0.200000X-0.450000X0*%
%TD*%
%TA.AperFunction,ComponentPad*%
%ADD14O,0.800000X1.300000*%
%TD*%
%TA.AperFunction,ComponentPad*%
%ADD15O,1.000000X2.100000*%
%TD*%
%TA.AperFunction,ComponentPad*%
%ADD16O,1.000000X1.600000*%
%TD*%
%TA.AperFunction,ComponentPad*%
%ADD17C,1.200000*%
%TD*%
%TA.AperFunction,ComponentPad*%
%ADD18C,1.500000*%
%TD*%
%TA.AperFunction,ComponentPad*%
%ADD19C,4.400000*%
%TD*%
%TA.AperFunction,ViaPad*%
%ADD20C,0.600000*%
%TD*%
%TA.AperFunction,Conductor*%
%ADD21C,0.600000*%
%TD*%
%TA.AperFunction,Conductor*%
%ADD22C,1.500000*%
%TD*%
%TA.AperFunction,Conductor*%
%ADD23C,0.300000*%
%TD*%
G04 APERTURE END LIST*
D10*
%TO.P,J6,1,Pin_1*%
%TO.N,MOSI_R*%
X137300000Y-92500000D03*
D11*
%TO.P,J6,2,Pin_2*%
%TO.N,MISO_R*%
X137300000Y-93750000D03*
%TO.P,J6,3,Pin_3*%
%TO.N,SCK_R*%
X137300000Y-95000000D03*
%TO.P,J6,4,Pin_4*%
%TO.N,NSS_R*%
X137300000Y-96250000D03*
%TD*%
D12*
%TO.P,J7,1,Pin_1*%
%TO.N,COL5*%
X112700000Y-85750000D03*
D11*
%TO.P,J7,2,Pin_2*%
%TO.N,COL4*%
X112700000Y-84500000D03*
%TO.P,J7,3,Pin_3*%
%TO.N,COL3*%
X112700000Y-83250000D03*
%TO.P,J7,4,Pin_4*%
%TO.N,COL2*%
X112700000Y-82000000D03*
%TO.P,J7,5,Pin_5*%
%TO.N,COL1*%
X112700000Y-80750000D03*
%TD*%
D13*
%TO.P,J4,1,Pin_1*%
%TO.N,LED1_OUT*%
X127500000Y-127300000D03*
D14*
%TO.P,J4,2,Pin_2*%
%TO.N,LED2_OUT*%
X126250000Y-127300000D03*
%TO.P,J4,3,Pin_3*%
%TO.N,LED3_OUT*%
X125000000Y-127300000D03*
%TO.P,J4,4,Pin_4*%
%TO.N,LED4_OUT*%
X123750000Y-127300000D03*
%TO.P,J4,5,Pin_5*%
%TO.N,LED5_OUT*%
X122500000Y-127300000D03*
%TD*%
D15*
%TO.P,J2,S1,SHIELD*%
%TO.N,GND*%
X129320000Y-76130000D03*
D16*
X120680000Y-71950000D03*
X129320000Y-71950000D03*
D15*
X120680000Y-76130000D03*
%TD*%
D17*
%TO.P,SW1,1,A*%
%TO.N,GND*%
X127000000Y-113000000D03*
%TO.P,SW1,2,B*%
%TO.N,Net-(R2-Pad1)*%
X125000000Y-113000000D03*
%TO.P,SW1,3,C*%
%TO.N,3V3*%
X123000000Y-113000000D03*
%TD*%
D18*
%TO.P,J11,1,Pin_1*%
%TO.N,5V*%
X134450000Y-126000000D03*
%TO.P,J11,2,Pin_2*%
%TO.N,GND*%
X136950000Y-126000000D03*
%TD*%
D10*
%TO.P,J8,1,Pin_1*%
%TO.N,ROW1*%
X137300000Y-82500000D03*
D11*
%TO.P,J8,2,Pin_2*%
%TO.N,ROW2*%
X137300000Y-83750000D03*
%TO.P,J8,3,Pin_3*%
%TO.N,ROW3*%
X137300000Y-85000000D03*
%TO.P,J8,4,Pin_4*%
%TO.N,ROW4*%
X137300000Y-86250000D03*
%TO.P,J8,5,Pin_5*%
%TO.N,ROW5*%
X137300000Y-87500000D03*
%TD*%
D18*
%TO.P,J1,1,Pin_1*%
%TO.N,GND*%
X136950000Y-74000000D03*
%TO.P,J1,2,Pin_2*%
%TO.N,5V*%
X134450000Y-74000000D03*
%TD*%
D12*
%TO.P,J5,1,Pin_1*%
%TO.N,MOSI_L*%
X112700000Y-94500000D03*
D11*
%TO.P,J5,2,Pin_2*%
%TO.N,MISO_L*%
X112700000Y-93250000D03*
%TO.P,J5,3,Pin_3*%
%TO.N,SCK_L*%
X112700000Y-92000000D03*
%TO.P,J5,4,Pin_4*%
%TO.N,NSS_L*%
X112700000Y-90750000D03*
%TD*%
D10*
%TO.P,J10,1,Pin_1*%
%TO.N,3V3*%
X137300000Y-107500000D03*
D11*
%TO.P,J10,2,Pin_2*%
%TO.N,ST_X*%
X137300000Y-108750000D03*
%TO.P,J10,3,Pin_3*%
%TO.N,ST_Y*%
X137300000Y-110000000D03*
%TO.P,J10,4,Pin_4*%
%TO.N,ST_P_IN*%
X137300000Y-111250000D03*
%TO.P,J10,5,Pin_5*%
%TO.N,GND*%
X137300000Y-112500000D03*
%TD*%
D12*
%TO.P,J9,1,Pin_1*%
%TO.N,GND*%
X112700000Y-110750000D03*
D11*
%TO.P,J9,2,Pin_2*%
%TO.N,TR3*%
X112700000Y-109500000D03*
%TO.P,J9,3,Pin_3*%
%TO.N,TR2*%
X112700000Y-108250000D03*
%TO.P,J9,4,Pin_4*%
%TO.N,TR1*%
X112700000Y-107000000D03*
%TO.P,J9,5,Pin_5*%
%TO.N,3V3*%
X112700000Y-105750000D03*
%TD*%
D19*
%TO.P,H1,1*%
%TO.N,N/C*%
X114000000Y-74000000D03*
%TD*%
D18*
%TO.P,J3,1,Pin_1*%
%TO.N,5V*%
X113050000Y-126000000D03*
%TO.P,J3,2,Pin_2*%
%TO.N,GND*%
X115550000Y-126000000D03*
%TD*%
D20*
%TO.N,5V*%
X127450000Y-78250000D03*
X122550000Y-78250000D03*
%TO.N,GND*%
X131500000Y-83000000D03*
X130400000Y-100500000D03*
X129500000Y-100500000D03*
X118675000Y-119000000D03*
X134750000Y-105750000D03*
X121513600Y-89611200D03*
X115250000Y-104000000D03*
X132250000Y-110750000D03*
X132750000Y-83000000D03*
X121250000Y-78250000D03*
X129400000Y-90500000D03*
X125800000Y-104000000D03*
X128500000Y-104525000D03*
X133500000Y-88625000D03*
X127000000Y-98400000D03*
X133500000Y-93275000D03*
X122500000Y-82000000D03*
X131325000Y-121000000D03*
X134000000Y-81750000D03*
X117750000Y-108250000D03*
X121300000Y-122862500D03*
X118200000Y-88000000D03*
X119700000Y-102500000D03*
X133500000Y-98775000D03*
X128750000Y-78250000D03*
X119500000Y-103500000D03*
X115250000Y-112500000D03*
X116400000Y-99900000D03*
X129400000Y-97000000D03*
X116500000Y-95900000D03*
X134750000Y-92750000D03*
X128400000Y-82750000D03*
X120600000Y-97500000D03*
%TO.N,3V3*%
X116500000Y-97000000D03*
X133000000Y-79000000D03*
X120200000Y-88000000D03*
X120675000Y-119000000D03*
X133500000Y-96900000D03*
X121275000Y-102500000D03*
X134000000Y-78250000D03*
X122250000Y-101500000D03*
X119200000Y-88000000D03*
X131400000Y-103000000D03*
X118200000Y-99000000D03*
X135000000Y-80100000D03*
X135000000Y-79000000D03*
X133400000Y-89700000D03*
X133500000Y-97750000D03*
X118200000Y-100750000D03*
X133400000Y-90700000D03*
X130200000Y-104000000D03*
X131100000Y-103800000D03*
X119675000Y-119000000D03*
X116500000Y-98000000D03*
%TO.N,ST_X*%
X129300000Y-99200000D03*
X134000000Y-107500000D03*
%TO.N,ST_Y*%
X134000000Y-109200000D03*
X128500000Y-98400000D03*
%TO.N,TR1*%
X122400000Y-96800000D03*
X116000000Y-105750000D03*
%TO.N,TR2*%
X122800000Y-97600000D03*
X116000000Y-107450000D03*
%TO.N,TR3*%
X123200000Y-98400000D03*
X116000000Y-109100000D03*
%TO.N,COL1*%
X125600000Y-83800000D03*
%TO.N,COL2*%
X125200000Y-84600000D03*
%TO.N,COL3*%
X124800000Y-85400000D03*
%TO.N,COL4*%
X124400000Y-86200000D03*
%TO.N,COL5*%
X124000000Y-87000000D03*
%TO.N,BOOT0*%
X124600000Y-91000000D03*
X123200000Y-109500000D03*
%TO.N,BOOT1*%
X134750000Y-89200000D03*
X129400000Y-92000000D03*
%TO.N,ST_P*%
X128100000Y-97600000D03*
X134000000Y-110850000D03*
%TO.N,LED_OE*%
X121300000Y-117137500D03*
X120600000Y-93000000D03*
%TO.N,LED1*%
X125400000Y-90600000D03*
X127925000Y-115800000D03*
%TO.N,LED2*%
X126625000Y-115800000D03*
X123800000Y-91400000D03*
%TO.N,LED3*%
X123000000Y-91800000D03*
X125325000Y-115800000D03*
%TO.N,LED4*%
X122200000Y-92200000D03*
X124025000Y-115800000D03*
%TO.N,LED5*%
X121400000Y-92600000D03*
X122725000Y-115800000D03*
%TD*%
D21*
%TO.N,5V*%
X122550000Y-78250000D02*
X127450000Y-78250000D01*
D22*
X130309600Y-124300000D02*
X136150000Y-124300000D01*
D21*
X126800000Y-74000000D02*
X134450000Y-74000000D01*
D22*
X138988800Y-78538800D02*
X138988800Y-121461200D01*
X134450000Y-74000000D02*
X138988800Y-78538800D01*
D21*
X129400000Y-79050000D02*
X134450000Y-74000000D01*
D22*
X132750000Y-124300000D02*
X134450000Y-126000000D01*
D21*
X128250000Y-79050000D02*
X129400000Y-79050000D01*
D22*
X136150000Y-124300000D02*
X136168600Y-124281400D01*
D21*
X122550000Y-78250000D02*
X126800000Y-74000000D01*
X127450000Y-78250000D02*
X128250000Y-79050000D01*
D22*
X113050000Y-126000000D02*
X114750000Y-124300000D01*
X138988800Y-121461200D02*
X136168600Y-124281400D01*
X130309600Y-124300000D02*
X132750000Y-124300000D01*
X136168600Y-124281400D02*
X134450000Y-126000000D01*
X114750000Y-124300000D02*
X130309600Y-124300000D01*
D21*
%TO.N,ST_X*%
X132200000Y-101168629D02*
X132200000Y-105700000D01*
X130231371Y-99200000D02*
X132200000Y-101168629D01*
X132200000Y-105700000D02*
X134000000Y-107500000D01*
X129300000Y-99200000D02*
X130231371Y-99200000D01*
%TO.N,ST_Y*%
X129400000Y-104600000D02*
X134000000Y-109200000D01*
X128500000Y-98400000D02*
X128500000Y-103393629D01*
X129400000Y-104293629D02*
X129400000Y-104600000D01*
X128500000Y-103393629D02*
X129400000Y-104293629D01*
D23*
%TO.N,TR1*%
X116000000Y-105750000D02*
X116000000Y-102030761D01*
X116000000Y-102030761D02*
X118380761Y-99650000D01*
X118380761Y-99650000D02*
X119550000Y-99650000D01*
X119550000Y-99650000D02*
X122400000Y-96800000D01*
%TO.N,TR2*%
X118850000Y-104600000D02*
X116000000Y-107450000D01*
X122800000Y-97600000D02*
X118850000Y-101550000D01*
X118850000Y-101550000D02*
X118850000Y-104600000D01*
%TO.N,TR3*%
X120497600Y-101102400D02*
X123200000Y-98400000D01*
X116000000Y-109100000D02*
X116000000Y-109080761D01*
X116000000Y-109080761D02*
X120497600Y-104583161D01*
X120497600Y-104583161D02*
X120497600Y-101102400D01*
D21*
%TO.N,COL1*%
X112972792Y-80750000D02*
X116022792Y-83800000D01*
X116022792Y-83800000D02*
X125600000Y-83800000D01*
X112700000Y-80750000D02*
X112972792Y-80750000D01*
%TO.N,COL2*%
X112700000Y-82000000D02*
X112972792Y-82000000D01*
X112972792Y-82000000D02*
X115572792Y-84600000D01*
X115572792Y-84600000D02*
X125200000Y-84600000D01*
%TO.N,COL3*%
X112700000Y-83250000D02*
X112972792Y-83250000D01*
X112972792Y-83250000D02*
X115122792Y-85400000D01*
X115122792Y-85400000D02*
X124800000Y-85400000D01*
%TO.N,COL4*%
X114789949Y-86200000D02*
X124400000Y-86200000D01*
X112700000Y-84500000D02*
X113089949Y-84500000D01*
X113089949Y-84500000D02*
X114789949Y-86200000D01*
%TO.N,COL5*%
X113208579Y-85750000D02*
X114458579Y-87000000D01*
X114458579Y-87000000D02*
X124000000Y-87000000D01*
X112700000Y-85750000D02*
X113208579Y-85750000D01*
D23*
%TO.N,BOOT0*%
X124900000Y-91300000D02*
X124900000Y-103273654D01*
X124900000Y-103273654D02*
X124650000Y-103523654D01*
X124650000Y-103523654D02*
X124650000Y-108050000D01*
X124650000Y-108050000D02*
X123200000Y-109500000D01*
X124600000Y-91000000D02*
X124900000Y-91300000D01*
D21*
%TO.N,BOOT1*%
X133231371Y-92000000D02*
X134750000Y-90481371D01*
X134750000Y-90481371D02*
X134750000Y-89200000D01*
X129400000Y-92000000D02*
X133231371Y-92000000D01*
%TO.N,ST_P*%
X133693629Y-110850000D02*
X134000000Y-110850000D01*
X126200000Y-98068629D02*
X126200000Y-103238400D01*
X127700000Y-104856371D02*
X133693629Y-110850000D01*
X128100000Y-97600000D02*
X126668629Y-97600000D01*
X126200000Y-103238400D02*
X127700000Y-104738400D01*
X126668629Y-97600000D02*
X126200000Y-98068629D01*
X127700000Y-104738400D02*
X127700000Y-104856371D01*
D23*
%TO.N,LED_OE*%
X115850000Y-98076987D02*
X114500000Y-99426986D01*
X118480761Y-93000000D02*
X115850000Y-95630761D01*
X114500000Y-102303388D02*
X113600000Y-103203387D01*
X114350000Y-109783451D02*
X115345349Y-110778800D01*
X121300000Y-115950000D02*
X121300000Y-117137500D01*
X115850000Y-95630761D02*
X115850000Y-98076987D01*
X120600000Y-93000000D02*
X118480761Y-93000000D01*
X113600000Y-104683453D02*
X114350000Y-105433453D01*
X113600000Y-103203387D02*
X113600000Y-104683453D01*
X115345349Y-110778800D02*
X116128800Y-110778800D01*
X116128800Y-110778800D02*
X121300000Y-115950000D01*
X114500000Y-99426986D02*
X114500000Y-102303388D01*
X114350000Y-105433453D02*
X114350000Y-109783451D01*
%TO.N,LED1*%
X125400000Y-90600000D02*
X125400000Y-103480761D01*
X127950000Y-115775000D02*
X127925000Y-115800000D01*
X125400000Y-103480761D02*
X125150000Y-103730761D01*
X125150000Y-104269239D02*
X125530761Y-104650000D01*
X125150000Y-103730761D02*
X125150000Y-104269239D01*
X125679200Y-104650000D02*
X127950000Y-106920800D01*
X127950000Y-106920800D02*
X127950000Y-115775000D01*
X125530761Y-104650000D02*
X125679200Y-104650000D01*
%TO.N,LED2*%
X124080761Y-91400000D02*
X124400000Y-91719239D01*
X124400000Y-91719239D02*
X124400000Y-103066547D01*
X123800000Y-91400000D02*
X124080761Y-91400000D01*
X124400000Y-103066547D02*
X124150000Y-103316547D01*
X126034800Y-115209800D02*
X126625000Y-115800000D01*
X122550000Y-109230761D02*
X122550000Y-109769239D01*
X123159247Y-108833647D02*
X122947114Y-108833647D01*
X124830761Y-112050000D02*
X125410400Y-112050000D01*
X124150000Y-107842894D02*
X123159247Y-108833647D01*
X122947114Y-108833647D02*
X122550000Y-109230761D01*
X124150000Y-103316547D02*
X124150000Y-107842894D01*
X126034800Y-112674400D02*
X126034800Y-115209800D01*
X122550000Y-109769239D02*
X124830761Y-112050000D01*
X125410400Y-112050000D02*
X126034800Y-112674400D01*
%TO.N,LED3*%
X122050000Y-109023655D02*
X122050000Y-110670800D01*
X123650000Y-107635788D02*
X123110494Y-108175294D01*
X123900000Y-102859440D02*
X123650000Y-103109440D01*
X122050000Y-110670800D02*
X124050000Y-112670800D01*
X123110494Y-108175294D02*
X122898361Y-108175294D01*
X124050000Y-112670800D02*
X124050000Y-114525000D01*
X123000000Y-91800000D02*
X123280761Y-91800000D01*
X123280761Y-91800000D02*
X123900000Y-92419239D01*
X123650000Y-103109440D02*
X123650000Y-107635788D01*
X124050000Y-114525000D02*
X125325000Y-115800000D01*
X123900000Y-92419239D02*
X123900000Y-102859440D01*
X122898361Y-108175294D02*
X122050000Y-109023655D01*
%TO.N,LED4*%
X122200000Y-94080761D02*
X117030761Y-99250000D01*
X116091200Y-99250000D02*
X115500000Y-99841200D01*
X118435297Y-109778800D02*
X124025000Y-115368503D01*
X122200000Y-92200000D02*
X122200000Y-94080761D01*
X114600000Y-103617600D02*
X114600000Y-104269239D01*
X114817180Y-104486420D02*
X115350000Y-105019240D01*
X117030761Y-99250000D02*
X116091200Y-99250000D01*
X114600000Y-104269239D02*
X114817180Y-104486420D01*
X115759561Y-109778800D02*
X118435297Y-109778800D01*
X115350000Y-105019240D02*
X115350000Y-109369239D01*
X115500000Y-102717600D02*
X114600000Y-103617600D01*
X115350000Y-109369239D02*
X115759561Y-109778800D01*
X124025000Y-115368503D02*
X124025000Y-115800000D01*
X115500000Y-99841200D02*
X115500000Y-102717600D01*
%TO.N,LED5*%
X115000000Y-102510494D02*
X114100000Y-103410494D01*
X115884093Y-98750000D02*
X115000000Y-99634093D01*
X114100000Y-103410494D02*
X114100000Y-104476346D01*
X114850000Y-109576345D02*
X115552455Y-110278800D01*
X121400000Y-92600000D02*
X121700000Y-92900000D01*
X115000000Y-99634093D02*
X115000000Y-102510494D01*
X117203800Y-110278800D02*
X122725000Y-115800000D01*
X116794400Y-98750000D02*
X115884093Y-98750000D01*
X114100000Y-104476346D02*
X114850000Y-105226346D01*
X121700000Y-92900000D02*
X121700000Y-93844400D01*
X115552455Y-110278800D02*
X117203800Y-110278800D01*
X114850000Y-105226346D02*
X114850000Y-109576345D01*
X121700000Y-93844400D02*
X116794400Y-98750000D01*
%TD*%
M02*
