%TF.GenerationSoftware,KiCad,Pcbnew,(6.0.9)*%
%TF.CreationDate,2022-12-02T14:17:00-08:00*%
%TF.ProjectId,controller,636f6e74-726f-46c6-9c65-722e6b696361,1*%
%TF.SameCoordinates,Original*%
%TF.FileFunction,Copper,L1,Top*%
%TF.FilePolarity,Positive*%
%FSLAX46Y46*%
G04 Gerber Fmt 4.6, Leading zero omitted, Abs format (unit mm)*
G04 Created by KiCad (PCBNEW (6.0.9)) date 2022-12-02 14:17:00*
%MOMM*%
%LPD*%
G01*
G04 APERTURE LIST*
G04 Aperture macros list*
%AMRoundRect*
0 Rectangle with rounded corners*
0 $1 Rounding radius*
0 $2 $3 $4 $5 $6 $7 $8 $9 X,Y pos of 4 corners*
0 Add a 4 corners polygon primitive as box body*
4,1,4,$2,$3,$4,$5,$6,$7,$8,$9,$2,$3,0*
0 Add four circle primitives for the rounded corners*
1,1,$1+$1,$2,$3*
1,1,$1+$1,$4,$5*
1,1,$1+$1,$6,$7*
1,1,$1+$1,$8,$9*
0 Add four rect primitives between the rounded corners*
20,1,$1+$1,$2,$3,$4,$5,0*
20,1,$1+$1,$4,$5,$6,$7,0*
20,1,$1+$1,$6,$7,$8,$9,0*
20,1,$1+$1,$8,$9,$2,$3,0*%
G04 Aperture macros list end*
%TA.AperFunction,SMDPad,CuDef*%
%ADD10RoundRect,0.225000X0.225000X0.250000X-0.225000X0.250000X-0.225000X-0.250000X0.225000X-0.250000X0*%
%TD*%
%TA.AperFunction,ComponentPad*%
%ADD11RoundRect,0.200000X-0.450000X0.200000X-0.450000X-0.200000X0.450000X-0.200000X0.450000X0.200000X0*%
%TD*%
%TA.AperFunction,ComponentPad*%
%ADD12O,1.300000X0.800000*%
%TD*%
%TA.AperFunction,ComponentPad*%
%ADD13RoundRect,0.200000X0.450000X-0.200000X0.450000X0.200000X-0.450000X0.200000X-0.450000X-0.200000X0*%
%TD*%
%TA.AperFunction,SMDPad,CuDef*%
%ADD14RoundRect,0.225000X0.250000X-0.225000X0.250000X0.225000X-0.250000X0.225000X-0.250000X-0.225000X0*%
%TD*%
%TA.AperFunction,SMDPad,CuDef*%
%ADD15RoundRect,0.150000X-0.150000X0.512500X-0.150000X-0.512500X0.150000X-0.512500X0.150000X0.512500X0*%
%TD*%
%TA.AperFunction,SMDPad,CuDef*%
%ADD16RoundRect,0.218750X0.218750X0.256250X-0.218750X0.256250X-0.218750X-0.256250X0.218750X-0.256250X0*%
%TD*%
%TA.AperFunction,SMDPad,CuDef*%
%ADD17RoundRect,0.225000X-0.225000X-0.250000X0.225000X-0.250000X0.225000X0.250000X-0.225000X0.250000X0*%
%TD*%
%TA.AperFunction,SMDPad,CuDef*%
%ADD18RoundRect,0.225000X-0.250000X0.225000X-0.250000X-0.225000X0.250000X-0.225000X0.250000X0.225000X0*%
%TD*%
%TA.AperFunction,SMDPad,CuDef*%
%ADD19RoundRect,0.200000X0.275000X-0.200000X0.275000X0.200000X-0.275000X0.200000X-0.275000X-0.200000X0*%
%TD*%
%TA.AperFunction,ComponentPad*%
%ADD20RoundRect,0.200000X0.200000X0.450000X-0.200000X0.450000X-0.200000X-0.450000X0.200000X-0.450000X0*%
%TD*%
%TA.AperFunction,ComponentPad*%
%ADD21O,0.800000X1.300000*%
%TD*%
%TA.AperFunction,SMDPad,CuDef*%
%ADD22R,0.600000X1.450000*%
%TD*%
%TA.AperFunction,SMDPad,CuDef*%
%ADD23R,0.300000X1.450000*%
%TD*%
%TA.AperFunction,ComponentPad*%
%ADD24O,1.000000X2.100000*%
%TD*%
%TA.AperFunction,ComponentPad*%
%ADD25O,1.000000X1.600000*%
%TD*%
%TA.AperFunction,ComponentPad*%
%ADD26C,1.200000*%
%TD*%
%TA.AperFunction,SMDPad,CuDef*%
%ADD27RoundRect,0.200000X0.200000X0.275000X-0.200000X0.275000X-0.200000X-0.275000X0.200000X-0.275000X0*%
%TD*%
%TA.AperFunction,ComponentPad*%
%ADD28C,1.500000*%
%TD*%
%TA.AperFunction,SMDPad,CuDef*%
%ADD29RoundRect,0.150000X0.587500X0.150000X-0.587500X0.150000X-0.587500X-0.150000X0.587500X-0.150000X0*%
%TD*%
%TA.AperFunction,SMDPad,CuDef*%
%ADD30RoundRect,0.200000X-0.275000X0.200000X-0.275000X-0.200000X0.275000X-0.200000X0.275000X0.200000X0*%
%TD*%
%TA.AperFunction,SMDPad,CuDef*%
%ADD31RoundRect,0.075000X0.075000X-0.700000X0.075000X0.700000X-0.075000X0.700000X-0.075000X-0.700000X0*%
%TD*%
%TA.AperFunction,SMDPad,CuDef*%
%ADD32RoundRect,0.075000X0.700000X-0.075000X0.700000X0.075000X-0.700000X0.075000X-0.700000X-0.075000X0*%
%TD*%
%TA.AperFunction,SMDPad,CuDef*%
%ADD33RoundRect,0.100000X-0.100000X0.637500X-0.100000X-0.637500X0.100000X-0.637500X0.100000X0.637500X0*%
%TD*%
%TA.AperFunction,SMDPad,CuDef*%
%ADD34R,2.000000X2.400000*%
%TD*%
%TA.AperFunction,ComponentPad*%
%ADD35C,4.400000*%
%TD*%
%TA.AperFunction,ViaPad*%
%ADD36C,0.600000*%
%TD*%
%TA.AperFunction,Conductor*%
%ADD37C,0.900000*%
%TD*%
%TA.AperFunction,Conductor*%
%ADD38C,0.500000*%
%TD*%
%TA.AperFunction,Conductor*%
%ADD39C,0.600000*%
%TD*%
%TA.AperFunction,Conductor*%
%ADD40C,0.400000*%
%TD*%
%TA.AperFunction,Conductor*%
%ADD41C,0.300000*%
%TD*%
%TA.AperFunction,Conductor*%
%ADD42C,0.800000*%
%TD*%
%TA.AperFunction,Conductor*%
%ADD43C,0.250000*%
%TD*%
%TA.AperFunction,Conductor*%
%ADD44C,0.261112*%
%TD*%
%TA.AperFunction,Conductor*%
%ADD45C,0.200000*%
%TD*%
G04 APERTURE END LIST*
D10*
%TO.P,C7,1*%
%TO.N,3V3*%
X120028000Y-87000000D03*
%TO.P,C7,2*%
%TO.N,GND*%
X118478000Y-87000000D03*
%TD*%
D11*
%TO.P,J6,1,Pin_1*%
%TO.N,MOSI_R*%
X137300000Y-92500000D03*
D12*
%TO.P,J6,2,Pin_2*%
%TO.N,MISO_R*%
X137300000Y-93750000D03*
%TO.P,J6,3,Pin_3*%
%TO.N,SCK_R*%
X137300000Y-95000000D03*
%TO.P,J6,4,Pin_4*%
%TO.N,NSS_R*%
X137300000Y-96250000D03*
%TD*%
D13*
%TO.P,J7,1,Pin_1*%
%TO.N,COL5*%
X112700000Y-85750000D03*
D12*
%TO.P,J7,2,Pin_2*%
%TO.N,COL4*%
X112700000Y-84500000D03*
%TO.P,J7,3,Pin_3*%
%TO.N,COL3*%
X112700000Y-83250000D03*
%TO.P,J7,4,Pin_4*%
%TO.N,COL2*%
X112700000Y-82000000D03*
%TO.P,J7,5,Pin_5*%
%TO.N,COL1*%
X112700000Y-80750000D03*
%TD*%
D14*
%TO.P,C8,1*%
%TO.N,3V3*%
X117500000Y-97525000D03*
%TO.P,C8,2*%
%TO.N,GND*%
X117500000Y-95975000D03*
%TD*%
D15*
%TO.P,U3,1,I/O1*%
%TO.N,USB_RAW_D-*%
X123950000Y-80862500D03*
%TO.P,U3,2,GND*%
%TO.N,GND*%
X123000000Y-80862500D03*
%TO.P,U3,3,I/O2*%
%TO.N,USB_RAW_D+*%
X122050000Y-80862500D03*
%TO.P,U3,4,I/O2*%
%TO.N,USB_D+*%
X122050000Y-83137500D03*
%TO.P,U3,5,VBUS*%
%TO.N,5V*%
X123000000Y-83137500D03*
%TO.P,U3,6,I/O1*%
%TO.N,USB_D-*%
X123950000Y-83137500D03*
%TD*%
D16*
%TO.P,FB1,1*%
%TO.N,3V3*%
X128887500Y-103000000D03*
%TO.P,FB1,2*%
%TO.N,VREF*%
X127312500Y-103000000D03*
%TD*%
D17*
%TO.P,C18,1*%
%TO.N,TR2*%
X115225000Y-108250000D03*
%TO.P,C18,2*%
%TO.N,GND*%
X116775000Y-108250000D03*
%TD*%
D14*
%TO.P,C17,1*%
%TO.N,TR1*%
X115250000Y-106525000D03*
%TO.P,C17,2*%
%TO.N,GND*%
X115250000Y-104975000D03*
%TD*%
D18*
%TO.P,C13,1*%
%TO.N,VCAP*%
X132500000Y-91725000D03*
%TO.P,C13,2*%
%TO.N,GND*%
X132500000Y-93275000D03*
%TD*%
D17*
%TO.P,C10,1*%
%TO.N,VREF*%
X127325000Y-101500000D03*
%TO.P,C10,2*%
%TO.N,GND*%
X128875000Y-101500000D03*
%TD*%
D19*
%TO.P,R4,1*%
%TO.N,ST_P_IN*%
X134750000Y-113325000D03*
%TO.P,R4,2*%
%TO.N,ST_P*%
X134750000Y-111675000D03*
%TD*%
D10*
%TO.P,C3,1*%
%TO.N,3V3*%
X118975000Y-99900000D03*
%TO.P,C3,2*%
%TO.N,GND*%
X117425000Y-99900000D03*
%TD*%
D20*
%TO.P,J4,1,Pin_1*%
%TO.N,LED1_OUT*%
X127500000Y-127300000D03*
D21*
%TO.P,J4,2,Pin_2*%
%TO.N,LED2_OUT*%
X126250000Y-127300000D03*
%TO.P,J4,3,Pin_3*%
%TO.N,LED3_OUT*%
X125000000Y-127300000D03*
%TO.P,J4,4,Pin_4*%
%TO.N,LED4_OUT*%
X123750000Y-127300000D03*
%TO.P,J4,5,Pin_5*%
%TO.N,LED5_OUT*%
X122500000Y-127300000D03*
%TD*%
D10*
%TO.P,C15,1*%
%TO.N,3V3*%
X120275000Y-120000000D03*
%TO.P,C15,2*%
%TO.N,GND*%
X118725000Y-120000000D03*
%TD*%
D22*
%TO.P,J2,A1,GND*%
%TO.N,GND*%
X128250000Y-77045000D03*
%TO.P,J2,A4,VBUS*%
%TO.N,5V*%
X127450000Y-77045000D03*
D23*
%TO.P,J2,A5,CC1*%
%TO.N,unconnected-(J2-PadA5)*%
X126250000Y-77045000D03*
%TO.P,J2,A6,D+*%
%TO.N,USB_RAW_D+*%
X125250000Y-77045000D03*
%TO.P,J2,A7,D-*%
%TO.N,USB_RAW_D-*%
X124750000Y-77045000D03*
%TO.P,J2,A8,SBU1*%
%TO.N,USB_HPS*%
X123750000Y-77045000D03*
D22*
%TO.P,J2,A9,VBUS*%
%TO.N,5V*%
X122550000Y-77045000D03*
%TO.P,J2,A12,GND*%
%TO.N,GND*%
X121750000Y-77045000D03*
%TO.P,J2,B1,GND*%
X121750000Y-77045000D03*
%TO.P,J2,B4,VBUS*%
%TO.N,5V*%
X122550000Y-77045000D03*
D23*
%TO.P,J2,B5,CC2*%
%TO.N,unconnected-(J2-PadB5)*%
X123250000Y-77045000D03*
%TO.P,J2,B6,D+*%
%TO.N,USB_RAW_D+*%
X124250000Y-77045000D03*
%TO.P,J2,B7,D-*%
%TO.N,USB_RAW_D-*%
X125750000Y-77045000D03*
%TO.P,J2,B8,SBU2*%
%TO.N,USB_HPS*%
X126750000Y-77045000D03*
D22*
%TO.P,J2,B9,VBUS*%
%TO.N,5V*%
X127450000Y-77045000D03*
%TO.P,J2,B12,GND*%
%TO.N,GND*%
X128250000Y-77045000D03*
D24*
%TO.P,J2,S1,SHIELD*%
X129320000Y-76130000D03*
D25*
X120680000Y-71950000D03*
X129320000Y-71950000D03*
D24*
X120680000Y-76130000D03*
%TD*%
D26*
%TO.P,SW1,1,A*%
%TO.N,GND*%
X127000000Y-113000000D03*
%TO.P,SW1,2,B*%
%TO.N,Net-(R2-Pad1)*%
X125000000Y-113000000D03*
%TO.P,SW1,3,C*%
%TO.N,3V3*%
X123000000Y-113000000D03*
%TD*%
D17*
%TO.P,C16,1*%
%TO.N,5V*%
X129725000Y-120000000D03*
%TO.P,C16,2*%
%TO.N,GND*%
X131275000Y-120000000D03*
%TD*%
D18*
%TO.P,C19,1*%
%TO.N,TR3*%
X115250000Y-109975000D03*
%TO.P,C19,2*%
%TO.N,GND*%
X115250000Y-111525000D03*
%TD*%
D27*
%TO.P,R2,1*%
%TO.N,Net-(R2-Pad1)*%
X125825000Y-109500000D03*
%TO.P,R2,2*%
%TO.N,BOOT0*%
X124175000Y-109500000D03*
%TD*%
D28*
%TO.P,J11,1,Pin_1*%
%TO.N,5V*%
X134450000Y-126000000D03*
%TO.P,J11,2,Pin_2*%
%TO.N,GND*%
X136950000Y-126000000D03*
%TD*%
D29*
%TO.P,U1,1,GND*%
%TO.N,GND*%
X132137500Y-82150000D03*
%TO.P,U1,2,VO*%
%TO.N,3V3*%
X132137500Y-80250000D03*
%TO.P,U1,3,VI*%
%TO.N,5V*%
X130262500Y-81200000D03*
%TD*%
D30*
%TO.P,R3,1*%
%TO.N,BOOT1*%
X134750000Y-90175000D03*
%TO.P,R3,2*%
%TO.N,GND*%
X134750000Y-91825000D03*
%TD*%
D31*
%TO.P,U2,1,VBAT*%
%TO.N,3V3*%
X121250000Y-99675000D03*
%TO.P,U2,2,PC13*%
%TO.N,unconnected-(U2-Pad2)*%
X121750000Y-99675000D03*
%TO.P,U2,3,PC14*%
%TO.N,unconnected-(U2-Pad3)*%
X122250000Y-99675000D03*
%TO.P,U2,4,PC15*%
%TO.N,unconnected-(U2-Pad4)*%
X122750000Y-99675000D03*
%TO.P,U2,5,PH0*%
%TO.N,HSE_IN*%
X123250000Y-99675000D03*
%TO.P,U2,6,PH1*%
%TO.N,HSE_OUT*%
X123750000Y-99675000D03*
%TO.P,U2,7,NRST*%
%TO.N,NRST*%
X124250000Y-99675000D03*
%TO.P,U2,8,PC0*%
%TO.N,TR3*%
X124750000Y-99675000D03*
%TO.P,U2,9,PC1*%
%TO.N,TR2*%
X125250000Y-99675000D03*
%TO.P,U2,10,PC2*%
%TO.N,TR1*%
X125750000Y-99675000D03*
%TO.P,U2,11,PC3*%
%TO.N,unconnected-(U2-Pad11)*%
X126250000Y-99675000D03*
%TO.P,U2,12,VSSA*%
%TO.N,GND*%
X126750000Y-99675000D03*
%TO.P,U2,13,VREF+*%
%TO.N,VREF*%
X127250000Y-99675000D03*
%TO.P,U2,14,PA0*%
%TO.N,ST_P*%
X127750000Y-99675000D03*
%TO.P,U2,15,PA1*%
%TO.N,ST_Y*%
X128250000Y-99675000D03*
%TO.P,U2,16,PA2*%
%TO.N,ST_X*%
X128750000Y-99675000D03*
D32*
%TO.P,U2,17,PA3*%
%TO.N,unconnected-(U2-Pad17)*%
X130675000Y-97750000D03*
%TO.P,U2,18,VSS*%
%TO.N,GND*%
X130675000Y-97250000D03*
%TO.P,U2,19,VDD*%
%TO.N,3V3*%
X130675000Y-96750000D03*
%TO.P,U2,20,PA4*%
%TO.N,NSS_R*%
X130675000Y-96250000D03*
%TO.P,U2,21,PA5*%
%TO.N,SCK_R*%
X130675000Y-95750000D03*
%TO.P,U2,22,PA6*%
%TO.N,MISO_R*%
X130675000Y-95250000D03*
%TO.P,U2,23,PA7*%
%TO.N,MOSI_R*%
X130675000Y-94750000D03*
%TO.P,U2,24,PC4*%
%TO.N,unconnected-(U2-Pad24)*%
X130675000Y-94250000D03*
%TO.P,U2,25,PC5*%
%TO.N,unconnected-(U2-Pad25)*%
X130675000Y-93750000D03*
%TO.P,U2,26,PB0*%
%TO.N,unconnected-(U2-Pad26)*%
X130675000Y-93250000D03*
%TO.P,U2,27,PB1*%
%TO.N,unconnected-(U2-Pad27)*%
X130675000Y-92750000D03*
%TO.P,U2,28,PB2*%
%TO.N,BOOT1*%
X130675000Y-92250000D03*
%TO.P,U2,29,PB10*%
%TO.N,unconnected-(U2-Pad29)*%
X130675000Y-91750000D03*
%TO.P,U2,30,VCAP1*%
%TO.N,VCAP*%
X130675000Y-91250000D03*
%TO.P,U2,31,VSS*%
%TO.N,GND*%
X130675000Y-90750000D03*
%TO.P,U2,32,VDD*%
%TO.N,3V3*%
X130675000Y-90250000D03*
D31*
%TO.P,U2,33,PB12*%
%TO.N,ROW5*%
X128750000Y-88325000D03*
%TO.P,U2,34,PB13*%
%TO.N,ROW4*%
X128250000Y-88325000D03*
%TO.P,U2,35,PB14*%
%TO.N,ROW3*%
X127750000Y-88325000D03*
%TO.P,U2,36,PB15*%
%TO.N,ROW2*%
X127250000Y-88325000D03*
%TO.P,U2,37,PC6*%
%TO.N,ROW1*%
X126750000Y-88325000D03*
%TO.P,U2,38,PC7*%
%TO.N,COL1*%
X126250000Y-88325000D03*
%TO.P,U2,39,PC8*%
%TO.N,COL2*%
X125750000Y-88325000D03*
%TO.P,U2,40,PC9*%
%TO.N,COL3*%
X125250000Y-88325000D03*
%TO.P,U2,41,PA8*%
%TO.N,COL4*%
X124750000Y-88325000D03*
%TO.P,U2,42,PA9*%
%TO.N,COL5*%
X124250000Y-88325000D03*
%TO.P,U2,43,PA10*%
%TO.N,unconnected-(U2-Pad43)*%
X123750000Y-88325000D03*
%TO.P,U2,44,PA11*%
%TO.N,USB_D-*%
X123250000Y-88325000D03*
%TO.P,U2,45,PA12*%
%TO.N,USB_D+*%
X122750000Y-88325000D03*
%TO.P,U2,46,PA13*%
%TO.N,USB_HPS*%
X122250000Y-88325000D03*
%TO.P,U2,47,VSS*%
%TO.N,GND*%
X121750000Y-88325000D03*
%TO.P,U2,48,VDD*%
%TO.N,3V3*%
X121250000Y-88325000D03*
D32*
%TO.P,U2,49,PA14*%
%TO.N,unconnected-(U2-Pad49)*%
X119325000Y-90250000D03*
%TO.P,U2,50,PA15*%
%TO.N,NSS_L*%
X119325000Y-90750000D03*
%TO.P,U2,51,PC10*%
%TO.N,SCK_L*%
X119325000Y-91250000D03*
%TO.P,U2,52,PC11*%
%TO.N,MISO_L*%
X119325000Y-91750000D03*
%TO.P,U2,53,PC12*%
%TO.N,MOSI_L*%
X119325000Y-92250000D03*
%TO.P,U2,54,PD2*%
%TO.N,unconnected-(U2-Pad54)*%
X119325000Y-92750000D03*
%TO.P,U2,55,PB3*%
%TO.N,LED_OE*%
X119325000Y-93250000D03*
%TO.P,U2,56,PB4*%
%TO.N,LED5*%
X119325000Y-93750000D03*
%TO.P,U2,57,PB5*%
%TO.N,LED4*%
X119325000Y-94250000D03*
%TO.P,U2,58,PB6*%
%TO.N,LED3*%
X119325000Y-94750000D03*
%TO.P,U2,59,PB7*%
%TO.N,LED2*%
X119325000Y-95250000D03*
%TO.P,U2,60,BOOT0*%
%TO.N,BOOT0*%
X119325000Y-95750000D03*
%TO.P,U2,61,PB8*%
%TO.N,LED1*%
X119325000Y-96250000D03*
%TO.P,U2,62,PB9*%
%TO.N,unconnected-(U2-Pad62)*%
X119325000Y-96750000D03*
%TO.P,U2,63,VSS*%
%TO.N,GND*%
X119325000Y-97250000D03*
%TO.P,U2,64,VDD*%
%TO.N,3V3*%
X119325000Y-97750000D03*
%TD*%
D14*
%TO.P,C12,1*%
%TO.N,Net-(C12-Pad1)*%
X127400000Y-106075000D03*
%TO.P,C12,2*%
%TO.N,GND*%
X127400000Y-104525000D03*
%TD*%
D18*
%TO.P,C5,1*%
%TO.N,3V3*%
X132500000Y-97225000D03*
%TO.P,C5,2*%
%TO.N,GND*%
X132500000Y-98775000D03*
%TD*%
D11*
%TO.P,J8,1,Pin_1*%
%TO.N,ROW1*%
X137300000Y-82500000D03*
D12*
%TO.P,J8,2,Pin_2*%
%TO.N,ROW2*%
X137300000Y-83750000D03*
%TO.P,J8,3,Pin_3*%
%TO.N,ROW3*%
X137300000Y-85000000D03*
%TO.P,J8,4,Pin_4*%
%TO.N,ROW4*%
X137300000Y-86250000D03*
%TO.P,J8,5,Pin_5*%
%TO.N,ROW5*%
X137300000Y-87500000D03*
%TD*%
D18*
%TO.P,C14,1*%
%TO.N,NRST*%
X125800000Y-101475000D03*
%TO.P,C14,2*%
%TO.N,GND*%
X125800000Y-103025000D03*
%TD*%
D28*
%TO.P,J1,1,Pin_1*%
%TO.N,GND*%
X136950000Y-74000000D03*
%TO.P,J1,2,Pin_2*%
%TO.N,5V*%
X134450000Y-74000000D03*
%TD*%
D13*
%TO.P,J5,1,Pin_1*%
%TO.N,MOSI_L*%
X112700000Y-94500000D03*
D12*
%TO.P,J5,2,Pin_2*%
%TO.N,MISO_L*%
X112700000Y-93250000D03*
%TO.P,J5,3,Pin_3*%
%TO.N,SCK_L*%
X112700000Y-92000000D03*
%TO.P,J5,4,Pin_4*%
%TO.N,NSS_L*%
X112700000Y-90750000D03*
%TD*%
D10*
%TO.P,C21,1*%
%TO.N,ST_Y*%
X134775000Y-110000000D03*
%TO.P,C21,2*%
%TO.N,GND*%
X133225000Y-110000000D03*
%TD*%
D18*
%TO.P,C2,1*%
%TO.N,3V3*%
X134000000Y-79225000D03*
%TO.P,C2,2*%
%TO.N,GND*%
X134000000Y-80775000D03*
%TD*%
D33*
%TO.P,U4,1,A1*%
%TO.N,LED1*%
X127925000Y-117137500D03*
%TO.P,U4,2,VCCA*%
%TO.N,3V3*%
X127275000Y-117137500D03*
%TO.P,U4,3,A2*%
%TO.N,LED2*%
X126625000Y-117137500D03*
%TO.P,U4,4,A3*%
%TO.N,unconnected-(U4-Pad4)*%
X125975000Y-117137500D03*
%TO.P,U4,5,A4*%
%TO.N,LED3*%
X125325000Y-117137500D03*
%TO.P,U4,6,A5*%
%TO.N,unconnected-(U4-Pad6)*%
X124675000Y-117137500D03*
%TO.P,U4,7,A6*%
%TO.N,LED4*%
X124025000Y-117137500D03*
%TO.P,U4,8,A7*%
%TO.N,unconnected-(U4-Pad8)*%
X123375000Y-117137500D03*
%TO.P,U4,9,A8*%
%TO.N,LED5*%
X122725000Y-117137500D03*
%TO.P,U4,10,OE*%
%TO.N,LED_OE*%
X122075000Y-117137500D03*
%TO.P,U4,11,GND*%
%TO.N,GND*%
X122075000Y-122862500D03*
%TO.P,U4,12,B8*%
%TO.N,LED5_OUT*%
X122725000Y-122862500D03*
%TO.P,U4,13,B7*%
%TO.N,unconnected-(U4-Pad13)*%
X123375000Y-122862500D03*
%TO.P,U4,14,B6*%
%TO.N,LED4_OUT*%
X124025000Y-122862500D03*
%TO.P,U4,15,B5*%
%TO.N,unconnected-(U4-Pad15)*%
X124675000Y-122862500D03*
%TO.P,U4,16,B4*%
%TO.N,LED3_OUT*%
X125325000Y-122862500D03*
%TO.P,U4,17,B3*%
%TO.N,unconnected-(U4-Pad17)*%
X125975000Y-122862500D03*
%TO.P,U4,18,B2*%
%TO.N,LED2_OUT*%
X126625000Y-122862500D03*
%TO.P,U4,19,VCCB*%
%TO.N,5V*%
X127275000Y-122862500D03*
%TO.P,U4,20,B1*%
%TO.N,LED1_OUT*%
X127925000Y-122862500D03*
%TD*%
D18*
%TO.P,C1,1*%
%TO.N,5V*%
X128400000Y-80225000D03*
%TO.P,C1,2*%
%TO.N,GND*%
X128400000Y-81775000D03*
%TD*%
D14*
%TO.P,C11,1*%
%TO.N,HSE_IN*%
X119500000Y-106075000D03*
%TO.P,C11,2*%
%TO.N,GND*%
X119500000Y-104525000D03*
%TD*%
D30*
%TO.P,R1,1*%
%TO.N,HSE_OUT*%
X124250000Y-102175000D03*
%TO.P,R1,2*%
%TO.N,Net-(C12-Pad1)*%
X124250000Y-103825000D03*
%TD*%
D11*
%TO.P,J10,1,Pin_1*%
%TO.N,3V3*%
X137300000Y-107500000D03*
D12*
%TO.P,J10,2,Pin_2*%
%TO.N,ST_X*%
X137300000Y-108750000D03*
%TO.P,J10,3,Pin_3*%
%TO.N,ST_Y*%
X137300000Y-110000000D03*
%TO.P,J10,4,Pin_4*%
%TO.N,ST_P_IN*%
X137300000Y-111250000D03*
%TO.P,J10,5,Pin_5*%
%TO.N,GND*%
X137300000Y-112500000D03*
%TD*%
D13*
%TO.P,J9,1,Pin_1*%
%TO.N,GND*%
X112700000Y-110750000D03*
D12*
%TO.P,J9,2,Pin_2*%
%TO.N,TR3*%
X112700000Y-109500000D03*
%TO.P,J9,3,Pin_3*%
%TO.N,TR2*%
X112700000Y-108250000D03*
%TO.P,J9,4,Pin_4*%
%TO.N,TR1*%
X112700000Y-107000000D03*
%TO.P,J9,5,Pin_5*%
%TO.N,3V3*%
X112700000Y-105750000D03*
%TD*%
D14*
%TO.P,C6,1*%
%TO.N,3V3*%
X132500000Y-90175000D03*
%TO.P,C6,2*%
%TO.N,GND*%
X132500000Y-88625000D03*
%TD*%
%TO.P,C20,1*%
%TO.N,ST_X*%
X134750000Y-108275000D03*
%TO.P,C20,2*%
%TO.N,GND*%
X134750000Y-106725000D03*
%TD*%
D10*
%TO.P,C4,1*%
%TO.N,3V3*%
X121275000Y-101500000D03*
%TO.P,C4,2*%
%TO.N,GND*%
X119725000Y-101500000D03*
%TD*%
D34*
%TO.P,Y1,1,1*%
%TO.N,HSE_IN*%
X121650000Y-106500000D03*
%TO.P,Y1,2,2*%
%TO.N,Net-(C12-Pad1)*%
X125350000Y-106500000D03*
%TD*%
D35*
%TO.P,H1,1*%
%TO.N,N/C*%
X114000000Y-74000000D03*
%TD*%
D14*
%TO.P,C9,1*%
%TO.N,3V3*%
X130400000Y-103025000D03*
%TO.P,C9,2*%
%TO.N,GND*%
X130400000Y-101475000D03*
%TD*%
D28*
%TO.P,J3,1,Pin_1*%
%TO.N,5V*%
X113050000Y-126000000D03*
%TO.P,J3,2,Pin_2*%
%TO.N,GND*%
X115550000Y-126000000D03*
%TD*%
D36*
%TO.N,5V*%
X127450000Y-78250000D03*
X122550000Y-78250000D03*
%TO.N,GND*%
X131500000Y-83000000D03*
X130400000Y-100500000D03*
X129500000Y-100500000D03*
X118675000Y-119000000D03*
X134750000Y-105750000D03*
X121513600Y-89611200D03*
X115250000Y-104000000D03*
X132250000Y-110750000D03*
X132750000Y-83000000D03*
X121250000Y-78250000D03*
X129400000Y-90500000D03*
X125800000Y-104000000D03*
X128500000Y-104525000D03*
X133500000Y-88625000D03*
X127000000Y-98400000D03*
X133500000Y-93275000D03*
X122500000Y-82000000D03*
X131325000Y-121000000D03*
X134000000Y-81750000D03*
X117750000Y-108250000D03*
X121300000Y-122862500D03*
X118200000Y-88000000D03*
X119700000Y-102500000D03*
X133500000Y-98775000D03*
X128750000Y-78250000D03*
X119500000Y-103500000D03*
X115250000Y-112500000D03*
X116400000Y-99900000D03*
X129400000Y-97000000D03*
X116500000Y-95900000D03*
X134750000Y-92750000D03*
X128400000Y-82750000D03*
X120600000Y-97500000D03*
%TO.N,3V3*%
X116500000Y-97000000D03*
X133000000Y-79000000D03*
X120200000Y-88000000D03*
X120675000Y-119000000D03*
X133500000Y-96900000D03*
X121275000Y-102500000D03*
X134000000Y-78250000D03*
X122250000Y-101500000D03*
X119200000Y-88000000D03*
X131400000Y-103000000D03*
X118200000Y-99000000D03*
X135000000Y-80100000D03*
X135000000Y-79000000D03*
X133400000Y-89700000D03*
X133500000Y-97750000D03*
X118200000Y-100750000D03*
X133400000Y-90700000D03*
X130200000Y-104000000D03*
X131100000Y-103800000D03*
X119675000Y-119000000D03*
X116500000Y-98000000D03*
%TO.N,ST_X*%
X129300000Y-99200000D03*
X134000000Y-107500000D03*
%TO.N,ST_Y*%
X134000000Y-109200000D03*
X128500000Y-98400000D03*
%TO.N,TR1*%
X122400000Y-96800000D03*
X116000000Y-105750000D03*
%TO.N,TR2*%
X122800000Y-97600000D03*
X116000000Y-107450000D03*
%TO.N,TR3*%
X123200000Y-98400000D03*
X116000000Y-109100000D03*
%TO.N,COL1*%
X125600000Y-83800000D03*
%TO.N,COL2*%
X125200000Y-84600000D03*
%TO.N,COL3*%
X124800000Y-85400000D03*
%TO.N,COL4*%
X124400000Y-86200000D03*
%TO.N,COL5*%
X124000000Y-87000000D03*
%TO.N,BOOT0*%
X124600000Y-91000000D03*
X123200000Y-109500000D03*
%TO.N,BOOT1*%
X134750000Y-89200000D03*
X129400000Y-92000000D03*
%TO.N,ST_P*%
X128100000Y-97600000D03*
X134000000Y-110850000D03*
%TO.N,LED_OE*%
X121300000Y-117137500D03*
X120600000Y-93000000D03*
%TO.N,LED1*%
X125400000Y-90600000D03*
X127925000Y-115800000D03*
%TO.N,LED2*%
X126625000Y-115800000D03*
X123800000Y-91400000D03*
%TO.N,LED3*%
X123000000Y-91800000D03*
X125325000Y-115800000D03*
%TO.N,LED4*%
X122200000Y-92200000D03*
X124025000Y-115800000D03*
%TO.N,LED5*%
X121400000Y-92600000D03*
X122725000Y-115800000D03*
%TD*%
D37*
%TO.N,5V*%
X129725000Y-121275000D02*
X134450000Y-126000000D01*
X128400000Y-80050000D02*
X134450000Y-74000000D01*
D38*
X123000000Y-82576472D02*
X123000000Y-83137500D01*
D39*
X127450000Y-77045000D02*
X127450000Y-78250000D01*
X129375000Y-81200000D02*
X128400000Y-80225000D01*
D38*
X123551472Y-82025000D02*
X123000000Y-82576472D01*
D37*
X129725000Y-120000000D02*
X129725000Y-121275000D01*
D40*
X129342893Y-120000000D02*
X127275000Y-122067893D01*
X127275000Y-122067893D02*
X127275000Y-122862500D01*
D38*
X124298528Y-82025000D02*
X123551472Y-82025000D01*
D39*
X122550000Y-77045000D02*
X122550000Y-78250000D01*
X130262500Y-81200000D02*
X129375000Y-81200000D01*
D38*
X126728000Y-78250000D02*
X124700000Y-80278000D01*
D40*
X129725000Y-120000000D02*
X129342893Y-120000000D01*
D38*
X127450000Y-78250000D02*
X126728000Y-78250000D01*
X124700000Y-81623528D02*
X124298528Y-82025000D01*
X124700000Y-80278000D02*
X124700000Y-81623528D01*
D37*
X128400000Y-80225000D02*
X128400000Y-80050000D01*
D39*
%TO.N,GND*%
X132250000Y-110750000D02*
X132475000Y-110750000D01*
X119700000Y-102500000D02*
X119700000Y-101525000D01*
X118200000Y-87278000D02*
X118478000Y-87000000D01*
X131500000Y-82787500D02*
X132137500Y-82150000D01*
D41*
X130675000Y-90750000D02*
X129650000Y-90750000D01*
D39*
X134750000Y-105750000D02*
X134750000Y-106725000D01*
D41*
X120350000Y-97250000D02*
X120600000Y-97500000D01*
D40*
X122075000Y-122862500D02*
X121300000Y-122862500D01*
D39*
X129500000Y-100500000D02*
X129500000Y-100875000D01*
X115250000Y-104000000D02*
X115250000Y-104975000D01*
X131325000Y-121000000D02*
X131325000Y-120050000D01*
D41*
X121750000Y-88325000D02*
X121750000Y-89374800D01*
D39*
X134750000Y-92750000D02*
X134750000Y-91825000D01*
X115250000Y-112500000D02*
X115250000Y-111525000D01*
X128250000Y-77750000D02*
X128750000Y-78250000D01*
X133500000Y-93275000D02*
X132500000Y-93275000D01*
X119700000Y-101525000D02*
X119725000Y-101500000D01*
X131500000Y-83000000D02*
X131500000Y-82787500D01*
X125800000Y-104000000D02*
X125800000Y-103025000D01*
X116500000Y-95900000D02*
X117425000Y-95900000D01*
X117425000Y-99900000D02*
X116400000Y-99900000D01*
X118675000Y-119950000D02*
X118725000Y-120000000D01*
X133500000Y-98775000D02*
X132500000Y-98775000D01*
X128250000Y-77045000D02*
X128250000Y-77750000D01*
X121750000Y-77750000D02*
X121250000Y-78250000D01*
X132475000Y-110750000D02*
X133225000Y-110000000D01*
X118200000Y-88000000D02*
X118200000Y-87278000D01*
X134000000Y-81750000D02*
X134000000Y-80775000D01*
X119500000Y-103500000D02*
X119500000Y-104525000D01*
X131500000Y-83000000D02*
X132750000Y-83000000D01*
D41*
X126750000Y-98650000D02*
X127000000Y-98400000D01*
D39*
X132750000Y-83000000D02*
X132403000Y-83000000D01*
X132750000Y-82762500D02*
X132137500Y-82150000D01*
X118675000Y-119000000D02*
X118675000Y-119950000D01*
D38*
X123000000Y-81500000D02*
X122500000Y-82000000D01*
D41*
X129650000Y-90750000D02*
X129400000Y-90500000D01*
X121750000Y-89374800D02*
X121513600Y-89611200D01*
D39*
X117750000Y-108250000D02*
X116775000Y-108250000D01*
X128400000Y-82750000D02*
X128400000Y-81775000D01*
D41*
X129650000Y-97250000D02*
X129400000Y-97000000D01*
X126750000Y-99675000D02*
X126750000Y-98650000D01*
D39*
X121750000Y-77045000D02*
X121750000Y-77750000D01*
X132403000Y-83000000D02*
X132080000Y-82677000D01*
X133500000Y-88625000D02*
X132500000Y-88625000D01*
X128500000Y-104525000D02*
X127400000Y-104525000D01*
D41*
X130675000Y-97250000D02*
X129650000Y-97250000D01*
D39*
X117425000Y-95900000D02*
X117500000Y-95975000D01*
X130400000Y-100500000D02*
X130400000Y-101475000D01*
X129500000Y-100875000D02*
X128875000Y-101500000D01*
X131325000Y-120050000D02*
X131275000Y-120000000D01*
X132750000Y-83000000D02*
X132750000Y-82762500D01*
D38*
X123000000Y-80862500D02*
X123000000Y-81500000D01*
D41*
X119325000Y-97250000D02*
X120350000Y-97250000D01*
%TO.N,3V3*%
X118975000Y-99900000D02*
X121025000Y-99900000D01*
D39*
X117025000Y-98000000D02*
X117500000Y-97525000D01*
X130315000Y-104000000D02*
X131315000Y-103000000D01*
D41*
X121025000Y-99900000D02*
X121250000Y-99675000D01*
D39*
X133400000Y-89700000D02*
X132975000Y-89700000D01*
X120675000Y-119600000D02*
X120275000Y-120000000D01*
X130200000Y-104000000D02*
X130315000Y-104000000D01*
X120028000Y-87172000D02*
X119200000Y-88000000D01*
X131315000Y-103000000D02*
X131400000Y-103000000D01*
X133000000Y-79000000D02*
X133775000Y-79000000D01*
X118200000Y-100750000D02*
X118375000Y-100575000D01*
D42*
X128887500Y-103000000D02*
X130375000Y-103000000D01*
D39*
X130425000Y-103000000D02*
X130400000Y-103025000D01*
X122250000Y-101500000D02*
X121275000Y-101500000D01*
X134000000Y-78250000D02*
X134250000Y-78250000D01*
D41*
X117725000Y-97750000D02*
X117500000Y-97525000D01*
D39*
X121275000Y-102500000D02*
X121275000Y-102475000D01*
D43*
X121250000Y-101475000D02*
X121275000Y-101500000D01*
D39*
X120192800Y-119917800D02*
X120192800Y-119329200D01*
D40*
X125207107Y-120000000D02*
X127275000Y-117932107D01*
D39*
X134000000Y-78250000D02*
X133750000Y-78250000D01*
X133400000Y-90700000D02*
X133025000Y-90700000D01*
X134000000Y-78250000D02*
X134000000Y-78628000D01*
X120028000Y-87000000D02*
X120028000Y-87172000D01*
X116500000Y-98000000D02*
X117025000Y-98000000D01*
X133025000Y-90700000D02*
X132500000Y-90175000D01*
D40*
X127275000Y-117932107D02*
X127275000Y-117137500D01*
D41*
X121250000Y-87468000D02*
X121250000Y-88325000D01*
D39*
X134000000Y-78628000D02*
X134747000Y-79375000D01*
D41*
X119325000Y-97750000D02*
X117725000Y-97750000D01*
D39*
X133500000Y-97750000D02*
X133500000Y-97686000D01*
D41*
X119325000Y-99550000D02*
X118975000Y-99900000D01*
D39*
X135000000Y-79000000D02*
X134225000Y-79000000D01*
X119675000Y-119000000D02*
X120675000Y-119000000D01*
X134000000Y-78250000D02*
X134000000Y-79225000D01*
X131400000Y-103000000D02*
X131400000Y-103500000D01*
X133775000Y-79000000D02*
X134000000Y-79225000D01*
X132975000Y-89700000D02*
X132500000Y-90175000D01*
X121275000Y-102475000D02*
X122250000Y-101500000D01*
D41*
X132425000Y-90250000D02*
X132500000Y-90175000D01*
D39*
X119200000Y-88000000D02*
X120200000Y-88000000D01*
X134000000Y-79225000D02*
X134000000Y-79360000D01*
X116500000Y-97000000D02*
X116975000Y-97000000D01*
X132825000Y-96900000D02*
X132500000Y-97225000D01*
X118200000Y-100750000D02*
X118200000Y-100675000D01*
D41*
X120782000Y-87000000D02*
X121250000Y-87468000D01*
D39*
X134125000Y-79225000D02*
X135000000Y-80100000D01*
X120675000Y-119000000D02*
X120675000Y-119600000D01*
X116500000Y-98000000D02*
X116500000Y-97000000D01*
X133500000Y-96900000D02*
X132825000Y-96900000D01*
X130900000Y-104000000D02*
X131100000Y-103800000D01*
X135000000Y-80100000D02*
X135000000Y-79000000D01*
X120275000Y-120000000D02*
X120192800Y-119917800D01*
X120028000Y-87000000D02*
X120028000Y-87828000D01*
D40*
X120275000Y-120000000D02*
X125207107Y-120000000D01*
D39*
X119675000Y-119400000D02*
X120275000Y-120000000D01*
X130200000Y-103225000D02*
X130400000Y-103025000D01*
X118200000Y-100675000D02*
X118975000Y-99900000D01*
D41*
X130675000Y-90250000D02*
X132425000Y-90250000D01*
D39*
X118200000Y-99000000D02*
X118200000Y-99125000D01*
D43*
X121250000Y-99675000D02*
X121250000Y-101475000D01*
D39*
X118375000Y-100575000D02*
X118375000Y-99175000D01*
X119675000Y-119000000D02*
X119675000Y-119400000D01*
X134250000Y-78250000D02*
X135000000Y-79000000D01*
X133400000Y-90700000D02*
X133400000Y-89700000D01*
X118375000Y-99175000D02*
X118200000Y-99000000D01*
X116500000Y-97000000D02*
X116500000Y-97069000D01*
X130200000Y-104000000D02*
X130200000Y-103225000D01*
D41*
X120028000Y-87000000D02*
X120782000Y-87000000D01*
D39*
X131100000Y-103800000D02*
X131100000Y-103725000D01*
X133400000Y-90700000D02*
X133400000Y-90601000D01*
X134000000Y-79360000D02*
X133604000Y-79756000D01*
X133400000Y-90601000D02*
X132969000Y-90170000D01*
X131400000Y-103500000D02*
X131100000Y-103800000D01*
X133025000Y-97750000D02*
X132500000Y-97225000D01*
D41*
X119325000Y-97750000D02*
X119325000Y-99550000D01*
D39*
X120028000Y-87828000D02*
X120200000Y-88000000D01*
X132631500Y-79756000D02*
X132137500Y-80250000D01*
D41*
X130675000Y-96750000D02*
X132025000Y-96750000D01*
D39*
X133750000Y-78250000D02*
X133000000Y-79000000D01*
X116500000Y-97069000D02*
X116967000Y-97536000D01*
X133500000Y-97750000D02*
X133025000Y-97750000D01*
X133604000Y-79756000D02*
X132631500Y-79756000D01*
X130315000Y-104000000D02*
X130900000Y-104000000D01*
X133500000Y-97750000D02*
X133500000Y-96900000D01*
D42*
X130375000Y-103000000D02*
X130400000Y-103025000D01*
D39*
X133500000Y-97686000D02*
X133096000Y-97282000D01*
X118200000Y-99125000D02*
X118975000Y-99900000D01*
D41*
X132025000Y-96750000D02*
X132500000Y-97225000D01*
D39*
X134225000Y-79000000D02*
X134000000Y-79225000D01*
X134000000Y-79225000D02*
X134125000Y-79225000D01*
X116975000Y-97000000D02*
X117500000Y-97525000D01*
X131100000Y-103725000D02*
X130400000Y-103025000D01*
X131400000Y-103000000D02*
X130425000Y-103000000D01*
X121275000Y-102500000D02*
X121275000Y-101500000D01*
D42*
%TO.N,VREF*%
X127325000Y-101500000D02*
X127325000Y-102987500D01*
X127325000Y-102987500D02*
X127312500Y-103000000D01*
D41*
X127250000Y-99675000D02*
X127250000Y-101425000D01*
X127250000Y-101425000D02*
X127325000Y-101500000D01*
D37*
%TO.N,HSE_IN*%
X121225000Y-106075000D02*
X121650000Y-106500000D01*
D41*
X123250000Y-99675000D02*
X123250000Y-104900000D01*
X123250000Y-104900000D02*
X121650000Y-106500000D01*
D37*
X119500000Y-106075000D02*
X121225000Y-106075000D01*
D41*
%TO.N,Net-(C12-Pad1)*%
X124250000Y-103825000D02*
X125350000Y-104925000D01*
D37*
X125775000Y-106075000D02*
X125350000Y-106500000D01*
X127400000Y-106075000D02*
X125775000Y-106075000D01*
D41*
X125350000Y-104925000D02*
X125350000Y-106500000D01*
%TO.N,VCAP*%
X130675000Y-91250000D02*
X132025000Y-91250000D01*
X132025000Y-91250000D02*
X132500000Y-91725000D01*
%TO.N,NRST*%
X125800000Y-101475000D02*
X125097000Y-101475000D01*
X124250000Y-100628000D02*
X124250000Y-99675000D01*
X125097000Y-101475000D02*
X124250000Y-100628000D01*
D39*
%TO.N,ST_X*%
X134750000Y-108250000D02*
X134000000Y-107500000D01*
D41*
X129300000Y-99200000D02*
X129225000Y-99200000D01*
D39*
X134750000Y-108275000D02*
X134750000Y-108250000D01*
D41*
X129225000Y-99200000D02*
X128750000Y-99675000D01*
D42*
X137300000Y-108750000D02*
X135225000Y-108750000D01*
X135225000Y-108750000D02*
X134750000Y-108275000D01*
D41*
%TO.N,ST_Y*%
X128250000Y-99675000D02*
X128250000Y-98650000D01*
D39*
X134775000Y-109975000D02*
X134000000Y-109200000D01*
D42*
X137300000Y-110000000D02*
X134775000Y-110000000D01*
D39*
X134775000Y-110000000D02*
X134775000Y-109975000D01*
D41*
X128250000Y-98650000D02*
X128500000Y-98400000D01*
D42*
%TO.N,TR1*%
X114775000Y-107000000D02*
X115250000Y-106525000D01*
D41*
X125750000Y-98384747D02*
X125750000Y-99675000D01*
D39*
X116000000Y-105775000D02*
X115250000Y-106525000D01*
D42*
X112700000Y-107000000D02*
X114775000Y-107000000D01*
D41*
X124165253Y-96800000D02*
X125750000Y-98384747D01*
X122400000Y-96800000D02*
X124165253Y-96800000D01*
D39*
X116000000Y-105750000D02*
X116000000Y-105775000D01*
%TO.N,TR2*%
X116000000Y-107450000D02*
X116000000Y-107475000D01*
D42*
X112700000Y-108250000D02*
X115225000Y-108250000D01*
D41*
X124258147Y-97600000D02*
X125250000Y-98591853D01*
D39*
X116000000Y-107475000D02*
X115225000Y-108250000D01*
D41*
X125250000Y-98591853D02*
X125250000Y-99675000D01*
X122800000Y-97600000D02*
X124258147Y-97600000D01*
D42*
%TO.N,TR3*%
X112700000Y-109500000D02*
X113231371Y-109500000D01*
D39*
X116000000Y-109225000D02*
X115250000Y-109975000D01*
D42*
X113706371Y-109975000D02*
X115250000Y-109975000D01*
X113231371Y-109500000D02*
X113706371Y-109975000D01*
D41*
X123200000Y-98400000D02*
X124351041Y-98400000D01*
X124750000Y-98798959D02*
X124750000Y-99675000D01*
D39*
X116000000Y-109100000D02*
X116000000Y-109225000D01*
D41*
X124351041Y-98400000D02*
X124750000Y-98798959D01*
%TO.N,USB_RAW_D+*%
X125250000Y-77045000D02*
X125250000Y-76020000D01*
D44*
X122050000Y-80862500D02*
X122369444Y-80543056D01*
X122650947Y-79869444D02*
X123043056Y-79869444D01*
X123043056Y-79869444D02*
X124267844Y-78644656D01*
X122369444Y-80150947D02*
X122650947Y-79869444D01*
X122369444Y-80543056D02*
X122369444Y-80150947D01*
D41*
X125200000Y-75970000D02*
X124250000Y-75970000D01*
X124250000Y-75970000D02*
X124250000Y-77045000D01*
D44*
X124267844Y-78150345D02*
X124250000Y-78132501D01*
D41*
X125250000Y-76020000D02*
X125200000Y-75970000D01*
D44*
X124267844Y-78644656D02*
X124267844Y-78150345D01*
X124250000Y-78132501D02*
X124250000Y-77045000D01*
%TO.N,USB_RAW_D-*%
X124750000Y-78132501D02*
X124750000Y-77045000D01*
D41*
X124750000Y-77045000D02*
X124750000Y-78070000D01*
X124750000Y-78070000D02*
X124800000Y-78120000D01*
D44*
X123950000Y-79619137D02*
X124732156Y-78836981D01*
X123950000Y-80862500D02*
X123950000Y-79619137D01*
X124732156Y-78836981D02*
X124732156Y-78150345D01*
D41*
X125750000Y-78120000D02*
X125750000Y-77045000D01*
D44*
X124732156Y-78150345D02*
X124750000Y-78132501D01*
D41*
X124800000Y-78120000D02*
X125750000Y-78120000D01*
%TO.N,USB_HPS*%
X126750000Y-75970000D02*
X126750000Y-77045000D01*
X123750000Y-75762893D02*
X124042893Y-75470000D01*
X123750000Y-77045000D02*
X123750000Y-78070000D01*
X121400000Y-83857107D02*
X121692893Y-84150000D01*
X121970000Y-79850000D02*
X121692893Y-79850000D01*
X121920000Y-84150000D02*
X122250000Y-84480000D01*
X124042893Y-75470000D02*
X126250000Y-75470000D01*
X123750000Y-78070000D02*
X121970000Y-79850000D01*
X121400000Y-80142893D02*
X121400000Y-83857107D01*
X121692893Y-84150000D02*
X121920000Y-84150000D01*
X126250000Y-75470000D02*
X126750000Y-75970000D01*
X123750000Y-77045000D02*
X123750000Y-75762893D01*
X122250000Y-84480000D02*
X122250000Y-88325000D01*
X121692893Y-79850000D02*
X121400000Y-80142893D01*
D40*
%TO.N,LED1_OUT*%
X127925000Y-122862500D02*
X127925000Y-126875000D01*
X127925000Y-126875000D02*
X127500000Y-127300000D01*
%TO.N,LED2_OUT*%
X126625000Y-126925000D02*
X126250000Y-127300000D01*
X126625000Y-122862500D02*
X126625000Y-126925000D01*
%TO.N,LED3_OUT*%
X125325000Y-122862500D02*
X125325000Y-126975000D01*
X125325000Y-126975000D02*
X125000000Y-127300000D01*
%TO.N,LED4_OUT*%
X124025000Y-127025000D02*
X123750000Y-127300000D01*
X124025000Y-122862500D02*
X124025000Y-127025000D01*
%TO.N,LED5_OUT*%
X122725000Y-122862500D02*
X122725000Y-127075000D01*
X122725000Y-127075000D02*
X122500000Y-127300000D01*
D42*
%TO.N,ST_P_IN*%
X136825000Y-111250000D02*
X134750000Y-113325000D01*
X137300000Y-111250000D02*
X136825000Y-111250000D01*
D41*
%TO.N,COL1*%
X126250000Y-84450000D02*
X125600000Y-83800000D01*
X126250000Y-88325000D02*
X126250000Y-84450000D01*
%TO.N,COL2*%
X125750000Y-88325000D02*
X125750000Y-85150000D01*
X125750000Y-85150000D02*
X125200000Y-84600000D01*
%TO.N,COL3*%
X125250000Y-88325000D02*
X125250000Y-85850000D01*
X125250000Y-85850000D02*
X124800000Y-85400000D01*
%TO.N,COL4*%
X124750000Y-86550000D02*
X124400000Y-86200000D01*
X124750000Y-88325000D02*
X124750000Y-86550000D01*
%TO.N,COL5*%
X124250000Y-87250000D02*
X124000000Y-87000000D01*
X124250000Y-88325000D02*
X124250000Y-87250000D01*
%TO.N,ROW1*%
X137239340Y-82500000D02*
X134239340Y-85500000D01*
X128077641Y-85500000D02*
X126750000Y-86827641D01*
X134239340Y-85500000D02*
X128077641Y-85500000D01*
X137300000Y-82500000D02*
X137239340Y-82500000D01*
X126750000Y-86827641D02*
X126750000Y-88325000D01*
%TO.N,ROW2*%
X127250000Y-87034747D02*
X127250000Y-88325000D01*
X137239340Y-83750000D02*
X134989340Y-86000000D01*
X134989340Y-86000000D02*
X128284747Y-86000000D01*
X137300000Y-83750000D02*
X137239340Y-83750000D01*
X128284747Y-86000000D02*
X127250000Y-87034747D01*
%TO.N,ROW3*%
X137300000Y-85000000D02*
X137239340Y-85000000D01*
X135739340Y-86500000D02*
X128491853Y-86500000D01*
X128491853Y-86500000D02*
X127750000Y-87241853D01*
X137239340Y-85000000D02*
X135739340Y-86500000D01*
X127750000Y-87241853D02*
X127750000Y-88325000D01*
%TO.N,ROW4*%
X128250000Y-88325000D02*
X128250000Y-87448959D01*
X137300000Y-86250000D02*
X137046400Y-86250000D01*
X137046400Y-86250000D02*
X136296400Y-87000000D01*
X128698959Y-87000000D02*
X136296400Y-87000000D01*
X128250000Y-87448959D02*
X128698959Y-87000000D01*
%TO.N,ROW5*%
X128750000Y-87658000D02*
X128908000Y-87500000D01*
X128908000Y-87500000D02*
X130121200Y-87500000D01*
X129575000Y-87500000D02*
X137300000Y-87500000D01*
X128750000Y-88325000D02*
X128750000Y-87658000D01*
%TO.N,MOSI_L*%
X112700000Y-94500000D02*
X112760660Y-94500000D01*
X115010660Y-92250000D02*
X119325000Y-92250000D01*
X112760660Y-94500000D02*
X115010660Y-92250000D01*
%TO.N,MISO_L*%
X114260660Y-91750000D02*
X119325000Y-91750000D01*
X112760660Y-93250000D02*
X114260660Y-91750000D01*
X112700000Y-93250000D02*
X112760660Y-93250000D01*
%TO.N,SCK_L*%
X112760660Y-92000000D02*
X113510660Y-91250000D01*
X113510660Y-91250000D02*
X119325000Y-91250000D01*
X112700000Y-92000000D02*
X112760660Y-92000000D01*
%TO.N,NSS_L*%
X112700000Y-90750000D02*
X119325000Y-90750000D01*
%TO.N,MOSI_R*%
X137239340Y-92500000D02*
X134989340Y-94750000D01*
X134989340Y-94750000D02*
X130675000Y-94750000D01*
X137300000Y-92500000D02*
X137239340Y-92500000D01*
%TO.N,MISO_R*%
X135739340Y-95250000D02*
X130675000Y-95250000D01*
X137239340Y-93750000D02*
X135739340Y-95250000D01*
X137300000Y-93750000D02*
X137239340Y-93750000D01*
%TO.N,SCK_R*%
X137300000Y-95000000D02*
X137239340Y-95000000D01*
X136489340Y-95750000D02*
X130675000Y-95750000D01*
X137239340Y-95000000D02*
X136489340Y-95750000D01*
%TO.N,NSS_R*%
X137300000Y-96250000D02*
X130675000Y-96250000D01*
%TO.N,HSE_OUT*%
X123750000Y-99675000D02*
X123750000Y-101675000D01*
X123750000Y-101675000D02*
X124250000Y-102175000D01*
D42*
%TO.N,Net-(R2-Pad1)*%
X125825000Y-109500000D02*
X125825000Y-112175000D01*
X125825000Y-112175000D02*
X125000000Y-113000000D01*
D41*
%TO.N,BOOT0*%
X119325000Y-95750000D02*
X121615013Y-95750000D01*
X121615013Y-95750000D02*
X124600000Y-92765012D01*
D39*
X123200000Y-109500000D02*
X124175000Y-109500000D01*
D41*
X124600000Y-92765012D02*
X124600000Y-91000000D01*
%TO.N,BOOT1*%
X130675000Y-92250000D02*
X129650000Y-92250000D01*
X129650000Y-92250000D02*
X129400000Y-92000000D01*
D39*
X134750000Y-89200000D02*
X134750000Y-90175000D01*
%TO.N,ST_P*%
X134750000Y-111600000D02*
X134000000Y-110850000D01*
X134750000Y-111675000D02*
X134750000Y-111600000D01*
D41*
X127750000Y-97950000D02*
X128100000Y-97600000D01*
X127750000Y-99675000D02*
X127750000Y-97950000D01*
D45*
%TO.N,USB_D-*%
X123225001Y-84211395D02*
X123225001Y-88300001D01*
X123600000Y-83487500D02*
X123600000Y-83836396D01*
X123225001Y-88300001D02*
X123250000Y-88325000D01*
X123950000Y-83137500D02*
X123600000Y-83487500D01*
X123600000Y-83836396D02*
X123225001Y-84211395D01*
%TO.N,USB_D+*%
X122050000Y-83137500D02*
X122400000Y-83487500D01*
X122774999Y-88300001D02*
X122750000Y-88325000D01*
X122400000Y-83836396D02*
X122774999Y-84211395D01*
X122400000Y-83487500D02*
X122400000Y-83836396D01*
X122774999Y-84211395D02*
X122774999Y-88300001D01*
D41*
%TO.N,LED_OE*%
X120350000Y-93250000D02*
X120600000Y-93000000D01*
D40*
X122075000Y-117137500D02*
X121300000Y-117137500D01*
D41*
X119325000Y-93250000D02*
X120350000Y-93250000D01*
%TO.N,LED1*%
X121822119Y-96250000D02*
X125400000Y-92672118D01*
D40*
X127925000Y-117137500D02*
X127925000Y-115800000D01*
D41*
X119325000Y-96250000D02*
X121822119Y-96250000D01*
X125400000Y-92672118D02*
X125400000Y-90600000D01*
%TO.N,LED2*%
X123800000Y-92857906D02*
X123800000Y-91400000D01*
D40*
X126625000Y-117137500D02*
X126625000Y-115800000D01*
D41*
X119325000Y-95250000D02*
X121407907Y-95250000D01*
X121407907Y-95250000D02*
X123800000Y-92857906D01*
%TO.N,LED3*%
X123000000Y-91800000D02*
X123000000Y-92950800D01*
X123000000Y-92950800D02*
X121200800Y-94750000D01*
D40*
X125325000Y-117137500D02*
X125325000Y-115800000D01*
D41*
X121200800Y-94750000D02*
X119325000Y-94750000D01*
%TO.N,LED4*%
X120976345Y-94250000D02*
X122200000Y-93026345D01*
X122200000Y-93026345D02*
X122200000Y-92200000D01*
X119325000Y-94250000D02*
X120976345Y-94250000D01*
D40*
X124025000Y-117137500D02*
X124025000Y-115800000D01*
D41*
%TO.N,LED5*%
X120769239Y-93750000D02*
X121400000Y-93119239D01*
X119325000Y-93750000D02*
X120769239Y-93750000D01*
X121400000Y-93119239D02*
X121400000Y-92600000D01*
D40*
X122725000Y-117137500D02*
X122725000Y-115800000D01*
%TD*%
M02*
