%TF.GenerationSoftware,KiCad,Pcbnew,(6.0.9)*%
%TF.CreationDate,2022-12-02T14:17:00-08:00*%
%TF.ProjectId,controller,636f6e74-726f-46c6-9c65-722e6b696361,1*%
%TF.SameCoordinates,Original*%
%TF.FileFunction,Soldermask,Bot*%
%TF.FilePolarity,Negative*%
%FSLAX46Y46*%
G04 Gerber Fmt 4.6, Leading zero omitted, Abs format (unit mm)*
G04 Created by KiCad (PCBNEW (6.0.9)) date 2022-12-02 14:17:00*
%MOMM*%
%LPD*%
G01*
G04 APERTURE LIST*
G04 Aperture macros list*
%AMRoundRect*
0 Rectangle with rounded corners*
0 $1 Rounding radius*
0 $2 $3 $4 $5 $6 $7 $8 $9 X,Y pos of 4 corners*
0 Add a 4 corners polygon primitive as box body*
4,1,4,$2,$3,$4,$5,$6,$7,$8,$9,$2,$3,0*
0 Add four circle primitives for the rounded corners*
1,1,$1+$1,$2,$3*
1,1,$1+$1,$4,$5*
1,1,$1+$1,$6,$7*
1,1,$1+$1,$8,$9*
0 Add four rect primitives between the rounded corners*
20,1,$1+$1,$2,$3,$4,$5,0*
20,1,$1+$1,$4,$5,$6,$7,0*
20,1,$1+$1,$6,$7,$8,$9,0*
20,1,$1+$1,$8,$9,$2,$3,0*%
G04 Aperture macros list end*
%ADD10RoundRect,0.200000X-0.450000X0.200000X-0.450000X-0.200000X0.450000X-0.200000X0.450000X0.200000X0*%
%ADD11O,1.300000X0.800000*%
%ADD12RoundRect,0.200000X0.450000X-0.200000X0.450000X0.200000X-0.450000X0.200000X-0.450000X-0.200000X0*%
%ADD13RoundRect,0.200000X0.200000X0.450000X-0.200000X0.450000X-0.200000X-0.450000X0.200000X-0.450000X0*%
%ADD14O,0.800000X1.300000*%
%ADD15C,0.650000*%
%ADD16O,1.000000X2.100000*%
%ADD17O,1.000000X1.600000*%
%ADD18C,1.200000*%
%ADD19C,1.500000*%
%ADD20C,4.400000*%
G04 APERTURE END LIST*
D10*
%TO.C,J6*%
X137300000Y-92500000D03*
D11*
X137300000Y-93750000D03*
X137300000Y-95000000D03*
X137300000Y-96250000D03*
%TD*%
D12*
%TO.C,J7*%
X112700000Y-85750000D03*
D11*
X112700000Y-84500000D03*
X112700000Y-83250000D03*
X112700000Y-82000000D03*
X112700000Y-80750000D03*
%TD*%
D13*
%TO.C,J4*%
X127500000Y-127300000D03*
D14*
X126250000Y-127300000D03*
X125000000Y-127300000D03*
X123750000Y-127300000D03*
X122500000Y-127300000D03*
%TD*%
D15*
%TO.C,J2*%
X122110000Y-75600000D03*
X127890000Y-75600000D03*
D16*
X129320000Y-76130000D03*
D17*
X120680000Y-71950000D03*
X129320000Y-71950000D03*
D16*
X120680000Y-76130000D03*
%TD*%
D18*
%TO.C,SW1*%
X127000000Y-113000000D03*
X125000000Y-113000000D03*
X123000000Y-113000000D03*
%TD*%
D19*
%TO.C,J11*%
X134450000Y-126000000D03*
X136950000Y-126000000D03*
%TD*%
D10*
%TO.C,J8*%
X137300000Y-82500000D03*
D11*
X137300000Y-83750000D03*
X137300000Y-85000000D03*
X137300000Y-86250000D03*
X137300000Y-87500000D03*
%TD*%
D19*
%TO.C,J1*%
X136950000Y-74000000D03*
X134450000Y-74000000D03*
%TD*%
D12*
%TO.C,J5*%
X112700000Y-94500000D03*
D11*
X112700000Y-93250000D03*
X112700000Y-92000000D03*
X112700000Y-90750000D03*
%TD*%
D10*
%TO.C,J10*%
X137300000Y-107500000D03*
D11*
X137300000Y-108750000D03*
X137300000Y-110000000D03*
X137300000Y-111250000D03*
X137300000Y-112500000D03*
%TD*%
D12*
%TO.C,J9*%
X112700000Y-110750000D03*
D11*
X112700000Y-109500000D03*
X112700000Y-108250000D03*
X112700000Y-107000000D03*
X112700000Y-105750000D03*
%TD*%
D20*
%TO.C,H1*%
X114000000Y-74000000D03*
%TD*%
D19*
%TO.C,J3*%
X113050000Y-126000000D03*
X115550000Y-126000000D03*
%TD*%
M02*
