%TF.GenerationSoftware,KiCad,Pcbnew,(6.0.9)*%
%TF.CreationDate,2022-12-02T14:17:00-08:00*%
%TF.ProjectId,controller,636f6e74-726f-46c6-9c65-722e6b696361,1*%
%TF.SameCoordinates,Original*%
%TF.FileFunction,Copper,L2,Inr*%
%TF.FilePolarity,Positive*%
%FSLAX46Y46*%
G04 Gerber Fmt 4.6, Leading zero omitted, Abs format (unit mm)*
G04 Created by KiCad (PCBNEW (6.0.9)) date 2022-12-02 14:17:00*
%MOMM*%
%LPD*%
G01*
G04 APERTURE LIST*
G04 Aperture macros list*
%AMRoundRect*
0 Rectangle with rounded corners*
0 $1 Rounding radius*
0 $2 $3 $4 $5 $6 $7 $8 $9 X,Y pos of 4 corners*
0 Add a 4 corners polygon primitive as box body*
4,1,4,$2,$3,$4,$5,$6,$7,$8,$9,$2,$3,0*
0 Add four circle primitives for the rounded corners*
1,1,$1+$1,$2,$3*
1,1,$1+$1,$4,$5*
1,1,$1+$1,$6,$7*
1,1,$1+$1,$8,$9*
0 Add four rect primitives between the rounded corners*
20,1,$1+$1,$2,$3,$4,$5,0*
20,1,$1+$1,$4,$5,$6,$7,0*
20,1,$1+$1,$6,$7,$8,$9,0*
20,1,$1+$1,$8,$9,$2,$3,0*%
G04 Aperture macros list end*
%TA.AperFunction,ComponentPad*%
%ADD10RoundRect,0.200000X-0.450000X0.200000X-0.450000X-0.200000X0.450000X-0.200000X0.450000X0.200000X0*%
%TD*%
%TA.AperFunction,ComponentPad*%
%ADD11O,1.300000X0.800000*%
%TD*%
%TA.AperFunction,ComponentPad*%
%ADD12RoundRect,0.200000X0.450000X-0.200000X0.450000X0.200000X-0.450000X0.200000X-0.450000X-0.200000X0*%
%TD*%
%TA.AperFunction,ComponentPad*%
%ADD13RoundRect,0.200000X0.200000X0.450000X-0.200000X0.450000X-0.200000X-0.450000X0.200000X-0.450000X0*%
%TD*%
%TA.AperFunction,ComponentPad*%
%ADD14O,0.800000X1.300000*%
%TD*%
%TA.AperFunction,ComponentPad*%
%ADD15O,1.000000X2.100000*%
%TD*%
%TA.AperFunction,ComponentPad*%
%ADD16O,1.000000X1.600000*%
%TD*%
%TA.AperFunction,ComponentPad*%
%ADD17C,1.200000*%
%TD*%
%TA.AperFunction,ComponentPad*%
%ADD18C,1.500000*%
%TD*%
%TA.AperFunction,ComponentPad*%
%ADD19C,4.400000*%
%TD*%
%TA.AperFunction,ViaPad*%
%ADD20C,0.600000*%
%TD*%
G04 APERTURE END LIST*
D10*
%TO.N,MOSI_R*%
%TO.C,J6*%
X137300000Y-92500000D03*
D11*
%TO.N,MISO_R*%
X137300000Y-93750000D03*
%TO.N,SCK_R*%
X137300000Y-95000000D03*
%TO.N,NSS_R*%
X137300000Y-96250000D03*
%TD*%
D12*
%TO.N,COL5*%
%TO.C,J7*%
X112700000Y-85750000D03*
D11*
%TO.N,COL4*%
X112700000Y-84500000D03*
%TO.N,COL3*%
X112700000Y-83250000D03*
%TO.N,COL2*%
X112700000Y-82000000D03*
%TO.N,COL1*%
X112700000Y-80750000D03*
%TD*%
D13*
%TO.N,LED1_OUT*%
%TO.C,J4*%
X127500000Y-127300000D03*
D14*
%TO.N,LED2_OUT*%
X126250000Y-127300000D03*
%TO.N,LED3_OUT*%
X125000000Y-127300000D03*
%TO.N,LED4_OUT*%
X123750000Y-127300000D03*
%TO.N,LED5_OUT*%
X122500000Y-127300000D03*
%TD*%
D15*
%TO.N,GND*%
%TO.C,J2*%
X129320000Y-76130000D03*
D16*
X120680000Y-71950000D03*
X129320000Y-71950000D03*
D15*
X120680000Y-76130000D03*
%TD*%
D17*
%TO.N,GND*%
%TO.C,SW1*%
X127000000Y-113000000D03*
%TO.N,Net-(R2-Pad1)*%
X125000000Y-113000000D03*
%TO.N,3V3*%
X123000000Y-113000000D03*
%TD*%
D18*
%TO.N,5V*%
%TO.C,J11*%
X134450000Y-126000000D03*
%TO.N,GND*%
X136950000Y-126000000D03*
%TD*%
D10*
%TO.N,ROW1*%
%TO.C,J8*%
X137300000Y-82500000D03*
D11*
%TO.N,ROW2*%
X137300000Y-83750000D03*
%TO.N,ROW3*%
X137300000Y-85000000D03*
%TO.N,ROW4*%
X137300000Y-86250000D03*
%TO.N,ROW5*%
X137300000Y-87500000D03*
%TD*%
D18*
%TO.N,GND*%
%TO.C,J1*%
X136950000Y-74000000D03*
%TO.N,5V*%
X134450000Y-74000000D03*
%TD*%
D12*
%TO.N,MOSI_L*%
%TO.C,J5*%
X112700000Y-94500000D03*
D11*
%TO.N,MISO_L*%
X112700000Y-93250000D03*
%TO.N,SCK_L*%
X112700000Y-92000000D03*
%TO.N,NSS_L*%
X112700000Y-90750000D03*
%TD*%
D10*
%TO.N,3V3*%
%TO.C,J10*%
X137300000Y-107500000D03*
D11*
%TO.N,ST_X*%
X137300000Y-108750000D03*
%TO.N,ST_Y*%
X137300000Y-110000000D03*
%TO.N,ST_P_IN*%
X137300000Y-111250000D03*
%TO.N,GND*%
X137300000Y-112500000D03*
%TD*%
D12*
%TO.N,GND*%
%TO.C,J9*%
X112700000Y-110750000D03*
D11*
%TO.N,TR3*%
X112700000Y-109500000D03*
%TO.N,TR2*%
X112700000Y-108250000D03*
%TO.N,TR1*%
X112700000Y-107000000D03*
%TO.N,3V3*%
X112700000Y-105750000D03*
%TD*%
D19*
%TO.N,N/C*%
%TO.C,H1*%
X114000000Y-74000000D03*
%TD*%
D18*
%TO.N,5V*%
%TO.C,J3*%
X113050000Y-126000000D03*
%TO.N,GND*%
X115550000Y-126000000D03*
%TD*%
D20*
%TO.N,5V*%
X127450000Y-78250000D03*
X122550000Y-78250000D03*
%TO.N,GND*%
X131500000Y-83000000D03*
X130400000Y-100500000D03*
X129500000Y-100500000D03*
X118675000Y-119000000D03*
X134750000Y-105750000D03*
X121513600Y-89611200D03*
X115250000Y-104000000D03*
X132250000Y-110750000D03*
X132750000Y-83000000D03*
X121250000Y-78250000D03*
X129400000Y-90500000D03*
X125800000Y-104000000D03*
X128500000Y-104525000D03*
X133500000Y-88625000D03*
X127000000Y-98400000D03*
X133500000Y-93275000D03*
X122500000Y-82000000D03*
X131325000Y-121000000D03*
X134000000Y-81750000D03*
X117750000Y-108250000D03*
X121300000Y-122862500D03*
X118200000Y-88000000D03*
X119700000Y-102500000D03*
X133500000Y-98775000D03*
X128750000Y-78250000D03*
X119500000Y-103500000D03*
X115250000Y-112500000D03*
X116400000Y-99900000D03*
X129400000Y-97000000D03*
X116500000Y-95900000D03*
X134750000Y-92750000D03*
X128400000Y-82750000D03*
X120600000Y-97500000D03*
%TO.N,3V3*%
X116500000Y-97000000D03*
X133000000Y-79000000D03*
X120200000Y-88000000D03*
X120675000Y-119000000D03*
X133500000Y-96900000D03*
X121275000Y-102500000D03*
X134000000Y-78250000D03*
X122250000Y-101500000D03*
X119200000Y-88000000D03*
X131400000Y-103000000D03*
X118200000Y-99000000D03*
X135000000Y-80100000D03*
X135000000Y-79000000D03*
X133400000Y-89700000D03*
X133500000Y-97750000D03*
X118200000Y-100750000D03*
X133400000Y-90700000D03*
X130200000Y-104000000D03*
X131100000Y-103800000D03*
X119675000Y-119000000D03*
X116500000Y-98000000D03*
%TO.N,ST_X*%
X129300000Y-99200000D03*
X134000000Y-107500000D03*
%TO.N,ST_Y*%
X134000000Y-109200000D03*
X128500000Y-98400000D03*
%TO.N,TR1*%
X122400000Y-96800000D03*
X116000000Y-105750000D03*
%TO.N,TR2*%
X122800000Y-97600000D03*
X116000000Y-107450000D03*
%TO.N,TR3*%
X123200000Y-98400000D03*
X116000000Y-109100000D03*
%TO.N,COL1*%
X125600000Y-83800000D03*
%TO.N,COL2*%
X125200000Y-84600000D03*
%TO.N,COL3*%
X124800000Y-85400000D03*
%TO.N,COL4*%
X124400000Y-86200000D03*
%TO.N,COL5*%
X124000000Y-87000000D03*
%TO.N,BOOT0*%
X124600000Y-91000000D03*
X123200000Y-109500000D03*
%TO.N,BOOT1*%
X134750000Y-89200000D03*
X129400000Y-92000000D03*
%TO.N,ST_P*%
X128100000Y-97600000D03*
X134000000Y-110850000D03*
%TO.N,LED_OE*%
X121300000Y-117137500D03*
X120600000Y-93000000D03*
%TO.N,LED1*%
X125400000Y-90600000D03*
X127925000Y-115800000D03*
%TO.N,LED2*%
X126625000Y-115800000D03*
X123800000Y-91400000D03*
%TO.N,LED3*%
X123000000Y-91800000D03*
X125325000Y-115800000D03*
%TO.N,LED4*%
X122200000Y-92200000D03*
X124025000Y-115800000D03*
%TO.N,LED5*%
X121400000Y-92600000D03*
X122725000Y-115800000D03*
%TD*%
%TA.AperFunction,Conductor*%
%TO.N,GND*%
G36*
X120242822Y-70528502D02*
G01*
X120289315Y-70582158D01*
X120299419Y-70652432D01*
X120269925Y-70717012D01*
X120233076Y-70746162D01*
X120130846Y-70799607D01*
X120120585Y-70806321D01*
X119976127Y-70922468D01*
X119967368Y-70931046D01*
X119848222Y-71073039D01*
X119841292Y-71083159D01*
X119751998Y-71245585D01*
X119747166Y-71256858D01*
X119691120Y-71433538D01*
X119688570Y-71445532D01*
X119672393Y-71589761D01*
X119672000Y-71596785D01*
X119672000Y-71677885D01*
X119676475Y-71693124D01*
X119677865Y-71694329D01*
X119685548Y-71696000D01*
X121669885Y-71696000D01*
X121685124Y-71691525D01*
X121686329Y-71690135D01*
X121688000Y-71682452D01*
X121688000Y-71603343D01*
X121687699Y-71597195D01*
X121674188Y-71459397D01*
X121671805Y-71447362D01*
X121618233Y-71269924D01*
X121613559Y-71258584D01*
X121526540Y-71094923D01*
X121519751Y-71084706D01*
X121402603Y-70941067D01*
X121393959Y-70932363D01*
X121251144Y-70814216D01*
X121240973Y-70807356D01*
X121126270Y-70745336D01*
X121075861Y-70695341D01*
X121060484Y-70626030D01*
X121085020Y-70559408D01*
X121141680Y-70516627D01*
X121186199Y-70508500D01*
X128814701Y-70508500D01*
X128882822Y-70528502D01*
X128929315Y-70582158D01*
X128939419Y-70652432D01*
X128909925Y-70717012D01*
X128873076Y-70746162D01*
X128770846Y-70799607D01*
X128760585Y-70806321D01*
X128616127Y-70922468D01*
X128607368Y-70931046D01*
X128488222Y-71073039D01*
X128481292Y-71083159D01*
X128391998Y-71245585D01*
X128387166Y-71256858D01*
X128331120Y-71433538D01*
X128328570Y-71445532D01*
X128312393Y-71589761D01*
X128312000Y-71596785D01*
X128312000Y-71677885D01*
X128316475Y-71693124D01*
X128317865Y-71694329D01*
X128325548Y-71696000D01*
X130309885Y-71696000D01*
X130325124Y-71691525D01*
X130326329Y-71690135D01*
X130328000Y-71682452D01*
X130328000Y-71603343D01*
X130327699Y-71597195D01*
X130314188Y-71459397D01*
X130311805Y-71447362D01*
X130258233Y-71269924D01*
X130253559Y-71258584D01*
X130166540Y-71094923D01*
X130159751Y-71084706D01*
X130042603Y-70941067D01*
X130033959Y-70932363D01*
X129891144Y-70814216D01*
X129880973Y-70807356D01*
X129766270Y-70745336D01*
X129715861Y-70695341D01*
X129700484Y-70626030D01*
X129725020Y-70559408D01*
X129781680Y-70516627D01*
X129826199Y-70508500D01*
X132442286Y-70508500D01*
X132510407Y-70528502D01*
X132556900Y-70582158D01*
X132567004Y-70652432D01*
X132537510Y-70717012D01*
X132485897Y-70752712D01*
X132370734Y-70795198D01*
X132195649Y-70899363D01*
X132042478Y-71033690D01*
X132038911Y-71038215D01*
X132038906Y-71038220D01*
X131952331Y-71148040D01*
X131916351Y-71193681D01*
X131913662Y-71198792D01*
X131913660Y-71198795D01*
X131867471Y-71286586D01*
X131821492Y-71373978D01*
X131761078Y-71568543D01*
X131737132Y-71770859D01*
X131739042Y-71800000D01*
X131750457Y-71974151D01*
X131800605Y-72171610D01*
X131885898Y-72356624D01*
X132003479Y-72522997D01*
X132149410Y-72665157D01*
X132154206Y-72668362D01*
X132154209Y-72668364D01*
X132227684Y-72717458D01*
X132318803Y-72778342D01*
X132324106Y-72780620D01*
X132324109Y-72780622D01*
X132413115Y-72818862D01*
X132505987Y-72858763D01*
X132578817Y-72875243D01*
X132699055Y-72902450D01*
X132699060Y-72902451D01*
X132704692Y-72903725D01*
X132710463Y-72903952D01*
X132710465Y-72903952D01*
X132773470Y-72906427D01*
X132908263Y-72911723D01*
X133109883Y-72882490D01*
X133115347Y-72880635D01*
X133115352Y-72880634D01*
X133297327Y-72818862D01*
X133297332Y-72818860D01*
X133302799Y-72817004D01*
X133480551Y-72717458D01*
X133637186Y-72587186D01*
X133767458Y-72430551D01*
X133867004Y-72252799D01*
X133868860Y-72247332D01*
X133868862Y-72247327D01*
X133930634Y-72065352D01*
X133930635Y-72065347D01*
X133932490Y-72059883D01*
X133961723Y-71858263D01*
X133963249Y-71800000D01*
X133945232Y-71603914D01*
X133945137Y-71602880D01*
X133945136Y-71602877D01*
X133944608Y-71597126D01*
X133942531Y-71589761D01*
X133890875Y-71406606D01*
X133890874Y-71406604D01*
X133889307Y-71401047D01*
X133878680Y-71379496D01*
X133801756Y-71223510D01*
X133799201Y-71218329D01*
X133780796Y-71193681D01*
X133680758Y-71059715D01*
X133680758Y-71059714D01*
X133677305Y-71055091D01*
X133544539Y-70932363D01*
X133531943Y-70920719D01*
X133531940Y-70920717D01*
X133527703Y-70916800D01*
X133481675Y-70887759D01*
X133360288Y-70811169D01*
X133360283Y-70811167D01*
X133355404Y-70808088D01*
X133318087Y-70793200D01*
X133213641Y-70751530D01*
X133157781Y-70707709D01*
X133134481Y-70640645D01*
X133151137Y-70571630D01*
X133202461Y-70522575D01*
X133260331Y-70508500D01*
X139365500Y-70508500D01*
X139433621Y-70528502D01*
X139480114Y-70582158D01*
X139491500Y-70634500D01*
X139491500Y-127272591D01*
X139471498Y-127340712D01*
X139417842Y-127387205D01*
X139347568Y-127397309D01*
X139279971Y-127365116D01*
X139231943Y-127320719D01*
X139231940Y-127320717D01*
X139227703Y-127316800D01*
X139157636Y-127272591D01*
X139060288Y-127211169D01*
X139060283Y-127211167D01*
X139055404Y-127208088D01*
X138866180Y-127132595D01*
X138684122Y-127096381D01*
X138672032Y-127093976D01*
X138672031Y-127093976D01*
X138666366Y-127092849D01*
X138660592Y-127092773D01*
X138660588Y-127092773D01*
X138557452Y-127091424D01*
X138462655Y-127090183D01*
X138456958Y-127091162D01*
X138456957Y-127091162D01*
X138267567Y-127123705D01*
X138261870Y-127124684D01*
X138070734Y-127195198D01*
X138065773Y-127198150D01*
X138065772Y-127198150D01*
X137940649Y-127272591D01*
X137895649Y-127299363D01*
X137742478Y-127433690D01*
X137738911Y-127438215D01*
X137738906Y-127438220D01*
X137652331Y-127548040D01*
X137616351Y-127593681D01*
X137521492Y-127773978D01*
X137461078Y-127968543D01*
X137437132Y-128170859D01*
X137439042Y-128200000D01*
X137450457Y-128374151D01*
X137500605Y-128571610D01*
X137585898Y-128756624D01*
X137703479Y-128922997D01*
X137707613Y-128927024D01*
X137813984Y-129030646D01*
X137849410Y-129065157D01*
X137854206Y-129068362D01*
X137854209Y-129068364D01*
X137992264Y-129160609D01*
X138018803Y-129178342D01*
X138024106Y-129180620D01*
X138024109Y-129180622D01*
X138184967Y-129249732D01*
X138239660Y-129295000D01*
X138261197Y-129362652D01*
X138242740Y-129431207D01*
X138190149Y-129478901D01*
X138135229Y-129491500D01*
X117557329Y-129491500D01*
X117489208Y-129471498D01*
X117442715Y-129417842D01*
X117432611Y-129347568D01*
X117462105Y-129282988D01*
X117516828Y-129246187D01*
X117597327Y-129218862D01*
X117597332Y-129218860D01*
X117602799Y-129217004D01*
X117780551Y-129117458D01*
X117937186Y-128987186D01*
X118067458Y-128830551D01*
X118167004Y-128652799D01*
X118168860Y-128647332D01*
X118168862Y-128647327D01*
X118230634Y-128465352D01*
X118230635Y-128465347D01*
X118232490Y-128459883D01*
X118261723Y-128258263D01*
X118263249Y-128200000D01*
X118244608Y-127997126D01*
X118221522Y-127915271D01*
X118190875Y-127806606D01*
X118190874Y-127806604D01*
X118189307Y-127801047D01*
X118178680Y-127779496D01*
X118101756Y-127623510D01*
X118099201Y-127618329D01*
X118083730Y-127597610D01*
X121591500Y-127597610D01*
X121606458Y-127739928D01*
X121665473Y-127921556D01*
X121760960Y-128086944D01*
X121765378Y-128091851D01*
X121765379Y-128091852D01*
X121859429Y-128196305D01*
X121888747Y-128228866D01*
X121934265Y-128261937D01*
X122008093Y-128315576D01*
X122043248Y-128341118D01*
X122049276Y-128343802D01*
X122049278Y-128343803D01*
X122181663Y-128402744D01*
X122217712Y-128418794D01*
X122311113Y-128438647D01*
X122398056Y-128457128D01*
X122398061Y-128457128D01*
X122404513Y-128458500D01*
X122595487Y-128458500D01*
X122601939Y-128457128D01*
X122601944Y-128457128D01*
X122688887Y-128438647D01*
X122782288Y-128418794D01*
X122818337Y-128402744D01*
X122950722Y-128343803D01*
X122950724Y-128343802D01*
X122956752Y-128341118D01*
X122991908Y-128315576D01*
X123050939Y-128272687D01*
X123117807Y-128248828D01*
X123186958Y-128264909D01*
X123199061Y-128272687D01*
X123258093Y-128315576D01*
X123293248Y-128341118D01*
X123299276Y-128343802D01*
X123299278Y-128343803D01*
X123431663Y-128402744D01*
X123467712Y-128418794D01*
X123561113Y-128438647D01*
X123648056Y-128457128D01*
X123648061Y-128457128D01*
X123654513Y-128458500D01*
X123845487Y-128458500D01*
X123851939Y-128457128D01*
X123851944Y-128457128D01*
X123938887Y-128438647D01*
X124032288Y-128418794D01*
X124068337Y-128402744D01*
X124200722Y-128343803D01*
X124200724Y-128343802D01*
X124206752Y-128341118D01*
X124241908Y-128315576D01*
X124300939Y-128272687D01*
X124367807Y-128248828D01*
X124436958Y-128264909D01*
X124449061Y-128272687D01*
X124508093Y-128315576D01*
X124543248Y-128341118D01*
X124549276Y-128343802D01*
X124549278Y-128343803D01*
X124681663Y-128402744D01*
X124717712Y-128418794D01*
X124811113Y-128438647D01*
X124898056Y-128457128D01*
X124898061Y-128457128D01*
X124904513Y-128458500D01*
X125095487Y-128458500D01*
X125101939Y-128457128D01*
X125101944Y-128457128D01*
X125188887Y-128438647D01*
X125282288Y-128418794D01*
X125318337Y-128402744D01*
X125450722Y-128343803D01*
X125450724Y-128343802D01*
X125456752Y-128341118D01*
X125491908Y-128315576D01*
X125550939Y-128272687D01*
X125617807Y-128248828D01*
X125686958Y-128264909D01*
X125699061Y-128272687D01*
X125758093Y-128315576D01*
X125793248Y-128341118D01*
X125799276Y-128343802D01*
X125799278Y-128343803D01*
X125931663Y-128402744D01*
X125967712Y-128418794D01*
X126061113Y-128438647D01*
X126148056Y-128457128D01*
X126148061Y-128457128D01*
X126154513Y-128458500D01*
X126345487Y-128458500D01*
X126351939Y-128457128D01*
X126351944Y-128457128D01*
X126438887Y-128438647D01*
X126532288Y-128418794D01*
X126568337Y-128402744D01*
X126700722Y-128343803D01*
X126700724Y-128343802D01*
X126706752Y-128341118D01*
X126730650Y-128323755D01*
X126797518Y-128299897D01*
X126869982Y-128317915D01*
X127006301Y-128400472D01*
X127013548Y-128402743D01*
X127013550Y-128402744D01*
X127056198Y-128416109D01*
X127169938Y-128451753D01*
X127243365Y-128458500D01*
X127246263Y-128458500D01*
X127500665Y-128458499D01*
X127756634Y-128458499D01*
X127759492Y-128458236D01*
X127759501Y-128458236D01*
X127795004Y-128454974D01*
X127830062Y-128451753D01*
X127943802Y-128416109D01*
X127986450Y-128402744D01*
X127986452Y-128402743D01*
X127993699Y-128400472D01*
X128140381Y-128311639D01*
X128261639Y-128190381D01*
X128350472Y-128043699D01*
X128401753Y-127880062D01*
X128408500Y-127806635D01*
X128408499Y-126793366D01*
X128401753Y-126719938D01*
X128388753Y-126678455D01*
X128352744Y-126563550D01*
X128352743Y-126563548D01*
X128350472Y-126556301D01*
X128261639Y-126409619D01*
X128140381Y-126288361D01*
X127993699Y-126199528D01*
X127986452Y-126197257D01*
X127986450Y-126197256D01*
X127920164Y-126176483D01*
X127830062Y-126148247D01*
X127756635Y-126141500D01*
X127753737Y-126141500D01*
X127499335Y-126141501D01*
X127243366Y-126141501D01*
X127240508Y-126141764D01*
X127240499Y-126141764D01*
X127204996Y-126145026D01*
X127169938Y-126148247D01*
X127163560Y-126150246D01*
X127163559Y-126150246D01*
X127013550Y-126197256D01*
X127013548Y-126197257D01*
X127006301Y-126199528D01*
X126964768Y-126224681D01*
X126869982Y-126282085D01*
X126801352Y-126300264D01*
X126730650Y-126276245D01*
X126712094Y-126262763D01*
X126712092Y-126262762D01*
X126706752Y-126258882D01*
X126700724Y-126256198D01*
X126700722Y-126256197D01*
X126538319Y-126183891D01*
X126538318Y-126183891D01*
X126532288Y-126181206D01*
X126438887Y-126161353D01*
X126351944Y-126142872D01*
X126351939Y-126142872D01*
X126345487Y-126141500D01*
X126154513Y-126141500D01*
X126148061Y-126142872D01*
X126148056Y-126142872D01*
X126061113Y-126161353D01*
X125967712Y-126181206D01*
X125961682Y-126183891D01*
X125961681Y-126183891D01*
X125799278Y-126256197D01*
X125799276Y-126256198D01*
X125793248Y-126258882D01*
X125787907Y-126262762D01*
X125787906Y-126262763D01*
X125699061Y-126327313D01*
X125632193Y-126351172D01*
X125563042Y-126335091D01*
X125550939Y-126327313D01*
X125462094Y-126262763D01*
X125462093Y-126262762D01*
X125456752Y-126258882D01*
X125450724Y-126256198D01*
X125450722Y-126256197D01*
X125288319Y-126183891D01*
X125288318Y-126183891D01*
X125282288Y-126181206D01*
X125188887Y-126161353D01*
X125101944Y-126142872D01*
X125101939Y-126142872D01*
X125095487Y-126141500D01*
X124904513Y-126141500D01*
X124898061Y-126142872D01*
X124898056Y-126142872D01*
X124811113Y-126161353D01*
X124717712Y-126181206D01*
X124711682Y-126183891D01*
X124711681Y-126183891D01*
X124549278Y-126256197D01*
X124549276Y-126256198D01*
X124543248Y-126258882D01*
X124537907Y-126262762D01*
X124537906Y-126262763D01*
X124449061Y-126327313D01*
X124382193Y-126351172D01*
X124313042Y-126335091D01*
X124300939Y-126327313D01*
X124212094Y-126262763D01*
X124212093Y-126262762D01*
X124206752Y-126258882D01*
X124200724Y-126256198D01*
X124200722Y-126256197D01*
X124038319Y-126183891D01*
X124038318Y-126183891D01*
X124032288Y-126181206D01*
X123938887Y-126161353D01*
X123851944Y-126142872D01*
X123851939Y-126142872D01*
X123845487Y-126141500D01*
X123654513Y-126141500D01*
X123648061Y-126142872D01*
X123648056Y-126142872D01*
X123561113Y-126161353D01*
X123467712Y-126181206D01*
X123461682Y-126183891D01*
X123461681Y-126183891D01*
X123299278Y-126256197D01*
X123299276Y-126256198D01*
X123293248Y-126258882D01*
X123287907Y-126262762D01*
X123287906Y-126262763D01*
X123199061Y-126327313D01*
X123132193Y-126351172D01*
X123063042Y-126335091D01*
X123050939Y-126327313D01*
X122962094Y-126262763D01*
X122962093Y-126262762D01*
X122956752Y-126258882D01*
X122950724Y-126256198D01*
X122950722Y-126256197D01*
X122788319Y-126183891D01*
X122788318Y-126183891D01*
X122782288Y-126181206D01*
X122688887Y-126161353D01*
X122601944Y-126142872D01*
X122601939Y-126142872D01*
X122595487Y-126141500D01*
X122404513Y-126141500D01*
X122398061Y-126142872D01*
X122398056Y-126142872D01*
X122311113Y-126161353D01*
X122217712Y-126181206D01*
X122211682Y-126183891D01*
X122211681Y-126183891D01*
X122049278Y-126256197D01*
X122049276Y-126256198D01*
X122043248Y-126258882D01*
X122037907Y-126262762D01*
X122037906Y-126262763D01*
X122002674Y-126288361D01*
X121888747Y-126371134D01*
X121884326Y-126376044D01*
X121884325Y-126376045D01*
X121782327Y-126489326D01*
X121760960Y-126513056D01*
X121665473Y-126678444D01*
X121606458Y-126860072D01*
X121591500Y-127002390D01*
X121591500Y-127597610D01*
X118083730Y-127597610D01*
X118080796Y-127593681D01*
X117980758Y-127459715D01*
X117980758Y-127459714D01*
X117977305Y-127455091D01*
X117827703Y-127316800D01*
X117757636Y-127272591D01*
X117660288Y-127211169D01*
X117660283Y-127211167D01*
X117655404Y-127208088D01*
X117466180Y-127132595D01*
X117284122Y-127096381D01*
X117272032Y-127093976D01*
X117272031Y-127093976D01*
X117266366Y-127092849D01*
X117260592Y-127092773D01*
X117260588Y-127092773D01*
X117157452Y-127091424D01*
X117062655Y-127090183D01*
X117056958Y-127091162D01*
X117056957Y-127091162D01*
X116867567Y-127123705D01*
X116861870Y-127124684D01*
X116670734Y-127195198D01*
X116665773Y-127198150D01*
X116665772Y-127198150D01*
X116540649Y-127272591D01*
X116495649Y-127299363D01*
X116342478Y-127433690D01*
X116338911Y-127438215D01*
X116338906Y-127438220D01*
X116252331Y-127548040D01*
X116216351Y-127593681D01*
X116121492Y-127773978D01*
X116061078Y-127968543D01*
X116037132Y-128170859D01*
X116039042Y-128200000D01*
X116050457Y-128374151D01*
X116100605Y-128571610D01*
X116185898Y-128756624D01*
X116303479Y-128922997D01*
X116307613Y-128927024D01*
X116413984Y-129030646D01*
X116449410Y-129065157D01*
X116454206Y-129068362D01*
X116454209Y-129068364D01*
X116592264Y-129160609D01*
X116618803Y-129178342D01*
X116624106Y-129180620D01*
X116624109Y-129180622D01*
X116784967Y-129249732D01*
X116839660Y-129295000D01*
X116861197Y-129362652D01*
X116842740Y-129431207D01*
X116790149Y-129478901D01*
X116735229Y-129491500D01*
X110634500Y-129491500D01*
X110566379Y-129471498D01*
X110519886Y-129417842D01*
X110508500Y-129365500D01*
X110508500Y-126000000D01*
X111786693Y-126000000D01*
X111805885Y-126219371D01*
X111862880Y-126432076D01*
X111903308Y-126518774D01*
X111953618Y-126626666D01*
X111953621Y-126626671D01*
X111955944Y-126631653D01*
X111959100Y-126636160D01*
X111959101Y-126636162D01*
X112069177Y-126793366D01*
X112082251Y-126812038D01*
X112237962Y-126967749D01*
X112418346Y-127094056D01*
X112617924Y-127187120D01*
X112830629Y-127244115D01*
X113050000Y-127263307D01*
X113269371Y-127244115D01*
X113482076Y-127187120D01*
X113681654Y-127094056D01*
X113744342Y-127050161D01*
X114864393Y-127050161D01*
X114873687Y-127062175D01*
X114914088Y-127090464D01*
X114923584Y-127095947D01*
X115113113Y-127184326D01*
X115123405Y-127188072D01*
X115325401Y-127242196D01*
X115336196Y-127244099D01*
X115544525Y-127262326D01*
X115555475Y-127262326D01*
X115763804Y-127244099D01*
X115774599Y-127242196D01*
X115976595Y-127188072D01*
X115986887Y-127184326D01*
X116176416Y-127095947D01*
X116185912Y-127090464D01*
X116227148Y-127061590D01*
X116235523Y-127051112D01*
X116228457Y-127037668D01*
X115562811Y-126372021D01*
X115548868Y-126364408D01*
X115547034Y-126364539D01*
X115540420Y-126368790D01*
X114870820Y-127038391D01*
X114864393Y-127050161D01*
X113744342Y-127050161D01*
X113862038Y-126967749D01*
X114017749Y-126812038D01*
X114030824Y-126793366D01*
X114140899Y-126636162D01*
X114140900Y-126636160D01*
X114144056Y-126631653D01*
X114146379Y-126626671D01*
X114146382Y-126626666D01*
X114186081Y-126541530D01*
X114232998Y-126488245D01*
X114301276Y-126468784D01*
X114369235Y-126489326D01*
X114414471Y-126541530D01*
X114454054Y-126626417D01*
X114459534Y-126635907D01*
X114488411Y-126677149D01*
X114498887Y-126685523D01*
X114512334Y-126678455D01*
X115177979Y-126012811D01*
X115184356Y-126001132D01*
X115914408Y-126001132D01*
X115914539Y-126002966D01*
X115918790Y-126009580D01*
X116588391Y-126679180D01*
X116600161Y-126685607D01*
X116612176Y-126676311D01*
X116640466Y-126635907D01*
X116645946Y-126626417D01*
X116734326Y-126436887D01*
X116738072Y-126426595D01*
X116792196Y-126224599D01*
X116794099Y-126213804D01*
X116812326Y-126005475D01*
X116812326Y-126000000D01*
X133186693Y-126000000D01*
X133205885Y-126219371D01*
X133262880Y-126432076D01*
X133303308Y-126518774D01*
X133353618Y-126626666D01*
X133353621Y-126626671D01*
X133355944Y-126631653D01*
X133359100Y-126636160D01*
X133359101Y-126636162D01*
X133469177Y-126793366D01*
X133482251Y-126812038D01*
X133637962Y-126967749D01*
X133818346Y-127094056D01*
X134017924Y-127187120D01*
X134230629Y-127244115D01*
X134450000Y-127263307D01*
X134669371Y-127244115D01*
X134882076Y-127187120D01*
X135081654Y-127094056D01*
X135144342Y-127050161D01*
X136264393Y-127050161D01*
X136273687Y-127062175D01*
X136314088Y-127090464D01*
X136323584Y-127095947D01*
X136513113Y-127184326D01*
X136523405Y-127188072D01*
X136725401Y-127242196D01*
X136736196Y-127244099D01*
X136944525Y-127262326D01*
X136955475Y-127262326D01*
X137163804Y-127244099D01*
X137174599Y-127242196D01*
X137376595Y-127188072D01*
X137386887Y-127184326D01*
X137576416Y-127095947D01*
X137585912Y-127090464D01*
X137627148Y-127061590D01*
X137635523Y-127051112D01*
X137628457Y-127037668D01*
X136962811Y-126372021D01*
X136948868Y-126364408D01*
X136947034Y-126364539D01*
X136940420Y-126368790D01*
X136270820Y-127038391D01*
X136264393Y-127050161D01*
X135144342Y-127050161D01*
X135262038Y-126967749D01*
X135417749Y-126812038D01*
X135430824Y-126793366D01*
X135540899Y-126636162D01*
X135540900Y-126636160D01*
X135544056Y-126631653D01*
X135546379Y-126626671D01*
X135546382Y-126626666D01*
X135586081Y-126541530D01*
X135632998Y-126488245D01*
X135701276Y-126468784D01*
X135769235Y-126489326D01*
X135814471Y-126541530D01*
X135854054Y-126626417D01*
X135859534Y-126635907D01*
X135888411Y-126677149D01*
X135898887Y-126685523D01*
X135912334Y-126678455D01*
X136577979Y-126012811D01*
X136584356Y-126001132D01*
X137314408Y-126001132D01*
X137314539Y-126002966D01*
X137318790Y-126009580D01*
X137988391Y-126679180D01*
X138000161Y-126685607D01*
X138012176Y-126676311D01*
X138040466Y-126635907D01*
X138045946Y-126626417D01*
X138134326Y-126436887D01*
X138138072Y-126426595D01*
X138192196Y-126224599D01*
X138194099Y-126213804D01*
X138212326Y-126005475D01*
X138212326Y-125994525D01*
X138194099Y-125786196D01*
X138192196Y-125775401D01*
X138138072Y-125573405D01*
X138134326Y-125563113D01*
X138045946Y-125373583D01*
X138040466Y-125364093D01*
X138011589Y-125322851D01*
X138001113Y-125314477D01*
X137987666Y-125321545D01*
X137322021Y-125987189D01*
X137314408Y-126001132D01*
X136584356Y-126001132D01*
X136585592Y-125998868D01*
X136585461Y-125997034D01*
X136581210Y-125990420D01*
X135911609Y-125320820D01*
X135899839Y-125314393D01*
X135887824Y-125323689D01*
X135859534Y-125364093D01*
X135854054Y-125373583D01*
X135814471Y-125458470D01*
X135767554Y-125511755D01*
X135699276Y-125531216D01*
X135631316Y-125510674D01*
X135586081Y-125458470D01*
X135546382Y-125373334D01*
X135546379Y-125373329D01*
X135544056Y-125368347D01*
X135512786Y-125323689D01*
X135420908Y-125192473D01*
X135420906Y-125192470D01*
X135417749Y-125187962D01*
X135262038Y-125032251D01*
X135142983Y-124948887D01*
X136264477Y-124948887D01*
X136271545Y-124962334D01*
X136937189Y-125627979D01*
X136951132Y-125635592D01*
X136952966Y-125635461D01*
X136959580Y-125631210D01*
X137629180Y-124961609D01*
X137635607Y-124949839D01*
X137626313Y-124937825D01*
X137585912Y-124909536D01*
X137576416Y-124904053D01*
X137386887Y-124815674D01*
X137376595Y-124811928D01*
X137174599Y-124757804D01*
X137163804Y-124755901D01*
X136955475Y-124737674D01*
X136944525Y-124737674D01*
X136736196Y-124755901D01*
X136725401Y-124757804D01*
X136523405Y-124811928D01*
X136513113Y-124815674D01*
X136323583Y-124904054D01*
X136314093Y-124909534D01*
X136272851Y-124938411D01*
X136264477Y-124948887D01*
X135142983Y-124948887D01*
X135081654Y-124905944D01*
X134882076Y-124812880D01*
X134669371Y-124755885D01*
X134450000Y-124736693D01*
X134230629Y-124755885D01*
X134017924Y-124812880D01*
X133924562Y-124856415D01*
X133823334Y-124903618D01*
X133823329Y-124903621D01*
X133818347Y-124905944D01*
X133813840Y-124909100D01*
X133813838Y-124909101D01*
X133642473Y-125029092D01*
X133642470Y-125029094D01*
X133637962Y-125032251D01*
X133482251Y-125187962D01*
X133479094Y-125192470D01*
X133479092Y-125192473D01*
X133387214Y-125323689D01*
X133355944Y-125368347D01*
X133353621Y-125373329D01*
X133353618Y-125373334D01*
X133353502Y-125373583D01*
X133262880Y-125567924D01*
X133205885Y-125780629D01*
X133186693Y-126000000D01*
X116812326Y-126000000D01*
X116812326Y-125994525D01*
X116794099Y-125786196D01*
X116792196Y-125775401D01*
X116738072Y-125573405D01*
X116734326Y-125563113D01*
X116645946Y-125373583D01*
X116640466Y-125364093D01*
X116611589Y-125322851D01*
X116601113Y-125314477D01*
X116587666Y-125321545D01*
X115922021Y-125987189D01*
X115914408Y-126001132D01*
X115184356Y-126001132D01*
X115185592Y-125998868D01*
X115185461Y-125997034D01*
X115181210Y-125990420D01*
X114511609Y-125320820D01*
X114499839Y-125314393D01*
X114487824Y-125323689D01*
X114459534Y-125364093D01*
X114454054Y-125373583D01*
X114414471Y-125458470D01*
X114367554Y-125511755D01*
X114299276Y-125531216D01*
X114231316Y-125510674D01*
X114186081Y-125458470D01*
X114146382Y-125373334D01*
X114146379Y-125373329D01*
X114144056Y-125368347D01*
X114112786Y-125323689D01*
X114020908Y-125192473D01*
X114020906Y-125192470D01*
X114017749Y-125187962D01*
X113862038Y-125032251D01*
X113742983Y-124948887D01*
X114864477Y-124948887D01*
X114871545Y-124962334D01*
X115537189Y-125627979D01*
X115551132Y-125635592D01*
X115552966Y-125635461D01*
X115559580Y-125631210D01*
X116229180Y-124961609D01*
X116235607Y-124949839D01*
X116226313Y-124937825D01*
X116185912Y-124909536D01*
X116176416Y-124904053D01*
X115986887Y-124815674D01*
X115976595Y-124811928D01*
X115774599Y-124757804D01*
X115763804Y-124755901D01*
X115555475Y-124737674D01*
X115544525Y-124737674D01*
X115336196Y-124755901D01*
X115325401Y-124757804D01*
X115123405Y-124811928D01*
X115113113Y-124815674D01*
X114923583Y-124904054D01*
X114914093Y-124909534D01*
X114872851Y-124938411D01*
X114864477Y-124948887D01*
X113742983Y-124948887D01*
X113681654Y-124905944D01*
X113482076Y-124812880D01*
X113269371Y-124755885D01*
X113050000Y-124736693D01*
X112830629Y-124755885D01*
X112617924Y-124812880D01*
X112524562Y-124856415D01*
X112423334Y-124903618D01*
X112423329Y-124903621D01*
X112418347Y-124905944D01*
X112413840Y-124909100D01*
X112413838Y-124909101D01*
X112242473Y-125029092D01*
X112242470Y-125029094D01*
X112237962Y-125032251D01*
X112082251Y-125187962D01*
X112079094Y-125192470D01*
X112079092Y-125192473D01*
X111987214Y-125323689D01*
X111955944Y-125368347D01*
X111953621Y-125373329D01*
X111953618Y-125373334D01*
X111953502Y-125373583D01*
X111862880Y-125567924D01*
X111805885Y-125780629D01*
X111786693Y-126000000D01*
X110508500Y-126000000D01*
X110508500Y-118988640D01*
X118861463Y-118988640D01*
X118879163Y-119169160D01*
X118936418Y-119341273D01*
X118940065Y-119347295D01*
X118940066Y-119347297D01*
X118950978Y-119365314D01*
X119030380Y-119496424D01*
X119156382Y-119626902D01*
X119308159Y-119726222D01*
X119314763Y-119728678D01*
X119314765Y-119728679D01*
X119471558Y-119786990D01*
X119471560Y-119786990D01*
X119478168Y-119789448D01*
X119561995Y-119800633D01*
X119650980Y-119812507D01*
X119650984Y-119812507D01*
X119657961Y-119813438D01*
X119664972Y-119812800D01*
X119664976Y-119812800D01*
X119807459Y-119799832D01*
X119838600Y-119796998D01*
X119845302Y-119794820D01*
X119845304Y-119794820D01*
X120004409Y-119743124D01*
X120004412Y-119743123D01*
X120011108Y-119740947D01*
X120110701Y-119681577D01*
X120179454Y-119663878D01*
X120244211Y-119684375D01*
X120308159Y-119726222D01*
X120314763Y-119728678D01*
X120314765Y-119728679D01*
X120471558Y-119786990D01*
X120471560Y-119786990D01*
X120478168Y-119789448D01*
X120561995Y-119800633D01*
X120650980Y-119812507D01*
X120650984Y-119812507D01*
X120657961Y-119813438D01*
X120664972Y-119812800D01*
X120664976Y-119812800D01*
X120807459Y-119799832D01*
X120838600Y-119796998D01*
X120845302Y-119794820D01*
X120845304Y-119794820D01*
X121004409Y-119743124D01*
X121004412Y-119743123D01*
X121011108Y-119740947D01*
X121166912Y-119648069D01*
X121298266Y-119522982D01*
X121398643Y-119371902D01*
X121463055Y-119202338D01*
X121464035Y-119195366D01*
X121487748Y-119026639D01*
X121487748Y-119026636D01*
X121488299Y-119022717D01*
X121488616Y-119000000D01*
X121468397Y-118819745D01*
X121466080Y-118813091D01*
X121411064Y-118655106D01*
X121411062Y-118655103D01*
X121408745Y-118648448D01*
X121312626Y-118494624D01*
X121298941Y-118480843D01*
X121189778Y-118370915D01*
X121189774Y-118370912D01*
X121184815Y-118365918D01*
X121173935Y-118359013D01*
X121125538Y-118328300D01*
X121031666Y-118268727D01*
X121002463Y-118258328D01*
X120867425Y-118210243D01*
X120867420Y-118210242D01*
X120860790Y-118207881D01*
X120853802Y-118207048D01*
X120853799Y-118207047D01*
X120730698Y-118192368D01*
X120680680Y-118186404D01*
X120673677Y-118187140D01*
X120673676Y-118187140D01*
X120507288Y-118204628D01*
X120507286Y-118204629D01*
X120500288Y-118205364D01*
X120328579Y-118263818D01*
X120240946Y-118317731D01*
X120172447Y-118336388D01*
X120107412Y-118316797D01*
X120037620Y-118272505D01*
X120037616Y-118272503D01*
X120031666Y-118268727D01*
X120002463Y-118258328D01*
X119867425Y-118210243D01*
X119867420Y-118210242D01*
X119860790Y-118207881D01*
X119853802Y-118207048D01*
X119853799Y-118207047D01*
X119730698Y-118192368D01*
X119680680Y-118186404D01*
X119673677Y-118187140D01*
X119673676Y-118187140D01*
X119507288Y-118204628D01*
X119507286Y-118204629D01*
X119500288Y-118205364D01*
X119328579Y-118263818D01*
X119322575Y-118267512D01*
X119180095Y-118355166D01*
X119180092Y-118355168D01*
X119174088Y-118358862D01*
X119169053Y-118363793D01*
X119169050Y-118363795D01*
X119049525Y-118480843D01*
X119044493Y-118485771D01*
X118946235Y-118638238D01*
X118943826Y-118644858D01*
X118943824Y-118644861D01*
X118886606Y-118802066D01*
X118884197Y-118808685D01*
X118861463Y-118988640D01*
X110508500Y-118988640D01*
X110508500Y-117126140D01*
X120486463Y-117126140D01*
X120504163Y-117306660D01*
X120561418Y-117478773D01*
X120565065Y-117484795D01*
X120565066Y-117484797D01*
X120575978Y-117502814D01*
X120655380Y-117633924D01*
X120781382Y-117764402D01*
X120933159Y-117863722D01*
X120939763Y-117866178D01*
X120939765Y-117866179D01*
X121096558Y-117924490D01*
X121096560Y-117924490D01*
X121103168Y-117926948D01*
X121186995Y-117938133D01*
X121275980Y-117950007D01*
X121275984Y-117950007D01*
X121282961Y-117950938D01*
X121289972Y-117950300D01*
X121289976Y-117950300D01*
X121432459Y-117937332D01*
X121463600Y-117934498D01*
X121470302Y-117932320D01*
X121470304Y-117932320D01*
X121629409Y-117880624D01*
X121629412Y-117880623D01*
X121636108Y-117878447D01*
X121791912Y-117785569D01*
X121923266Y-117660482D01*
X122023643Y-117509402D01*
X122088055Y-117339838D01*
X122089035Y-117332866D01*
X122112748Y-117164139D01*
X122112748Y-117164136D01*
X122113299Y-117160217D01*
X122113616Y-117137500D01*
X122093397Y-116957245D01*
X122091080Y-116950591D01*
X122036064Y-116792606D01*
X122036062Y-116792603D01*
X122033745Y-116785948D01*
X121937626Y-116632124D01*
X121919070Y-116613438D01*
X121814778Y-116508415D01*
X121814774Y-116508412D01*
X121809815Y-116503418D01*
X121798697Y-116496362D01*
X121728284Y-116451677D01*
X121656666Y-116406227D01*
X121627463Y-116395828D01*
X121492425Y-116347743D01*
X121492420Y-116347742D01*
X121485790Y-116345381D01*
X121478802Y-116344548D01*
X121478799Y-116344547D01*
X121338696Y-116327841D01*
X121305680Y-116323904D01*
X121298677Y-116324640D01*
X121298676Y-116324640D01*
X121132288Y-116342128D01*
X121132286Y-116342129D01*
X121125288Y-116342864D01*
X120953579Y-116401318D01*
X120947575Y-116405012D01*
X120805095Y-116492666D01*
X120805092Y-116492668D01*
X120799088Y-116496362D01*
X120794053Y-116501293D01*
X120794050Y-116501295D01*
X120679534Y-116613438D01*
X120669493Y-116623271D01*
X120571235Y-116775738D01*
X120568826Y-116782358D01*
X120568824Y-116782361D01*
X120511606Y-116939566D01*
X120509197Y-116946185D01*
X120486463Y-117126140D01*
X110508500Y-117126140D01*
X110508500Y-115788640D01*
X121911463Y-115788640D01*
X121929163Y-115969160D01*
X121986418Y-116141273D01*
X121990065Y-116147295D01*
X121990066Y-116147297D01*
X122000978Y-116165314D01*
X122080380Y-116296424D01*
X122085269Y-116301487D01*
X122085270Y-116301488D01*
X122130305Y-116348123D01*
X122206382Y-116426902D01*
X122212278Y-116430760D01*
X122320067Y-116501295D01*
X122358159Y-116526222D01*
X122364763Y-116528678D01*
X122364765Y-116528679D01*
X122521558Y-116586990D01*
X122521560Y-116586990D01*
X122528168Y-116589448D01*
X122611995Y-116600633D01*
X122700980Y-116612507D01*
X122700984Y-116612507D01*
X122707961Y-116613438D01*
X122714972Y-116612800D01*
X122714976Y-116612800D01*
X122857459Y-116599832D01*
X122888600Y-116596998D01*
X122895302Y-116594820D01*
X122895304Y-116594820D01*
X123054409Y-116543124D01*
X123054412Y-116543123D01*
X123061108Y-116540947D01*
X123216912Y-116448069D01*
X123222011Y-116443213D01*
X123222018Y-116443208D01*
X123287745Y-116380616D01*
X123350869Y-116348123D01*
X123421540Y-116354916D01*
X123465273Y-116384333D01*
X123481676Y-116401318D01*
X123506382Y-116426902D01*
X123512278Y-116430760D01*
X123620067Y-116501295D01*
X123658159Y-116526222D01*
X123664763Y-116528678D01*
X123664765Y-116528679D01*
X123821558Y-116586990D01*
X123821560Y-116586990D01*
X123828168Y-116589448D01*
X123911995Y-116600633D01*
X124000980Y-116612507D01*
X124000984Y-116612507D01*
X124007961Y-116613438D01*
X124014972Y-116612800D01*
X124014976Y-116612800D01*
X124157459Y-116599832D01*
X124188600Y-116596998D01*
X124195302Y-116594820D01*
X124195304Y-116594820D01*
X124354409Y-116543124D01*
X124354412Y-116543123D01*
X124361108Y-116540947D01*
X124516912Y-116448069D01*
X124522011Y-116443213D01*
X124522018Y-116443208D01*
X124587745Y-116380616D01*
X124650869Y-116348123D01*
X124721540Y-116354916D01*
X124765273Y-116384333D01*
X124781676Y-116401318D01*
X124806382Y-116426902D01*
X124812278Y-116430760D01*
X124920067Y-116501295D01*
X124958159Y-116526222D01*
X124964763Y-116528678D01*
X124964765Y-116528679D01*
X125121558Y-116586990D01*
X125121560Y-116586990D01*
X125128168Y-116589448D01*
X125211995Y-116600633D01*
X125300980Y-116612507D01*
X125300984Y-116612507D01*
X125307961Y-116613438D01*
X125314972Y-116612800D01*
X125314976Y-116612800D01*
X125457459Y-116599832D01*
X125488600Y-116596998D01*
X125495302Y-116594820D01*
X125495304Y-116594820D01*
X125654409Y-116543124D01*
X125654412Y-116543123D01*
X125661108Y-116540947D01*
X125816912Y-116448069D01*
X125822011Y-116443213D01*
X125822018Y-116443208D01*
X125887745Y-116380616D01*
X125950869Y-116348123D01*
X126021540Y-116354916D01*
X126065273Y-116384333D01*
X126081676Y-116401318D01*
X126106382Y-116426902D01*
X126112278Y-116430760D01*
X126220067Y-116501295D01*
X126258159Y-116526222D01*
X126264763Y-116528678D01*
X126264765Y-116528679D01*
X126421558Y-116586990D01*
X126421560Y-116586990D01*
X126428168Y-116589448D01*
X126511995Y-116600633D01*
X126600980Y-116612507D01*
X126600984Y-116612507D01*
X126607961Y-116613438D01*
X126614972Y-116612800D01*
X126614976Y-116612800D01*
X126757459Y-116599832D01*
X126788600Y-116596998D01*
X126795302Y-116594820D01*
X126795304Y-116594820D01*
X126954409Y-116543124D01*
X126954412Y-116543123D01*
X126961108Y-116540947D01*
X127116912Y-116448069D01*
X127122011Y-116443213D01*
X127122018Y-116443208D01*
X127187745Y-116380616D01*
X127250869Y-116348123D01*
X127321540Y-116354916D01*
X127365273Y-116384333D01*
X127381676Y-116401318D01*
X127406382Y-116426902D01*
X127412278Y-116430760D01*
X127520067Y-116501295D01*
X127558159Y-116526222D01*
X127564763Y-116528678D01*
X127564765Y-116528679D01*
X127721558Y-116586990D01*
X127721560Y-116586990D01*
X127728168Y-116589448D01*
X127811995Y-116600633D01*
X127900980Y-116612507D01*
X127900984Y-116612507D01*
X127907961Y-116613438D01*
X127914972Y-116612800D01*
X127914976Y-116612800D01*
X128057459Y-116599832D01*
X128088600Y-116596998D01*
X128095302Y-116594820D01*
X128095304Y-116594820D01*
X128254409Y-116543124D01*
X128254412Y-116543123D01*
X128261108Y-116540947D01*
X128416912Y-116448069D01*
X128548266Y-116322982D01*
X128648643Y-116171902D01*
X128713055Y-116002338D01*
X128714035Y-115995366D01*
X128737748Y-115826639D01*
X128737748Y-115826636D01*
X128738299Y-115822717D01*
X128738616Y-115800000D01*
X128718397Y-115619745D01*
X128716080Y-115613091D01*
X128661064Y-115455106D01*
X128661062Y-115455103D01*
X128658745Y-115448448D01*
X128562626Y-115294624D01*
X128520083Y-115251783D01*
X128439778Y-115170915D01*
X128439774Y-115170912D01*
X128434815Y-115165918D01*
X128423697Y-115158862D01*
X128375538Y-115128300D01*
X128281666Y-115068727D01*
X128252463Y-115058328D01*
X128117425Y-115010243D01*
X128117420Y-115010242D01*
X128110790Y-115007881D01*
X128103802Y-115007048D01*
X128103799Y-115007047D01*
X127980698Y-114992368D01*
X127930680Y-114986404D01*
X127923677Y-114987140D01*
X127923676Y-114987140D01*
X127757288Y-115004628D01*
X127757286Y-115004629D01*
X127750288Y-115005364D01*
X127578579Y-115063818D01*
X127572575Y-115067512D01*
X127430095Y-115155166D01*
X127430092Y-115155168D01*
X127424088Y-115158862D01*
X127419053Y-115163793D01*
X127419050Y-115163795D01*
X127363278Y-115218412D01*
X127300613Y-115251783D01*
X127229854Y-115245977D01*
X127185715Y-115217173D01*
X127139783Y-115170919D01*
X127139774Y-115170912D01*
X127134815Y-115165918D01*
X127123697Y-115158862D01*
X127075538Y-115128300D01*
X126981666Y-115068727D01*
X126952463Y-115058328D01*
X126817425Y-115010243D01*
X126817420Y-115010242D01*
X126810790Y-115007881D01*
X126803802Y-115007048D01*
X126803799Y-115007047D01*
X126680698Y-114992368D01*
X126630680Y-114986404D01*
X126623677Y-114987140D01*
X126623676Y-114987140D01*
X126457288Y-115004628D01*
X126457286Y-115004629D01*
X126450288Y-115005364D01*
X126278579Y-115063818D01*
X126272575Y-115067512D01*
X126130095Y-115155166D01*
X126130092Y-115155168D01*
X126124088Y-115158862D01*
X126119053Y-115163793D01*
X126119050Y-115163795D01*
X126063278Y-115218412D01*
X126000613Y-115251783D01*
X125929854Y-115245977D01*
X125885715Y-115217173D01*
X125839783Y-115170919D01*
X125839774Y-115170912D01*
X125834815Y-115165918D01*
X125823697Y-115158862D01*
X125775538Y-115128300D01*
X125681666Y-115068727D01*
X125652463Y-115058328D01*
X125517425Y-115010243D01*
X125517420Y-115010242D01*
X125510790Y-115007881D01*
X125503802Y-115007048D01*
X125503799Y-115007047D01*
X125380698Y-114992368D01*
X125330680Y-114986404D01*
X125323677Y-114987140D01*
X125323676Y-114987140D01*
X125157288Y-115004628D01*
X125157286Y-115004629D01*
X125150288Y-115005364D01*
X124978579Y-115063818D01*
X124972575Y-115067512D01*
X124830095Y-115155166D01*
X124830092Y-115155168D01*
X124824088Y-115158862D01*
X124819053Y-115163793D01*
X124819050Y-115163795D01*
X124763278Y-115218412D01*
X124700613Y-115251783D01*
X124629854Y-115245977D01*
X124585715Y-115217173D01*
X124539783Y-115170919D01*
X124539774Y-115170912D01*
X124534815Y-115165918D01*
X124523697Y-115158862D01*
X124475538Y-115128300D01*
X124381666Y-115068727D01*
X124352463Y-115058328D01*
X124217425Y-115010243D01*
X124217420Y-115010242D01*
X124210790Y-115007881D01*
X124203802Y-115007048D01*
X124203799Y-115007047D01*
X124080698Y-114992368D01*
X124030680Y-114986404D01*
X124023677Y-114987140D01*
X124023676Y-114987140D01*
X123857288Y-115004628D01*
X123857286Y-115004629D01*
X123850288Y-115005364D01*
X123678579Y-115063818D01*
X123672575Y-115067512D01*
X123530095Y-115155166D01*
X123530092Y-115155168D01*
X123524088Y-115158862D01*
X123519053Y-115163793D01*
X123519050Y-115163795D01*
X123463278Y-115218412D01*
X123400613Y-115251783D01*
X123329854Y-115245977D01*
X123285715Y-115217173D01*
X123239783Y-115170919D01*
X123239774Y-115170912D01*
X123234815Y-115165918D01*
X123223697Y-115158862D01*
X123175538Y-115128300D01*
X123081666Y-115068727D01*
X123052463Y-115058328D01*
X122917425Y-115010243D01*
X122917420Y-115010242D01*
X122910790Y-115007881D01*
X122903802Y-115007048D01*
X122903799Y-115007047D01*
X122780698Y-114992368D01*
X122730680Y-114986404D01*
X122723677Y-114987140D01*
X122723676Y-114987140D01*
X122557288Y-115004628D01*
X122557286Y-115004629D01*
X122550288Y-115005364D01*
X122378579Y-115063818D01*
X122372575Y-115067512D01*
X122230095Y-115155166D01*
X122230092Y-115155168D01*
X122224088Y-115158862D01*
X122219053Y-115163793D01*
X122219050Y-115163795D01*
X122135129Y-115245977D01*
X122094493Y-115285771D01*
X121996235Y-115438238D01*
X121993826Y-115444858D01*
X121993824Y-115444861D01*
X121936606Y-115602066D01*
X121934197Y-115608685D01*
X121911463Y-115788640D01*
X110508500Y-115788640D01*
X110508500Y-112970859D01*
X121887132Y-112970859D01*
X121900457Y-113174151D01*
X121950605Y-113371610D01*
X122035898Y-113556624D01*
X122153479Y-113722997D01*
X122299410Y-113865157D01*
X122304206Y-113868362D01*
X122304209Y-113868364D01*
X122429227Y-113951898D01*
X122468803Y-113978342D01*
X122474106Y-113980620D01*
X122474109Y-113980622D01*
X122650680Y-114056483D01*
X122655987Y-114058763D01*
X122728817Y-114075243D01*
X122849055Y-114102450D01*
X122849060Y-114102451D01*
X122854692Y-114103725D01*
X122860463Y-114103952D01*
X122860465Y-114103952D01*
X122923470Y-114106427D01*
X123058263Y-114111723D01*
X123259883Y-114082490D01*
X123265347Y-114080635D01*
X123265352Y-114080634D01*
X123447327Y-114018862D01*
X123447332Y-114018860D01*
X123452799Y-114017004D01*
X123458653Y-114013726D01*
X123569054Y-113951898D01*
X123630551Y-113917458D01*
X123787186Y-113787186D01*
X123904733Y-113645851D01*
X123963670Y-113606267D01*
X124034652Y-113604831D01*
X124095143Y-113641998D01*
X124104503Y-113653699D01*
X124150145Y-113718280D01*
X124153479Y-113722997D01*
X124299410Y-113865157D01*
X124304206Y-113868362D01*
X124304209Y-113868364D01*
X124429227Y-113951898D01*
X124468803Y-113978342D01*
X124474106Y-113980620D01*
X124474109Y-113980622D01*
X124650680Y-114056483D01*
X124655987Y-114058763D01*
X124728817Y-114075243D01*
X124849055Y-114102450D01*
X124849060Y-114102451D01*
X124854692Y-114103725D01*
X124860463Y-114103952D01*
X124860465Y-114103952D01*
X124923470Y-114106427D01*
X125058263Y-114111723D01*
X125259883Y-114082490D01*
X125265347Y-114080635D01*
X125265352Y-114080634D01*
X125447327Y-114018862D01*
X125447332Y-114018860D01*
X125452799Y-114017004D01*
X125458653Y-114013726D01*
X125569054Y-113951898D01*
X125587989Y-113941294D01*
X126423066Y-113941294D01*
X126432948Y-113953783D01*
X126464239Y-113974691D01*
X126474349Y-113980181D01*
X126650835Y-114056005D01*
X126661778Y-114059560D01*
X126849120Y-114101952D01*
X126860530Y-114103454D01*
X127052469Y-114110995D01*
X127063951Y-114110393D01*
X127254045Y-114082832D01*
X127265240Y-114080144D01*
X127447131Y-114018400D01*
X127457628Y-114013726D01*
X127568032Y-113951898D01*
X127577895Y-113941821D01*
X127574940Y-113934151D01*
X127012811Y-113372021D01*
X126998868Y-113364408D01*
X126997034Y-113364539D01*
X126990420Y-113368790D01*
X126429259Y-113929952D01*
X126423066Y-113941294D01*
X125587989Y-113941294D01*
X125630551Y-113917458D01*
X125787186Y-113787186D01*
X125837222Y-113727024D01*
X125913763Y-113634994D01*
X125913764Y-113634993D01*
X125917458Y-113630551D01*
X125917745Y-113630039D01*
X125971506Y-113586292D01*
X126032704Y-113577084D01*
X126054321Y-113579226D01*
X126069676Y-113571113D01*
X126627979Y-113012811D01*
X126634356Y-113001132D01*
X127364408Y-113001132D01*
X127364539Y-113002966D01*
X127368790Y-113009580D01*
X127930239Y-113571028D01*
X127942614Y-113577785D01*
X127949194Y-113572859D01*
X128013726Y-113457628D01*
X128018400Y-113447131D01*
X128080144Y-113265240D01*
X128082832Y-113254045D01*
X128110689Y-113061911D01*
X128111319Y-113054528D01*
X128112650Y-113003704D01*
X128112407Y-112996305D01*
X128094643Y-112802975D01*
X128092545Y-112791654D01*
X128086006Y-112768468D01*
X136178778Y-112768468D01*
X136180310Y-112775675D01*
X136184367Y-112788161D01*
X136256632Y-112950471D01*
X136263198Y-112961843D01*
X136367624Y-113105574D01*
X136376415Y-113115337D01*
X136508442Y-113234214D01*
X136519073Y-113241938D01*
X136672926Y-113330765D01*
X136684934Y-113336111D01*
X136853898Y-113391011D01*
X136866739Y-113393741D01*
X136999138Y-113407656D01*
X137005698Y-113408000D01*
X137027885Y-113408000D01*
X137043124Y-113403525D01*
X137044329Y-113402135D01*
X137046000Y-113394452D01*
X137046000Y-113389885D01*
X137554000Y-113389885D01*
X137558475Y-113405124D01*
X137559865Y-113406329D01*
X137567548Y-113408000D01*
X137594302Y-113408000D01*
X137600862Y-113407656D01*
X137733261Y-113393741D01*
X137746102Y-113391011D01*
X137915066Y-113336111D01*
X137927074Y-113330765D01*
X138080927Y-113241938D01*
X138091558Y-113234214D01*
X138223585Y-113115337D01*
X138232376Y-113105574D01*
X138336802Y-112961843D01*
X138343368Y-112950471D01*
X138415633Y-112788161D01*
X138419690Y-112775675D01*
X138420530Y-112771722D01*
X138419457Y-112757659D01*
X138409503Y-112754000D01*
X137572115Y-112754000D01*
X137556876Y-112758475D01*
X137555671Y-112759865D01*
X137554000Y-112767548D01*
X137554000Y-113389885D01*
X137046000Y-113389885D01*
X137046000Y-112772115D01*
X137041525Y-112756876D01*
X137040135Y-112755671D01*
X137032452Y-112754000D01*
X136193818Y-112754000D01*
X136180287Y-112757973D01*
X136178778Y-112768468D01*
X128086006Y-112768468D01*
X128040408Y-112606791D01*
X128036283Y-112596044D01*
X127952163Y-112425465D01*
X127944869Y-112419990D01*
X127932449Y-112426762D01*
X127372021Y-112987189D01*
X127364408Y-113001132D01*
X126634356Y-113001132D01*
X126635592Y-112998868D01*
X126635461Y-112997034D01*
X126631210Y-112990420D01*
X126068538Y-112427749D01*
X126054601Y-112420139D01*
X126024552Y-112422288D01*
X125955178Y-112407197D01*
X125914604Y-112371998D01*
X125830758Y-112259715D01*
X125830758Y-112259714D01*
X125827305Y-112255091D01*
X125722814Y-112158500D01*
X125681943Y-112120719D01*
X125681940Y-112120717D01*
X125677703Y-112116800D01*
X125585580Y-112058675D01*
X126422788Y-112058675D01*
X126426275Y-112067064D01*
X126987189Y-112627979D01*
X127001132Y-112635592D01*
X127002966Y-112635461D01*
X127009580Y-112631210D01*
X127570285Y-112070504D01*
X127577042Y-112058129D01*
X127571012Y-112050073D01*
X127510061Y-112011616D01*
X127499813Y-112006395D01*
X127321401Y-111935216D01*
X127310373Y-111931949D01*
X127121982Y-111894476D01*
X127110535Y-111893273D01*
X126918477Y-111890759D01*
X126906997Y-111891662D01*
X126717697Y-111924190D01*
X126706577Y-111927170D01*
X126526365Y-111993653D01*
X126515991Y-111998601D01*
X126432385Y-112048342D01*
X126422788Y-112058675D01*
X125585580Y-112058675D01*
X125571947Y-112050073D01*
X125510288Y-112011169D01*
X125510283Y-112011167D01*
X125505404Y-112008088D01*
X125316180Y-111932595D01*
X125141663Y-111897881D01*
X125122032Y-111893976D01*
X125122031Y-111893976D01*
X125116366Y-111892849D01*
X125110592Y-111892773D01*
X125110588Y-111892773D01*
X125007452Y-111891424D01*
X124912655Y-111890183D01*
X124906958Y-111891162D01*
X124906957Y-111891162D01*
X124887671Y-111894476D01*
X124711870Y-111924684D01*
X124520734Y-111995198D01*
X124515773Y-111998150D01*
X124515772Y-111998150D01*
X124399939Y-112067064D01*
X124345649Y-112099363D01*
X124192478Y-112233690D01*
X124098395Y-112353034D01*
X124040515Y-112394146D01*
X123969595Y-112397440D01*
X123908152Y-112361869D01*
X123898488Y-112350416D01*
X123830758Y-112259715D01*
X123830758Y-112259714D01*
X123827305Y-112255091D01*
X123722814Y-112158500D01*
X123681943Y-112120719D01*
X123681940Y-112120717D01*
X123677703Y-112116800D01*
X123571947Y-112050073D01*
X123510288Y-112011169D01*
X123510283Y-112011167D01*
X123505404Y-112008088D01*
X123316180Y-111932595D01*
X123141663Y-111897881D01*
X123122032Y-111893976D01*
X123122031Y-111893976D01*
X123116366Y-111892849D01*
X123110592Y-111892773D01*
X123110588Y-111892773D01*
X123007452Y-111891424D01*
X122912655Y-111890183D01*
X122906958Y-111891162D01*
X122906957Y-111891162D01*
X122887671Y-111894476D01*
X122711870Y-111924684D01*
X122520734Y-111995198D01*
X122515773Y-111998150D01*
X122515772Y-111998150D01*
X122399939Y-112067064D01*
X122345649Y-112099363D01*
X122192478Y-112233690D01*
X122188911Y-112238215D01*
X122188906Y-112238220D01*
X122102331Y-112348040D01*
X122066351Y-112393681D01*
X122063662Y-112398792D01*
X122063660Y-112398795D01*
X122048946Y-112426762D01*
X121971492Y-112573978D01*
X121911078Y-112768543D01*
X121887132Y-112970859D01*
X110508500Y-112970859D01*
X110508500Y-111014294D01*
X111542709Y-111014294D01*
X111548132Y-111073315D01*
X111550743Y-111086351D01*
X111597715Y-111236243D01*
X111603921Y-111249988D01*
X111684824Y-111383574D01*
X111694131Y-111395443D01*
X111804557Y-111505869D01*
X111816426Y-111515176D01*
X111950012Y-111596079D01*
X111963757Y-111602285D01*
X112113644Y-111649256D01*
X112126694Y-111651869D01*
X112190521Y-111657734D01*
X112196309Y-111658000D01*
X112427885Y-111658000D01*
X112443124Y-111653525D01*
X112444329Y-111652135D01*
X112446000Y-111644452D01*
X112446000Y-111639884D01*
X112954000Y-111639884D01*
X112958475Y-111655123D01*
X112959865Y-111656328D01*
X112967548Y-111657999D01*
X113203705Y-111657999D01*
X113209454Y-111657736D01*
X113273315Y-111651868D01*
X113286351Y-111649257D01*
X113436243Y-111602285D01*
X113449988Y-111596079D01*
X113583574Y-111515176D01*
X113595443Y-111505869D01*
X113705869Y-111395443D01*
X113715176Y-111383574D01*
X113796079Y-111249988D01*
X113802285Y-111236243D01*
X113849256Y-111086356D01*
X113851869Y-111073306D01*
X113856913Y-111018414D01*
X113853525Y-111006876D01*
X113852135Y-111005671D01*
X113844452Y-111004000D01*
X112972115Y-111004000D01*
X112956876Y-111008475D01*
X112955671Y-111009865D01*
X112954000Y-111017548D01*
X112954000Y-111639884D01*
X112446000Y-111639884D01*
X112446000Y-111022115D01*
X112441525Y-111006876D01*
X112440135Y-111005671D01*
X112432452Y-111004000D01*
X111560116Y-111004000D01*
X111544877Y-111008475D01*
X111543672Y-111009865D01*
X111542709Y-111014294D01*
X110508500Y-111014294D01*
X110508500Y-110838640D01*
X133186463Y-110838640D01*
X133204163Y-111019160D01*
X133261418Y-111191273D01*
X133265065Y-111197295D01*
X133265066Y-111197297D01*
X133350814Y-111338884D01*
X133355380Y-111346424D01*
X133360269Y-111351487D01*
X133360270Y-111351488D01*
X133402717Y-111395443D01*
X133481382Y-111476902D01*
X133633159Y-111576222D01*
X133639763Y-111578678D01*
X133639765Y-111578679D01*
X133796558Y-111636990D01*
X133796560Y-111636990D01*
X133803168Y-111639448D01*
X133876674Y-111649256D01*
X133975980Y-111662507D01*
X133975984Y-111662507D01*
X133982961Y-111663438D01*
X133989972Y-111662800D01*
X133989976Y-111662800D01*
X134132459Y-111649832D01*
X134163600Y-111646998D01*
X134170302Y-111644820D01*
X134170304Y-111644820D01*
X134329409Y-111593124D01*
X134329412Y-111593123D01*
X134336108Y-111590947D01*
X134463215Y-111515176D01*
X134485860Y-111501677D01*
X134485862Y-111501676D01*
X134491912Y-111498069D01*
X134623266Y-111372982D01*
X134641534Y-111345487D01*
X136141500Y-111345487D01*
X136142872Y-111351939D01*
X136142872Y-111351944D01*
X136161353Y-111438888D01*
X136181206Y-111532288D01*
X136183891Y-111538318D01*
X136183891Y-111538319D01*
X136234447Y-111651869D01*
X136258882Y-111706752D01*
X136327623Y-111801366D01*
X136351480Y-111868230D01*
X136335400Y-111937382D01*
X136327622Y-111949485D01*
X136263198Y-112038157D01*
X136256632Y-112049529D01*
X136184367Y-112211839D01*
X136180310Y-112224325D01*
X136179470Y-112228278D01*
X136180543Y-112242341D01*
X136190497Y-112246000D01*
X138406182Y-112246000D01*
X138419713Y-112242027D01*
X138421222Y-112231532D01*
X138419690Y-112224325D01*
X138415633Y-112211839D01*
X138343368Y-112049529D01*
X138336802Y-112038157D01*
X138272378Y-111949485D01*
X138248519Y-111882617D01*
X138264600Y-111813466D01*
X138272366Y-111801380D01*
X138341118Y-111706752D01*
X138365554Y-111651869D01*
X138416109Y-111538319D01*
X138416109Y-111538318D01*
X138418794Y-111532288D01*
X138438647Y-111438887D01*
X138457128Y-111351944D01*
X138457128Y-111351939D01*
X138458500Y-111345487D01*
X138458500Y-111154513D01*
X138418794Y-110967712D01*
X138374737Y-110868757D01*
X138343803Y-110799278D01*
X138343802Y-110799276D01*
X138341118Y-110793248D01*
X138272687Y-110699061D01*
X138248828Y-110632193D01*
X138264909Y-110563042D01*
X138272687Y-110550939D01*
X138337237Y-110462094D01*
X138337238Y-110462093D01*
X138341118Y-110456752D01*
X138391041Y-110344624D01*
X138416109Y-110288319D01*
X138416109Y-110288318D01*
X138418794Y-110282288D01*
X138438647Y-110188887D01*
X138457128Y-110101944D01*
X138457128Y-110101939D01*
X138458500Y-110095487D01*
X138458500Y-109904513D01*
X138457039Y-109897637D01*
X138432520Y-109782288D01*
X138418794Y-109717712D01*
X138408845Y-109695366D01*
X138343803Y-109549278D01*
X138343802Y-109549276D01*
X138341118Y-109543248D01*
X138309697Y-109500000D01*
X138272687Y-109449061D01*
X138248828Y-109382193D01*
X138264909Y-109313042D01*
X138272687Y-109300939D01*
X138337237Y-109212094D01*
X138337238Y-109212093D01*
X138341118Y-109206752D01*
X138345878Y-109196062D01*
X138416109Y-109038319D01*
X138416109Y-109038318D01*
X138418794Y-109032288D01*
X138453756Y-108867807D01*
X138457128Y-108851944D01*
X138457128Y-108851939D01*
X138458500Y-108845487D01*
X138458500Y-108654513D01*
X138418794Y-108467712D01*
X138416109Y-108461681D01*
X138343803Y-108299278D01*
X138343802Y-108299276D01*
X138341118Y-108293248D01*
X138336146Y-108286404D01*
X138323755Y-108269350D01*
X138299897Y-108202482D01*
X138317915Y-108130018D01*
X138379795Y-108027841D01*
X138400472Y-107993699D01*
X138406593Y-107974169D01*
X138438641Y-107871902D01*
X138451753Y-107830062D01*
X138458500Y-107756635D01*
X138458500Y-107500000D01*
X138458499Y-107246249D01*
X138458499Y-107243366D01*
X138458234Y-107240474D01*
X138452364Y-107176592D01*
X138451753Y-107169938D01*
X138429349Y-107098448D01*
X138402744Y-107013550D01*
X138402743Y-107013548D01*
X138400472Y-107006301D01*
X138311639Y-106859619D01*
X138190381Y-106738361D01*
X138043699Y-106649528D01*
X138036452Y-106647257D01*
X138036450Y-106647256D01*
X137920399Y-106610888D01*
X137880062Y-106598247D01*
X137806635Y-106591500D01*
X137803737Y-106591500D01*
X137298686Y-106591501D01*
X136793366Y-106591501D01*
X136790508Y-106591764D01*
X136790499Y-106591764D01*
X136754996Y-106595026D01*
X136719938Y-106598247D01*
X136713560Y-106600246D01*
X136713559Y-106600246D01*
X136563550Y-106647256D01*
X136563548Y-106647257D01*
X136556301Y-106649528D01*
X136409619Y-106738361D01*
X136288361Y-106859619D01*
X136199528Y-107006301D01*
X136148247Y-107169938D01*
X136141500Y-107243365D01*
X136141500Y-107246263D01*
X136141501Y-107500665D01*
X136141501Y-107756634D01*
X136141764Y-107759492D01*
X136141764Y-107759501D01*
X136144069Y-107784590D01*
X136148247Y-107830062D01*
X136150246Y-107836440D01*
X136150246Y-107836441D01*
X136193408Y-107974169D01*
X136199528Y-107993699D01*
X136220205Y-108027841D01*
X136282085Y-108130018D01*
X136300264Y-108198648D01*
X136276245Y-108269350D01*
X136263855Y-108286404D01*
X136258882Y-108293248D01*
X136256198Y-108299276D01*
X136256197Y-108299278D01*
X136183891Y-108461681D01*
X136181206Y-108467712D01*
X136141500Y-108654513D01*
X136141500Y-108845487D01*
X136142872Y-108851939D01*
X136142872Y-108851944D01*
X136146244Y-108867807D01*
X136181206Y-109032288D01*
X136183891Y-109038318D01*
X136183891Y-109038319D01*
X136254123Y-109196062D01*
X136258882Y-109206752D01*
X136262762Y-109212093D01*
X136262763Y-109212094D01*
X136327313Y-109300939D01*
X136351172Y-109367807D01*
X136335091Y-109436958D01*
X136327313Y-109449061D01*
X136290304Y-109500000D01*
X136258882Y-109543248D01*
X136256198Y-109549276D01*
X136256197Y-109549278D01*
X136191155Y-109695366D01*
X136181206Y-109717712D01*
X136167480Y-109782288D01*
X136142962Y-109897637D01*
X136141500Y-109904513D01*
X136141500Y-110095487D01*
X136142872Y-110101939D01*
X136142872Y-110101944D01*
X136161353Y-110188887D01*
X136181206Y-110282288D01*
X136183891Y-110288318D01*
X136183891Y-110288319D01*
X136208960Y-110344624D01*
X136258882Y-110456752D01*
X136262762Y-110462093D01*
X136262763Y-110462094D01*
X136327313Y-110550939D01*
X136351172Y-110617807D01*
X136335091Y-110686958D01*
X136327313Y-110699061D01*
X136258882Y-110793248D01*
X136256198Y-110799276D01*
X136256197Y-110799278D01*
X136225263Y-110868757D01*
X136181206Y-110967712D01*
X136141500Y-111154513D01*
X136141500Y-111345487D01*
X134641534Y-111345487D01*
X134723643Y-111221902D01*
X134788055Y-111052338D01*
X134789035Y-111045366D01*
X134812748Y-110876639D01*
X134812748Y-110876636D01*
X134813299Y-110872717D01*
X134813616Y-110850000D01*
X134793397Y-110669745D01*
X134791080Y-110663091D01*
X134736064Y-110505106D01*
X134736062Y-110505103D01*
X134733745Y-110498448D01*
X134637626Y-110344624D01*
X134606657Y-110313438D01*
X134514778Y-110220915D01*
X134514774Y-110220912D01*
X134509815Y-110215918D01*
X134375182Y-110130478D01*
X134328386Y-110077092D01*
X134317881Y-110006877D01*
X134347004Y-109942128D01*
X134378179Y-109915867D01*
X134491912Y-109848069D01*
X134623266Y-109722982D01*
X134723643Y-109571902D01*
X134770306Y-109449061D01*
X134785555Y-109408920D01*
X134785556Y-109408918D01*
X134788055Y-109402338D01*
X134790886Y-109382193D01*
X134812748Y-109226639D01*
X134812748Y-109226636D01*
X134813299Y-109222717D01*
X134813616Y-109200000D01*
X134793397Y-109019745D01*
X134791080Y-109013091D01*
X134736064Y-108855106D01*
X134736062Y-108855103D01*
X134733745Y-108848448D01*
X134683171Y-108767512D01*
X134641359Y-108700598D01*
X134637626Y-108694624D01*
X134632664Y-108689627D01*
X134514778Y-108570915D01*
X134514774Y-108570912D01*
X134509815Y-108565918D01*
X134498697Y-108558862D01*
X134365241Y-108474169D01*
X134356666Y-108468727D01*
X134350022Y-108466361D01*
X134343697Y-108463276D01*
X134345112Y-108460375D01*
X134299120Y-108427024D01*
X134273301Y-108360888D01*
X134287337Y-108291293D01*
X134336134Y-108240990D01*
X134336108Y-108240947D01*
X134336268Y-108240852D01*
X134336269Y-108240851D01*
X134407065Y-108198648D01*
X134485860Y-108151677D01*
X134485862Y-108151676D01*
X134491912Y-108148069D01*
X134623266Y-108022982D01*
X134723643Y-107871902D01*
X134788055Y-107702338D01*
X134790217Y-107686958D01*
X134812748Y-107526639D01*
X134812748Y-107526636D01*
X134813299Y-107522717D01*
X134813616Y-107500000D01*
X134793397Y-107319745D01*
X134791080Y-107313091D01*
X134736064Y-107155106D01*
X134736062Y-107155103D01*
X134733745Y-107148448D01*
X134700652Y-107095487D01*
X134641359Y-107000598D01*
X134637626Y-106994624D01*
X134623941Y-106980843D01*
X134514778Y-106870915D01*
X134514774Y-106870912D01*
X134509815Y-106865918D01*
X134499890Y-106859619D01*
X134414085Y-106805166D01*
X134356666Y-106768727D01*
X134286486Y-106743737D01*
X134192425Y-106710243D01*
X134192420Y-106710242D01*
X134185790Y-106707881D01*
X134178802Y-106707048D01*
X134178799Y-106707047D01*
X134055698Y-106692368D01*
X134005680Y-106686404D01*
X133998677Y-106687140D01*
X133998676Y-106687140D01*
X133832288Y-106704628D01*
X133832286Y-106704629D01*
X133825288Y-106705364D01*
X133653579Y-106763818D01*
X133647575Y-106767512D01*
X133505095Y-106855166D01*
X133505092Y-106855168D01*
X133499088Y-106858862D01*
X133494053Y-106863793D01*
X133494050Y-106863795D01*
X133405410Y-106950598D01*
X133369493Y-106985771D01*
X133271235Y-107138238D01*
X133268826Y-107144858D01*
X133268824Y-107144861D01*
X133218805Y-107282288D01*
X133209197Y-107308685D01*
X133186463Y-107488640D01*
X133204163Y-107669160D01*
X133261418Y-107841273D01*
X133265065Y-107847295D01*
X133265066Y-107847297D01*
X133349340Y-107986450D01*
X133355380Y-107996424D01*
X133481382Y-108126902D01*
X133633159Y-108226222D01*
X133646682Y-108231251D01*
X133703555Y-108273742D01*
X133728429Y-108340238D01*
X133713404Y-108409627D01*
X133663250Y-108459877D01*
X133659386Y-108461841D01*
X133653579Y-108463818D01*
X133645600Y-108468727D01*
X133505095Y-108555166D01*
X133505092Y-108555168D01*
X133499088Y-108558862D01*
X133494053Y-108563793D01*
X133494050Y-108563795D01*
X133374525Y-108680843D01*
X133369493Y-108685771D01*
X133271235Y-108838238D01*
X133268826Y-108844858D01*
X133268824Y-108844861D01*
X133214315Y-108994624D01*
X133209197Y-109008685D01*
X133186463Y-109188640D01*
X133204163Y-109369160D01*
X133261418Y-109541273D01*
X133265065Y-109547295D01*
X133265066Y-109547297D01*
X133334624Y-109662151D01*
X133355380Y-109696424D01*
X133360269Y-109701487D01*
X133360270Y-109701488D01*
X133432063Y-109775831D01*
X133481382Y-109826902D01*
X133487274Y-109830757D01*
X133487278Y-109830761D01*
X133624682Y-109920675D01*
X133670731Y-109974712D01*
X133680254Y-110045067D01*
X133650229Y-110109402D01*
X133621718Y-110133419D01*
X133499088Y-110208862D01*
X133494053Y-110213793D01*
X133494050Y-110213795D01*
X133374525Y-110330843D01*
X133369493Y-110335771D01*
X133271235Y-110488238D01*
X133268826Y-110494858D01*
X133268824Y-110494861D01*
X133244008Y-110563042D01*
X133209197Y-110658685D01*
X133186463Y-110838640D01*
X110508500Y-110838640D01*
X110508500Y-109595487D01*
X111541500Y-109595487D01*
X111542872Y-109601939D01*
X111542872Y-109601944D01*
X111561353Y-109688887D01*
X111581206Y-109782288D01*
X111583891Y-109788318D01*
X111583891Y-109788319D01*
X111642820Y-109920675D01*
X111658882Y-109956752D01*
X111662762Y-109962093D01*
X111662763Y-109962094D01*
X111676564Y-109981089D01*
X111700422Y-110047956D01*
X111682404Y-110120422D01*
X111603921Y-110250012D01*
X111597715Y-110263757D01*
X111550744Y-110413644D01*
X111548131Y-110426694D01*
X111543087Y-110481586D01*
X111546475Y-110493124D01*
X111547865Y-110494329D01*
X111555548Y-110496000D01*
X113839884Y-110496000D01*
X113855123Y-110491525D01*
X113856328Y-110490135D01*
X113857291Y-110485706D01*
X113851868Y-110426685D01*
X113849257Y-110413649D01*
X113802285Y-110263757D01*
X113796079Y-110250012D01*
X113717596Y-110120422D01*
X113699417Y-110051792D01*
X113723436Y-109981089D01*
X113737237Y-109962094D01*
X113737238Y-109962093D01*
X113741118Y-109956752D01*
X113757181Y-109920675D01*
X113816109Y-109788319D01*
X113816109Y-109788318D01*
X113818794Y-109782288D01*
X113838647Y-109688888D01*
X113857128Y-109601944D01*
X113857128Y-109601939D01*
X113858500Y-109595487D01*
X113858500Y-109404513D01*
X113852407Y-109375844D01*
X113836724Y-109302066D01*
X113818794Y-109217712D01*
X113808973Y-109195653D01*
X113761328Y-109088640D01*
X115186463Y-109088640D01*
X115204163Y-109269160D01*
X115261418Y-109441273D01*
X115265065Y-109447295D01*
X115265066Y-109447297D01*
X115350814Y-109588884D01*
X115355380Y-109596424D01*
X115360269Y-109601487D01*
X115360270Y-109601488D01*
X115375357Y-109617111D01*
X115481382Y-109726902D01*
X115633159Y-109826222D01*
X115639763Y-109828678D01*
X115639765Y-109828679D01*
X115796558Y-109886990D01*
X115796560Y-109886990D01*
X115803168Y-109889448D01*
X115867681Y-109898056D01*
X115975980Y-109912507D01*
X115975984Y-109912507D01*
X115982961Y-109913438D01*
X115989972Y-109912800D01*
X115989976Y-109912800D01*
X116132459Y-109899832D01*
X116163600Y-109896998D01*
X116170302Y-109894820D01*
X116170304Y-109894820D01*
X116329409Y-109843124D01*
X116329412Y-109843123D01*
X116336108Y-109840947D01*
X116491912Y-109748069D01*
X116623266Y-109622982D01*
X116712522Y-109488640D01*
X122386463Y-109488640D01*
X122404163Y-109669160D01*
X122461418Y-109841273D01*
X122465065Y-109847295D01*
X122465066Y-109847297D01*
X122542231Y-109974712D01*
X122555380Y-109996424D01*
X122560269Y-110001487D01*
X122560270Y-110001488D01*
X122602354Y-110045067D01*
X122681382Y-110126902D01*
X122706305Y-110143211D01*
X122814169Y-110213795D01*
X122833159Y-110226222D01*
X122839763Y-110228678D01*
X122839765Y-110228679D01*
X122996558Y-110286990D01*
X122996560Y-110286990D01*
X123003168Y-110289448D01*
X123086995Y-110300633D01*
X123175980Y-110312507D01*
X123175984Y-110312507D01*
X123182961Y-110313438D01*
X123189972Y-110312800D01*
X123189976Y-110312800D01*
X123332459Y-110299832D01*
X123363600Y-110296998D01*
X123370302Y-110294820D01*
X123370304Y-110294820D01*
X123529409Y-110243124D01*
X123529412Y-110243123D01*
X123536108Y-110240947D01*
X123691912Y-110148069D01*
X123823266Y-110022982D01*
X123923643Y-109871902D01*
X123972529Y-109743211D01*
X123985555Y-109708920D01*
X123985556Y-109708918D01*
X123988055Y-109702338D01*
X123989733Y-109690401D01*
X124012748Y-109526639D01*
X124012748Y-109526636D01*
X124013299Y-109522717D01*
X124013616Y-109500000D01*
X123993397Y-109319745D01*
X123991063Y-109313042D01*
X123936064Y-109155106D01*
X123936062Y-109155103D01*
X123933745Y-109148448D01*
X123837626Y-108994624D01*
X123780361Y-108936958D01*
X123714778Y-108870915D01*
X123714774Y-108870912D01*
X123709815Y-108865918D01*
X123702465Y-108861253D01*
X123607424Y-108800939D01*
X123556666Y-108768727D01*
X123499716Y-108748448D01*
X123392425Y-108710243D01*
X123392420Y-108710242D01*
X123385790Y-108707881D01*
X123378802Y-108707048D01*
X123378799Y-108707047D01*
X123255698Y-108692368D01*
X123205680Y-108686404D01*
X123198677Y-108687140D01*
X123198676Y-108687140D01*
X123032288Y-108704628D01*
X123032286Y-108704629D01*
X123025288Y-108705364D01*
X122853579Y-108763818D01*
X122847575Y-108767512D01*
X122705095Y-108855166D01*
X122705092Y-108855168D01*
X122699088Y-108858862D01*
X122694053Y-108863793D01*
X122694050Y-108863795D01*
X122636916Y-108919745D01*
X122569493Y-108985771D01*
X122471235Y-109138238D01*
X122468826Y-109144858D01*
X122468824Y-109144861D01*
X122441928Y-109218757D01*
X122409197Y-109308685D01*
X122386463Y-109488640D01*
X116712522Y-109488640D01*
X116723643Y-109471902D01*
X116782989Y-109315675D01*
X116785555Y-109308920D01*
X116785556Y-109308918D01*
X116788055Y-109302338D01*
X116789035Y-109295366D01*
X116812748Y-109126639D01*
X116812748Y-109126636D01*
X116813299Y-109122717D01*
X116813616Y-109100000D01*
X116793397Y-108919745D01*
X116791080Y-108913091D01*
X116736064Y-108755106D01*
X116736062Y-108755103D01*
X116733745Y-108748448D01*
X116706823Y-108705364D01*
X116641359Y-108600598D01*
X116637626Y-108594624D01*
X116609120Y-108565918D01*
X116514778Y-108470915D01*
X116514774Y-108470912D01*
X116509815Y-108465918D01*
X116375182Y-108380478D01*
X116328386Y-108327092D01*
X116317881Y-108256877D01*
X116347004Y-108192128D01*
X116378179Y-108165867D01*
X116491912Y-108098069D01*
X116623266Y-107972982D01*
X116723643Y-107821902D01*
X116781665Y-107669160D01*
X116785555Y-107658920D01*
X116785556Y-107658918D01*
X116788055Y-107652338D01*
X116790886Y-107632193D01*
X116812748Y-107476639D01*
X116812748Y-107476636D01*
X116813299Y-107472717D01*
X116813616Y-107450000D01*
X116793397Y-107269745D01*
X116791080Y-107263091D01*
X116736064Y-107105106D01*
X116736062Y-107105103D01*
X116733745Y-107098448D01*
X116637626Y-106944624D01*
X116559668Y-106866120D01*
X116514778Y-106820915D01*
X116514774Y-106820912D01*
X116509815Y-106815918D01*
X116498697Y-106808862D01*
X116424140Y-106761547D01*
X116356666Y-106718727D01*
X116350022Y-106716361D01*
X116343697Y-106713276D01*
X116345112Y-106710375D01*
X116299120Y-106677024D01*
X116273301Y-106610888D01*
X116287337Y-106541293D01*
X116336134Y-106490990D01*
X116336108Y-106490947D01*
X116336268Y-106490852D01*
X116336269Y-106490851D01*
X116491912Y-106398069D01*
X116623266Y-106272982D01*
X116723643Y-106121902D01*
X116788055Y-105952338D01*
X116789035Y-105945366D01*
X116812748Y-105776639D01*
X116812748Y-105776636D01*
X116813299Y-105772717D01*
X116813616Y-105750000D01*
X116793397Y-105569745D01*
X116791080Y-105563091D01*
X116736064Y-105405106D01*
X116736062Y-105405103D01*
X116733745Y-105398448D01*
X116637626Y-105244624D01*
X116623941Y-105230843D01*
X116514778Y-105120915D01*
X116514774Y-105120912D01*
X116509815Y-105115918D01*
X116498697Y-105108862D01*
X116450538Y-105078300D01*
X116356666Y-105018727D01*
X116325583Y-105007659D01*
X116192425Y-104960243D01*
X116192420Y-104960242D01*
X116185790Y-104957881D01*
X116178802Y-104957048D01*
X116178799Y-104957047D01*
X116055698Y-104942368D01*
X116005680Y-104936404D01*
X115998677Y-104937140D01*
X115998676Y-104937140D01*
X115832288Y-104954628D01*
X115832286Y-104954629D01*
X115825288Y-104955364D01*
X115653579Y-105013818D01*
X115647575Y-105017512D01*
X115505095Y-105105166D01*
X115505092Y-105105168D01*
X115499088Y-105108862D01*
X115494053Y-105113793D01*
X115494050Y-105113795D01*
X115473086Y-105134325D01*
X115369493Y-105235771D01*
X115271235Y-105388238D01*
X115268826Y-105394858D01*
X115268824Y-105394861D01*
X115239958Y-105474169D01*
X115209197Y-105558685D01*
X115186463Y-105738640D01*
X115204163Y-105919160D01*
X115261418Y-106091273D01*
X115265065Y-106097295D01*
X115265066Y-106097297D01*
X115275978Y-106115314D01*
X115355380Y-106246424D01*
X115481382Y-106376902D01*
X115487278Y-106380760D01*
X115591653Y-106449061D01*
X115633159Y-106476222D01*
X115646682Y-106481251D01*
X115703555Y-106523742D01*
X115728429Y-106590238D01*
X115713404Y-106659627D01*
X115663250Y-106709877D01*
X115659386Y-106711841D01*
X115653579Y-106713818D01*
X115645600Y-106718727D01*
X115505095Y-106805166D01*
X115505092Y-106805168D01*
X115499088Y-106808862D01*
X115494053Y-106813793D01*
X115494050Y-106813795D01*
X115374525Y-106930843D01*
X115369493Y-106935771D01*
X115271235Y-107088238D01*
X115268826Y-107094858D01*
X115268824Y-107094861D01*
X115239073Y-107176601D01*
X115209197Y-107258685D01*
X115186463Y-107438640D01*
X115204163Y-107619160D01*
X115261418Y-107791273D01*
X115265065Y-107797295D01*
X115265066Y-107797297D01*
X115288776Y-107836446D01*
X115355380Y-107946424D01*
X115360269Y-107951487D01*
X115360270Y-107951488D01*
X115381027Y-107972982D01*
X115481382Y-108076902D01*
X115487274Y-108080757D01*
X115487278Y-108080761D01*
X115624682Y-108170675D01*
X115670731Y-108224712D01*
X115680254Y-108295067D01*
X115650229Y-108359402D01*
X115621718Y-108383419D01*
X115499088Y-108458862D01*
X115494053Y-108463793D01*
X115494050Y-108463795D01*
X115393621Y-108562143D01*
X115369493Y-108585771D01*
X115271235Y-108738238D01*
X115268826Y-108744858D01*
X115268824Y-108744861D01*
X115229849Y-108851944D01*
X115209197Y-108908685D01*
X115186463Y-109088640D01*
X113761328Y-109088640D01*
X113743803Y-109049278D01*
X113743802Y-109049276D01*
X113741118Y-109043248D01*
X113716007Y-109008685D01*
X113672687Y-108949061D01*
X113648828Y-108882193D01*
X113664909Y-108813042D01*
X113672687Y-108800939D01*
X113737237Y-108712094D01*
X113737238Y-108712093D01*
X113741118Y-108706752D01*
X113750178Y-108686404D01*
X113816109Y-108538319D01*
X113816109Y-108538318D01*
X113818794Y-108532288D01*
X113851062Y-108380481D01*
X113857128Y-108351944D01*
X113857128Y-108351939D01*
X113858500Y-108345487D01*
X113858500Y-108154513D01*
X113855497Y-108140381D01*
X113825973Y-108001488D01*
X113818794Y-107967712D01*
X113809316Y-107946424D01*
X113743803Y-107799278D01*
X113743802Y-107799276D01*
X113741118Y-107793248D01*
X113716618Y-107759526D01*
X113672687Y-107699061D01*
X113648828Y-107632193D01*
X113664909Y-107563042D01*
X113672687Y-107550939D01*
X113737237Y-107462094D01*
X113737238Y-107462093D01*
X113741118Y-107456752D01*
X113745878Y-107446062D01*
X113816109Y-107288319D01*
X113816109Y-107288318D01*
X113818794Y-107282288D01*
X113850673Y-107132312D01*
X113857128Y-107101944D01*
X113857128Y-107101939D01*
X113858500Y-107095487D01*
X113858500Y-106904513D01*
X113851359Y-106870915D01*
X113830441Y-106772506D01*
X113818794Y-106717712D01*
X113816109Y-106711681D01*
X113743803Y-106549278D01*
X113743802Y-106549276D01*
X113741118Y-106543248D01*
X113672687Y-106449061D01*
X113648828Y-106382193D01*
X113664909Y-106313042D01*
X113672687Y-106300939D01*
X113737237Y-106212094D01*
X113737238Y-106212093D01*
X113741118Y-106206752D01*
X113778896Y-106121902D01*
X113816109Y-106038319D01*
X113816109Y-106038318D01*
X113818794Y-106032288D01*
X113838647Y-105938887D01*
X113857128Y-105851944D01*
X113857128Y-105851939D01*
X113858500Y-105845487D01*
X113858500Y-105654513D01*
X113818794Y-105467712D01*
X113741118Y-105293248D01*
X113628866Y-105138747D01*
X113595675Y-105108862D01*
X113491852Y-105015379D01*
X113491851Y-105015378D01*
X113486944Y-105010960D01*
X113359084Y-104937140D01*
X113327279Y-104918777D01*
X113327278Y-104918776D01*
X113321556Y-104915473D01*
X113139928Y-104856458D01*
X113133367Y-104855768D01*
X113133365Y-104855768D01*
X113080111Y-104850171D01*
X112997610Y-104841500D01*
X112402390Y-104841500D01*
X112319889Y-104850171D01*
X112266635Y-104855768D01*
X112266633Y-104855768D01*
X112260072Y-104856458D01*
X112078444Y-104915473D01*
X112072722Y-104918776D01*
X112072721Y-104918777D01*
X112040916Y-104937140D01*
X111913056Y-105010960D01*
X111908149Y-105015378D01*
X111908148Y-105015379D01*
X111804325Y-105108862D01*
X111771134Y-105138747D01*
X111658882Y-105293248D01*
X111581206Y-105467712D01*
X111541500Y-105654513D01*
X111541500Y-105845487D01*
X111542872Y-105851939D01*
X111542872Y-105851944D01*
X111561353Y-105938887D01*
X111581206Y-106032288D01*
X111583891Y-106038318D01*
X111583891Y-106038319D01*
X111621105Y-106121902D01*
X111658882Y-106206752D01*
X111662762Y-106212093D01*
X111662763Y-106212094D01*
X111727313Y-106300939D01*
X111751172Y-106367807D01*
X111735091Y-106436958D01*
X111727313Y-106449061D01*
X111658882Y-106543248D01*
X111656198Y-106549276D01*
X111656197Y-106549278D01*
X111583891Y-106711681D01*
X111581206Y-106717712D01*
X111569559Y-106772506D01*
X111548642Y-106870915D01*
X111541500Y-106904513D01*
X111541500Y-107095487D01*
X111542872Y-107101939D01*
X111542872Y-107101944D01*
X111549327Y-107132312D01*
X111581206Y-107282288D01*
X111583891Y-107288318D01*
X111583891Y-107288319D01*
X111654123Y-107446062D01*
X111658882Y-107456752D01*
X111662762Y-107462093D01*
X111662763Y-107462094D01*
X111727313Y-107550939D01*
X111751172Y-107617807D01*
X111735091Y-107686958D01*
X111727313Y-107699061D01*
X111683383Y-107759526D01*
X111658882Y-107793248D01*
X111656198Y-107799276D01*
X111656197Y-107799278D01*
X111590684Y-107946424D01*
X111581206Y-107967712D01*
X111574027Y-108001488D01*
X111544504Y-108140381D01*
X111541500Y-108154513D01*
X111541500Y-108345487D01*
X111542872Y-108351939D01*
X111542872Y-108351944D01*
X111548938Y-108380481D01*
X111581206Y-108532288D01*
X111583891Y-108538318D01*
X111583891Y-108538319D01*
X111649823Y-108686404D01*
X111658882Y-108706752D01*
X111662762Y-108712093D01*
X111662763Y-108712094D01*
X111727313Y-108800939D01*
X111751172Y-108867807D01*
X111735091Y-108936958D01*
X111727313Y-108949061D01*
X111683994Y-109008685D01*
X111658882Y-109043248D01*
X111656198Y-109049276D01*
X111656197Y-109049278D01*
X111591027Y-109195653D01*
X111581206Y-109217712D01*
X111563276Y-109302066D01*
X111547594Y-109375844D01*
X111541500Y-109404513D01*
X111541500Y-109595487D01*
X110508500Y-109595487D01*
X110508500Y-103988640D01*
X129386463Y-103988640D01*
X129404163Y-104169160D01*
X129461418Y-104341273D01*
X129555380Y-104496424D01*
X129681382Y-104626902D01*
X129833159Y-104726222D01*
X129839763Y-104728678D01*
X129839765Y-104728679D01*
X129996558Y-104786990D01*
X129996560Y-104786990D01*
X130003168Y-104789448D01*
X130086995Y-104800633D01*
X130175980Y-104812507D01*
X130175984Y-104812507D01*
X130182961Y-104813438D01*
X130189972Y-104812800D01*
X130189976Y-104812800D01*
X130332459Y-104799832D01*
X130363600Y-104796998D01*
X130370302Y-104794820D01*
X130370304Y-104794820D01*
X130529409Y-104743124D01*
X130529412Y-104743123D01*
X130536108Y-104740947D01*
X130691912Y-104648069D01*
X130738496Y-104603707D01*
X130801622Y-104571215D01*
X130869309Y-104576856D01*
X130903168Y-104589448D01*
X130910149Y-104590379D01*
X130910151Y-104590380D01*
X131075980Y-104612507D01*
X131075984Y-104612507D01*
X131082961Y-104613438D01*
X131089972Y-104612800D01*
X131089976Y-104612800D01*
X131232459Y-104599832D01*
X131263600Y-104596998D01*
X131270302Y-104594820D01*
X131270304Y-104594820D01*
X131429409Y-104543124D01*
X131429412Y-104543123D01*
X131436108Y-104540947D01*
X131591912Y-104448069D01*
X131723266Y-104322982D01*
X131823643Y-104171902D01*
X131888055Y-104002338D01*
X131913299Y-103822717D01*
X131913616Y-103800000D01*
X131903096Y-103706215D01*
X131915380Y-103636290D01*
X131941419Y-103600924D01*
X132023266Y-103522982D01*
X132123643Y-103371902D01*
X132180448Y-103222364D01*
X132185555Y-103208920D01*
X132185556Y-103208918D01*
X132188055Y-103202338D01*
X132190191Y-103187140D01*
X132212748Y-103026639D01*
X132212748Y-103026636D01*
X132213299Y-103022717D01*
X132213616Y-103000000D01*
X132193397Y-102819745D01*
X132191080Y-102813091D01*
X132136064Y-102655106D01*
X132136062Y-102655103D01*
X132133745Y-102648448D01*
X132037626Y-102494624D01*
X132028835Y-102485771D01*
X131914778Y-102370915D01*
X131914774Y-102370912D01*
X131909815Y-102365918D01*
X131898697Y-102358862D01*
X131790349Y-102290103D01*
X131756666Y-102268727D01*
X131727463Y-102258328D01*
X131592425Y-102210243D01*
X131592420Y-102210242D01*
X131585790Y-102207881D01*
X131578802Y-102207048D01*
X131578799Y-102207047D01*
X131455698Y-102192368D01*
X131405680Y-102186404D01*
X131398677Y-102187140D01*
X131398676Y-102187140D01*
X131232288Y-102204628D01*
X131232286Y-102204629D01*
X131225288Y-102205364D01*
X131053579Y-102263818D01*
X131047575Y-102267512D01*
X130905095Y-102355166D01*
X130905092Y-102355168D01*
X130899088Y-102358862D01*
X130894053Y-102363793D01*
X130894050Y-102363795D01*
X130876080Y-102381393D01*
X130769493Y-102485771D01*
X130671235Y-102638238D01*
X130668826Y-102644858D01*
X130668824Y-102644861D01*
X130611606Y-102802066D01*
X130609197Y-102808685D01*
X130586463Y-102988640D01*
X130590189Y-103026639D01*
X130596623Y-103092257D01*
X130583364Y-103162005D01*
X130534501Y-103213512D01*
X130465548Y-103230425D01*
X130428963Y-103223254D01*
X130385790Y-103207881D01*
X130378798Y-103207047D01*
X130378797Y-103207047D01*
X130280837Y-103195366D01*
X130205680Y-103186404D01*
X130198677Y-103187140D01*
X130198676Y-103187140D01*
X130032288Y-103204628D01*
X130032286Y-103204629D01*
X130025288Y-103205364D01*
X129853579Y-103263818D01*
X129847575Y-103267512D01*
X129705095Y-103355166D01*
X129705092Y-103355168D01*
X129699088Y-103358862D01*
X129694053Y-103363793D01*
X129694050Y-103363795D01*
X129574525Y-103480843D01*
X129569493Y-103485771D01*
X129471235Y-103638238D01*
X129409197Y-103808685D01*
X129386463Y-103988640D01*
X110508500Y-103988640D01*
X110508500Y-102488640D01*
X120461463Y-102488640D01*
X120479163Y-102669160D01*
X120536418Y-102841273D01*
X120540065Y-102847295D01*
X120540066Y-102847297D01*
X120550978Y-102865314D01*
X120630380Y-102996424D01*
X120756382Y-103126902D01*
X120762278Y-103130760D01*
X120883741Y-103210243D01*
X120908159Y-103226222D01*
X120914763Y-103228678D01*
X120914765Y-103228679D01*
X121071558Y-103286990D01*
X121071560Y-103286990D01*
X121078168Y-103289448D01*
X121161995Y-103300633D01*
X121250980Y-103312507D01*
X121250984Y-103312507D01*
X121257961Y-103313438D01*
X121264972Y-103312800D01*
X121264976Y-103312800D01*
X121407459Y-103299832D01*
X121438600Y-103296998D01*
X121445302Y-103294820D01*
X121445304Y-103294820D01*
X121604409Y-103243124D01*
X121604412Y-103243123D01*
X121611108Y-103240947D01*
X121707513Y-103183478D01*
X121760860Y-103151677D01*
X121760862Y-103151676D01*
X121766912Y-103148069D01*
X121898266Y-103022982D01*
X121998643Y-102871902D01*
X122063055Y-102702338D01*
X122064035Y-102695366D01*
X122087748Y-102526639D01*
X122087748Y-102526636D01*
X122088299Y-102522717D01*
X122088616Y-102500000D01*
X122083155Y-102451317D01*
X122095439Y-102381393D01*
X122143577Y-102329209D01*
X122212287Y-102311334D01*
X122225020Y-102312378D01*
X122232961Y-102313438D01*
X122239972Y-102312800D01*
X122239976Y-102312800D01*
X122382459Y-102299832D01*
X122413600Y-102296998D01*
X122420302Y-102294820D01*
X122420304Y-102294820D01*
X122579409Y-102243124D01*
X122579412Y-102243123D01*
X122586108Y-102240947D01*
X122741912Y-102148069D01*
X122873266Y-102022982D01*
X122973643Y-101871902D01*
X123038055Y-101702338D01*
X123040191Y-101687140D01*
X123062748Y-101526639D01*
X123062748Y-101526636D01*
X123063299Y-101522717D01*
X123063616Y-101500000D01*
X123043397Y-101319745D01*
X123041080Y-101313091D01*
X122986064Y-101155106D01*
X122986062Y-101155103D01*
X122983745Y-101148448D01*
X122948018Y-101091273D01*
X122891359Y-101000598D01*
X122887626Y-100994624D01*
X122873941Y-100980843D01*
X122764778Y-100870915D01*
X122764774Y-100870912D01*
X122759815Y-100865918D01*
X122748697Y-100858862D01*
X122619133Y-100776639D01*
X122606666Y-100768727D01*
X122565201Y-100753962D01*
X122442425Y-100710243D01*
X122442420Y-100710242D01*
X122435790Y-100707881D01*
X122428802Y-100707048D01*
X122428799Y-100707047D01*
X122305698Y-100692368D01*
X122255680Y-100686404D01*
X122248677Y-100687140D01*
X122248676Y-100687140D01*
X122082288Y-100704628D01*
X122082286Y-100704629D01*
X122075288Y-100705364D01*
X121903579Y-100763818D01*
X121897575Y-100767512D01*
X121755095Y-100855166D01*
X121755092Y-100855168D01*
X121749088Y-100858862D01*
X121744053Y-100863793D01*
X121744050Y-100863795D01*
X121646912Y-100958920D01*
X121619493Y-100985771D01*
X121521235Y-101138238D01*
X121518826Y-101144858D01*
X121518824Y-101144861D01*
X121484050Y-101240401D01*
X121459197Y-101308685D01*
X121436463Y-101488640D01*
X121442185Y-101546998D01*
X121442634Y-101551574D01*
X121429375Y-101621322D01*
X121380512Y-101672829D01*
X121311560Y-101689742D01*
X121302316Y-101688984D01*
X121280680Y-101686404D01*
X121273677Y-101687140D01*
X121273676Y-101687140D01*
X121107288Y-101704628D01*
X121107286Y-101704629D01*
X121100288Y-101705364D01*
X120928579Y-101763818D01*
X120922575Y-101767512D01*
X120780095Y-101855166D01*
X120780092Y-101855168D01*
X120774088Y-101858862D01*
X120769053Y-101863793D01*
X120769050Y-101863795D01*
X120649525Y-101980843D01*
X120644493Y-101985771D01*
X120546235Y-102138238D01*
X120543826Y-102144858D01*
X120543824Y-102144861D01*
X120497365Y-102272506D01*
X120484197Y-102308685D01*
X120461463Y-102488640D01*
X110508500Y-102488640D01*
X110508500Y-100738640D01*
X117386463Y-100738640D01*
X117404163Y-100919160D01*
X117461418Y-101091273D01*
X117465065Y-101097295D01*
X117465066Y-101097297D01*
X117493872Y-101144861D01*
X117555380Y-101246424D01*
X117681382Y-101376902D01*
X117833159Y-101476222D01*
X117839763Y-101478678D01*
X117839765Y-101478679D01*
X117996558Y-101536990D01*
X117996560Y-101536990D01*
X118003168Y-101539448D01*
X118086995Y-101550633D01*
X118175980Y-101562507D01*
X118175984Y-101562507D01*
X118182961Y-101563438D01*
X118189972Y-101562800D01*
X118189976Y-101562800D01*
X118332459Y-101549832D01*
X118363600Y-101546998D01*
X118370302Y-101544820D01*
X118370304Y-101544820D01*
X118529409Y-101493124D01*
X118529412Y-101493123D01*
X118536108Y-101490947D01*
X118691912Y-101398069D01*
X118823266Y-101272982D01*
X118923643Y-101121902D01*
X118988055Y-100952338D01*
X118989035Y-100945366D01*
X119012748Y-100776639D01*
X119012748Y-100776636D01*
X119013299Y-100772717D01*
X119013616Y-100750000D01*
X118993397Y-100569745D01*
X118991080Y-100563091D01*
X118936064Y-100405106D01*
X118936062Y-100405103D01*
X118933745Y-100398448D01*
X118837626Y-100244624D01*
X118823941Y-100230843D01*
X118714778Y-100120915D01*
X118714774Y-100120912D01*
X118709815Y-100115918D01*
X118698697Y-100108862D01*
X118650538Y-100078300D01*
X118556666Y-100018727D01*
X118531976Y-100009935D01*
X118487635Y-99994146D01*
X118430171Y-99952452D01*
X118404371Y-99886309D01*
X118418426Y-99816717D01*
X118467874Y-99765772D01*
X118490957Y-99755617D01*
X118536108Y-99740947D01*
X118691912Y-99648069D01*
X118823266Y-99522982D01*
X118923643Y-99371902D01*
X118981818Y-99218757D01*
X118985555Y-99208920D01*
X118985556Y-99208918D01*
X118988055Y-99202338D01*
X118990212Y-99186990D01*
X119012748Y-99026639D01*
X119012748Y-99026636D01*
X119013299Y-99022717D01*
X119013616Y-99000000D01*
X118993397Y-98819745D01*
X118991080Y-98813091D01*
X118936064Y-98655106D01*
X118936062Y-98655103D01*
X118933745Y-98648448D01*
X118888377Y-98575844D01*
X118841359Y-98500598D01*
X118837626Y-98494624D01*
X118770114Y-98426639D01*
X118714778Y-98370915D01*
X118714774Y-98370912D01*
X118709815Y-98365918D01*
X118698697Y-98358862D01*
X118650538Y-98328300D01*
X118556666Y-98268727D01*
X118494032Y-98246424D01*
X118392425Y-98210243D01*
X118392420Y-98210242D01*
X118385790Y-98207881D01*
X118378802Y-98207048D01*
X118378799Y-98207047D01*
X118255698Y-98192368D01*
X118205680Y-98186404D01*
X118198677Y-98187140D01*
X118198676Y-98187140D01*
X118032288Y-98204628D01*
X118032286Y-98204629D01*
X118025288Y-98205364D01*
X117853579Y-98263818D01*
X117830785Y-98277841D01*
X117705095Y-98355166D01*
X117705092Y-98355168D01*
X117699088Y-98358862D01*
X117694053Y-98363793D01*
X117694050Y-98363795D01*
X117579244Y-98476222D01*
X117569493Y-98485771D01*
X117471235Y-98638238D01*
X117468826Y-98644858D01*
X117468824Y-98644861D01*
X117414243Y-98794820D01*
X117409197Y-98808685D01*
X117386463Y-98988640D01*
X117404163Y-99169160D01*
X117461418Y-99341273D01*
X117465065Y-99347295D01*
X117465066Y-99347297D01*
X117494178Y-99395366D01*
X117555380Y-99496424D01*
X117681382Y-99626902D01*
X117833159Y-99726222D01*
X117915009Y-99756662D01*
X117971881Y-99799152D01*
X117996755Y-99865648D01*
X117981730Y-99935037D01*
X117931576Y-99985287D01*
X117911691Y-99994035D01*
X117888808Y-100001825D01*
X117853579Y-100013818D01*
X117847575Y-100017512D01*
X117705095Y-100105166D01*
X117705092Y-100105168D01*
X117699088Y-100108862D01*
X117694053Y-100113793D01*
X117694050Y-100113795D01*
X117574525Y-100230843D01*
X117569493Y-100235771D01*
X117471235Y-100388238D01*
X117468826Y-100394858D01*
X117468824Y-100394861D01*
X117411606Y-100552066D01*
X117409197Y-100558685D01*
X117386463Y-100738640D01*
X110508500Y-100738640D01*
X110508500Y-97988640D01*
X115686463Y-97988640D01*
X115704163Y-98169160D01*
X115761418Y-98341273D01*
X115765065Y-98347295D01*
X115765066Y-98347297D01*
X115851264Y-98489627D01*
X115855380Y-98496424D01*
X115860269Y-98501487D01*
X115860270Y-98501488D01*
X115918852Y-98562151D01*
X115981382Y-98626902D01*
X116133159Y-98726222D01*
X116139763Y-98728678D01*
X116139765Y-98728679D01*
X116296558Y-98786990D01*
X116296560Y-98786990D01*
X116303168Y-98789448D01*
X116386995Y-98800633D01*
X116475980Y-98812507D01*
X116475984Y-98812507D01*
X116482961Y-98813438D01*
X116489972Y-98812800D01*
X116489976Y-98812800D01*
X116632459Y-98799832D01*
X116663600Y-98796998D01*
X116670302Y-98794820D01*
X116670304Y-98794820D01*
X116829409Y-98743124D01*
X116829412Y-98743123D01*
X116836108Y-98740947D01*
X116932513Y-98683478D01*
X116985860Y-98651677D01*
X116985862Y-98651676D01*
X116991912Y-98648069D01*
X117123266Y-98522982D01*
X117223643Y-98371902D01*
X117266283Y-98259653D01*
X117285555Y-98208920D01*
X117285556Y-98208918D01*
X117288055Y-98202338D01*
X117290191Y-98187140D01*
X117312748Y-98026639D01*
X117312748Y-98026636D01*
X117313299Y-98022717D01*
X117313616Y-98000000D01*
X117293397Y-97819745D01*
X117291080Y-97813091D01*
X117236064Y-97655106D01*
X117236062Y-97655103D01*
X117233745Y-97648448D01*
X117182826Y-97566960D01*
X117163691Y-97498594D01*
X117184732Y-97430468D01*
X117223643Y-97371902D01*
X117265423Y-97261917D01*
X117285555Y-97208920D01*
X117285556Y-97208918D01*
X117288055Y-97202338D01*
X117289035Y-97195366D01*
X117312748Y-97026639D01*
X117312748Y-97026636D01*
X117313299Y-97022717D01*
X117313616Y-97000000D01*
X117293397Y-96819745D01*
X117290088Y-96810243D01*
X117282565Y-96788640D01*
X121586463Y-96788640D01*
X121604163Y-96969160D01*
X121661418Y-97141273D01*
X121665065Y-97147295D01*
X121665066Y-97147297D01*
X121732066Y-97257927D01*
X121755380Y-97296424D01*
X121881382Y-97426902D01*
X121887278Y-97430760D01*
X121931431Y-97459653D01*
X121977479Y-97513690D01*
X121986512Y-97574598D01*
X121987445Y-97574611D01*
X121987365Y-97580348D01*
X121987444Y-97580879D01*
X121986463Y-97588640D01*
X122004163Y-97769160D01*
X122061418Y-97941273D01*
X122065065Y-97947295D01*
X122065066Y-97947297D01*
X122108344Y-98018757D01*
X122155380Y-98096424D01*
X122160269Y-98101487D01*
X122160270Y-98101488D01*
X122218852Y-98162151D01*
X122281382Y-98226902D01*
X122287278Y-98230760D01*
X122331431Y-98259653D01*
X122377479Y-98313690D01*
X122386512Y-98374598D01*
X122387445Y-98374611D01*
X122387365Y-98380348D01*
X122387444Y-98380879D01*
X122386463Y-98388640D01*
X122404163Y-98569160D01*
X122461418Y-98741273D01*
X122465065Y-98747295D01*
X122465066Y-98747297D01*
X122513181Y-98826744D01*
X122555380Y-98896424D01*
X122681382Y-99026902D01*
X122833159Y-99126222D01*
X122839763Y-99128678D01*
X122839765Y-99128679D01*
X122996558Y-99186990D01*
X122996560Y-99186990D01*
X123003168Y-99189448D01*
X123082250Y-99200000D01*
X123175980Y-99212507D01*
X123175984Y-99212507D01*
X123182961Y-99213438D01*
X123189972Y-99212800D01*
X123189976Y-99212800D01*
X123332459Y-99199832D01*
X123363600Y-99196998D01*
X123370302Y-99194820D01*
X123370304Y-99194820D01*
X123529409Y-99143124D01*
X123529412Y-99143123D01*
X123536108Y-99140947D01*
X123691912Y-99048069D01*
X123823266Y-98922982D01*
X123923643Y-98771902D01*
X123976669Y-98632312D01*
X123985555Y-98608920D01*
X123985556Y-98608918D01*
X123988055Y-98602338D01*
X123989035Y-98595366D01*
X124012748Y-98426639D01*
X124012748Y-98426636D01*
X124013299Y-98422717D01*
X124013616Y-98400000D01*
X123993397Y-98219745D01*
X123990088Y-98210243D01*
X123936064Y-98055106D01*
X123936062Y-98055103D01*
X123933745Y-98048448D01*
X123837626Y-97894624D01*
X123832664Y-97889627D01*
X123714778Y-97770915D01*
X123714774Y-97770912D01*
X123709815Y-97765918D01*
X123670972Y-97741267D01*
X123624174Y-97687880D01*
X123612908Y-97625498D01*
X123613299Y-97622717D01*
X123613616Y-97600000D01*
X123612342Y-97588640D01*
X127286463Y-97588640D01*
X127304163Y-97769160D01*
X127361418Y-97941273D01*
X127365065Y-97947295D01*
X127365066Y-97947297D01*
X127408344Y-98018757D01*
X127455380Y-98096424D01*
X127460269Y-98101487D01*
X127460270Y-98101488D01*
X127518852Y-98162151D01*
X127581382Y-98226902D01*
X127587278Y-98230760D01*
X127631431Y-98259653D01*
X127677479Y-98313690D01*
X127686512Y-98374598D01*
X127687445Y-98374611D01*
X127687365Y-98380348D01*
X127687444Y-98380879D01*
X127686463Y-98388640D01*
X127704163Y-98569160D01*
X127761418Y-98741273D01*
X127765065Y-98747295D01*
X127765066Y-98747297D01*
X127813181Y-98826744D01*
X127855380Y-98896424D01*
X127981382Y-99026902D01*
X128133159Y-99126222D01*
X128139763Y-99128678D01*
X128139765Y-99128679D01*
X128296558Y-99186990D01*
X128296560Y-99186990D01*
X128303168Y-99189448D01*
X128382250Y-99200000D01*
X128389984Y-99201032D01*
X128454861Y-99229868D01*
X128493849Y-99289201D01*
X128498718Y-99313629D01*
X128504163Y-99369160D01*
X128561418Y-99541273D01*
X128565065Y-99547295D01*
X128565066Y-99547297D01*
X128615613Y-99630760D01*
X128655380Y-99696424D01*
X128660269Y-99701487D01*
X128660270Y-99701488D01*
X128713549Y-99756659D01*
X128781382Y-99826902D01*
X128933159Y-99926222D01*
X128939763Y-99928678D01*
X128939765Y-99928679D01*
X129096558Y-99986990D01*
X129096560Y-99986990D01*
X129103168Y-99989448D01*
X129186995Y-100000633D01*
X129275980Y-100012507D01*
X129275984Y-100012507D01*
X129282961Y-100013438D01*
X129289972Y-100012800D01*
X129289976Y-100012800D01*
X129432459Y-99999832D01*
X129463600Y-99996998D01*
X129470302Y-99994820D01*
X129470304Y-99994820D01*
X129629409Y-99943124D01*
X129629412Y-99943123D01*
X129636108Y-99940947D01*
X129791912Y-99848069D01*
X129923266Y-99722982D01*
X130023643Y-99571902D01*
X130088055Y-99402338D01*
X130089035Y-99395366D01*
X130112748Y-99226639D01*
X130112748Y-99226636D01*
X130113299Y-99222717D01*
X130113616Y-99200000D01*
X130093397Y-99019745D01*
X130033745Y-98848448D01*
X129958906Y-98728679D01*
X129941359Y-98700598D01*
X129937626Y-98694624D01*
X129894978Y-98651677D01*
X129814778Y-98570915D01*
X129814774Y-98570912D01*
X129809815Y-98565918D01*
X129769574Y-98540380D01*
X129708289Y-98501488D01*
X129656666Y-98468727D01*
X129627463Y-98458328D01*
X129492425Y-98410243D01*
X129492420Y-98410242D01*
X129485790Y-98407881D01*
X129478802Y-98407048D01*
X129478799Y-98407047D01*
X129440091Y-98402432D01*
X129411342Y-98399004D01*
X129346069Y-98371077D01*
X129306256Y-98312294D01*
X129301046Y-98287936D01*
X129294182Y-98226743D01*
X129293397Y-98219745D01*
X129290088Y-98210243D01*
X129236064Y-98055106D01*
X129236062Y-98055103D01*
X129233745Y-98048448D01*
X129137626Y-97894624D01*
X129132664Y-97889627D01*
X129014778Y-97770915D01*
X129014774Y-97770912D01*
X129009815Y-97765918D01*
X128970972Y-97741267D01*
X128968669Y-97738640D01*
X132686463Y-97738640D01*
X132704163Y-97919160D01*
X132761418Y-98091273D01*
X132765065Y-98097295D01*
X132765066Y-98097297D01*
X132845894Y-98230760D01*
X132855380Y-98246424D01*
X132860269Y-98251487D01*
X132860270Y-98251488D01*
X132876918Y-98268727D01*
X132981382Y-98376902D01*
X133133159Y-98476222D01*
X133139763Y-98478678D01*
X133139765Y-98478679D01*
X133296558Y-98536990D01*
X133296560Y-98536990D01*
X133303168Y-98539448D01*
X133386995Y-98550633D01*
X133475980Y-98562507D01*
X133475984Y-98562507D01*
X133482961Y-98563438D01*
X133489972Y-98562800D01*
X133489976Y-98562800D01*
X133632459Y-98549832D01*
X133663600Y-98546998D01*
X133670302Y-98544820D01*
X133670304Y-98544820D01*
X133829409Y-98493124D01*
X133829412Y-98493123D01*
X133836108Y-98490947D01*
X133932513Y-98433478D01*
X133985860Y-98401677D01*
X133985862Y-98401676D01*
X133991912Y-98398069D01*
X134123266Y-98272982D01*
X134223643Y-98121902D01*
X134288055Y-97952338D01*
X134290549Y-97934590D01*
X134312748Y-97776639D01*
X134312748Y-97776636D01*
X134313299Y-97772717D01*
X134313616Y-97750000D01*
X134293397Y-97569745D01*
X134289546Y-97558685D01*
X134255059Y-97459653D01*
X134233745Y-97398448D01*
X134230013Y-97392476D01*
X134230009Y-97392467D01*
X134229958Y-97392386D01*
X134229941Y-97392326D01*
X134226967Y-97386118D01*
X134228058Y-97385595D01*
X134210827Y-97324016D01*
X134223775Y-97271952D01*
X134223643Y-97271902D01*
X134224060Y-97270804D01*
X134230023Y-97255106D01*
X134285555Y-97108920D01*
X134285556Y-97108918D01*
X134288055Y-97102338D01*
X134289551Y-97091693D01*
X134312748Y-96926639D01*
X134312748Y-96926636D01*
X134313299Y-96922717D01*
X134313616Y-96900000D01*
X134293397Y-96719745D01*
X134290733Y-96712094D01*
X134236064Y-96555106D01*
X134236062Y-96555103D01*
X134233745Y-96548448D01*
X134223647Y-96532288D01*
X134141359Y-96400598D01*
X134137626Y-96394624D01*
X134109120Y-96365918D01*
X134088831Y-96345487D01*
X136141500Y-96345487D01*
X136142872Y-96351939D01*
X136142872Y-96351944D01*
X136150882Y-96389627D01*
X136181206Y-96532288D01*
X136183891Y-96538318D01*
X136183891Y-96538319D01*
X136232924Y-96648448D01*
X136258882Y-96706752D01*
X136262762Y-96712093D01*
X136262763Y-96712094D01*
X136265365Y-96715675D01*
X136371134Y-96861253D01*
X136376044Y-96865674D01*
X136376045Y-96865675D01*
X136485019Y-96963795D01*
X136513056Y-96989040D01*
X136571386Y-97022717D01*
X136663405Y-97075844D01*
X136678444Y-97084527D01*
X136860072Y-97143542D01*
X136866633Y-97144232D01*
X136866635Y-97144232D01*
X136919889Y-97149829D01*
X137002390Y-97158500D01*
X137597610Y-97158500D01*
X137680111Y-97149829D01*
X137733365Y-97144232D01*
X137733367Y-97144232D01*
X137739928Y-97143542D01*
X137921556Y-97084527D01*
X137936596Y-97075844D01*
X138028614Y-97022717D01*
X138086944Y-96989040D01*
X138114982Y-96963795D01*
X138223955Y-96865675D01*
X138223956Y-96865674D01*
X138228866Y-96861253D01*
X138334635Y-96715675D01*
X138337237Y-96712094D01*
X138337238Y-96712093D01*
X138341118Y-96706752D01*
X138367077Y-96648448D01*
X138416109Y-96538319D01*
X138416109Y-96538318D01*
X138418794Y-96532288D01*
X138449118Y-96389627D01*
X138457128Y-96351944D01*
X138457128Y-96351939D01*
X138458500Y-96345487D01*
X138458500Y-96154513D01*
X138448536Y-96107633D01*
X138427332Y-96007881D01*
X138418794Y-95967712D01*
X138341118Y-95793248D01*
X138272687Y-95699061D01*
X138248828Y-95632193D01*
X138264909Y-95563042D01*
X138272687Y-95550939D01*
X138337237Y-95462094D01*
X138337238Y-95462093D01*
X138341118Y-95456752D01*
X138418794Y-95282288D01*
X138447815Y-95145757D01*
X138457128Y-95101944D01*
X138457128Y-95101939D01*
X138458500Y-95095487D01*
X138458500Y-94904513D01*
X138418794Y-94717712D01*
X138341118Y-94543248D01*
X138272687Y-94449061D01*
X138248828Y-94382193D01*
X138264909Y-94313042D01*
X138272687Y-94300939D01*
X138337237Y-94212094D01*
X138337238Y-94212093D01*
X138341118Y-94206752D01*
X138418794Y-94032288D01*
X138438647Y-93938887D01*
X138457128Y-93851944D01*
X138457128Y-93851939D01*
X138458500Y-93845487D01*
X138458500Y-93654513D01*
X138453452Y-93630760D01*
X138431575Y-93527841D01*
X138418794Y-93467712D01*
X138394346Y-93412800D01*
X138343803Y-93299278D01*
X138343802Y-93299276D01*
X138341118Y-93293248D01*
X138323755Y-93269350D01*
X138299897Y-93202482D01*
X138317915Y-93130018D01*
X138355253Y-93068365D01*
X138400472Y-92993699D01*
X138406593Y-92974169D01*
X138449752Y-92836446D01*
X138451753Y-92830062D01*
X138458500Y-92756635D01*
X138458499Y-92243366D01*
X138458234Y-92240474D01*
X138454298Y-92197637D01*
X138451753Y-92169938D01*
X138430445Y-92101944D01*
X138402744Y-92013550D01*
X138402743Y-92013548D01*
X138400472Y-92006301D01*
X138311639Y-91859619D01*
X138190381Y-91738361D01*
X138043699Y-91649528D01*
X138036452Y-91647257D01*
X138036450Y-91647256D01*
X137970164Y-91626483D01*
X137880062Y-91598247D01*
X137806635Y-91591500D01*
X137803737Y-91591500D01*
X137298686Y-91591501D01*
X136793366Y-91591501D01*
X136790508Y-91591764D01*
X136790499Y-91591764D01*
X136754996Y-91595026D01*
X136719938Y-91598247D01*
X136713560Y-91600246D01*
X136713559Y-91600246D01*
X136563550Y-91647256D01*
X136563548Y-91647257D01*
X136556301Y-91649528D01*
X136409619Y-91738361D01*
X136288361Y-91859619D01*
X136199528Y-92006301D01*
X136197257Y-92013548D01*
X136197256Y-92013550D01*
X136185308Y-92051677D01*
X136148247Y-92169938D01*
X136141500Y-92243365D01*
X136141501Y-92756634D01*
X136141764Y-92759492D01*
X136141764Y-92759501D01*
X136144290Y-92786990D01*
X136148247Y-92830062D01*
X136150246Y-92836440D01*
X136150246Y-92836441D01*
X136193408Y-92974169D01*
X136199528Y-92993699D01*
X136244747Y-93068365D01*
X136282085Y-93130018D01*
X136300264Y-93198648D01*
X136276245Y-93269350D01*
X136258882Y-93293248D01*
X136256198Y-93299276D01*
X136256197Y-93299278D01*
X136205654Y-93412800D01*
X136181206Y-93467712D01*
X136168425Y-93527841D01*
X136146549Y-93630760D01*
X136141500Y-93654513D01*
X136141500Y-93845487D01*
X136142872Y-93851939D01*
X136142872Y-93851944D01*
X136161353Y-93938888D01*
X136181206Y-94032288D01*
X136258882Y-94206752D01*
X136262762Y-94212093D01*
X136262763Y-94212094D01*
X136327313Y-94300939D01*
X136351172Y-94367807D01*
X136335091Y-94436958D01*
X136327313Y-94449061D01*
X136258882Y-94543248D01*
X136181206Y-94717712D01*
X136141500Y-94904513D01*
X136141500Y-95095487D01*
X136142872Y-95101939D01*
X136142872Y-95101944D01*
X136152185Y-95145757D01*
X136181206Y-95282288D01*
X136258882Y-95456752D01*
X136262762Y-95462093D01*
X136262763Y-95462094D01*
X136327313Y-95550939D01*
X136351172Y-95617807D01*
X136335091Y-95686958D01*
X136327313Y-95699061D01*
X136258882Y-95793248D01*
X136181206Y-95967712D01*
X136172668Y-96007881D01*
X136151465Y-96107633D01*
X136141500Y-96154513D01*
X136141500Y-96345487D01*
X134088831Y-96345487D01*
X134014778Y-96270915D01*
X134014774Y-96270912D01*
X134009815Y-96265918D01*
X134002928Y-96261547D01*
X133913237Y-96204628D01*
X133856666Y-96168727D01*
X133798615Y-96148056D01*
X133692425Y-96110243D01*
X133692420Y-96110242D01*
X133685790Y-96107881D01*
X133678802Y-96107048D01*
X133678799Y-96107047D01*
X133555698Y-96092368D01*
X133505680Y-96086404D01*
X133498677Y-96087140D01*
X133498676Y-96087140D01*
X133332288Y-96104628D01*
X133332286Y-96104629D01*
X133325288Y-96105364D01*
X133153579Y-96163818D01*
X133147575Y-96167512D01*
X133005095Y-96255166D01*
X133005092Y-96255168D01*
X132999088Y-96258862D01*
X132994053Y-96263793D01*
X132994050Y-96263795D01*
X132893621Y-96362143D01*
X132869493Y-96385771D01*
X132805048Y-96485771D01*
X132775070Y-96532288D01*
X132771235Y-96538238D01*
X132768826Y-96544858D01*
X132768824Y-96544861D01*
X132728698Y-96655106D01*
X132709197Y-96708685D01*
X132686463Y-96888640D01*
X132704163Y-97069160D01*
X132761418Y-97241273D01*
X132765065Y-97247295D01*
X132765066Y-97247297D01*
X132771504Y-97257927D01*
X132789683Y-97326556D01*
X132776587Y-97379224D01*
X132775054Y-97382313D01*
X132771235Y-97388238D01*
X132768826Y-97394858D01*
X132768824Y-97394861D01*
X132729281Y-97503505D01*
X132709197Y-97558685D01*
X132686463Y-97738640D01*
X128968669Y-97738640D01*
X128924174Y-97687880D01*
X128912908Y-97625498D01*
X128913299Y-97622717D01*
X128913616Y-97600000D01*
X128893397Y-97419745D01*
X128891080Y-97413091D01*
X128836064Y-97255106D01*
X128836062Y-97255103D01*
X128833745Y-97248448D01*
X128737626Y-97094624D01*
X128670114Y-97026639D01*
X128614778Y-96970915D01*
X128614774Y-96970912D01*
X128609815Y-96965918D01*
X128598697Y-96958862D01*
X128535501Y-96918757D01*
X128456666Y-96868727D01*
X128420666Y-96855908D01*
X128292425Y-96810243D01*
X128292420Y-96810242D01*
X128285790Y-96807881D01*
X128278802Y-96807048D01*
X128278799Y-96807047D01*
X128124431Y-96788640D01*
X128105680Y-96786404D01*
X128098677Y-96787140D01*
X128098676Y-96787140D01*
X127932288Y-96804628D01*
X127932286Y-96804629D01*
X127925288Y-96805364D01*
X127753579Y-96863818D01*
X127747575Y-96867512D01*
X127605095Y-96955166D01*
X127605092Y-96955168D01*
X127599088Y-96958862D01*
X127594053Y-96963793D01*
X127594050Y-96963795D01*
X127479630Y-97075844D01*
X127469493Y-97085771D01*
X127371235Y-97238238D01*
X127368826Y-97244858D01*
X127368824Y-97244861D01*
X127312923Y-97398448D01*
X127309197Y-97408685D01*
X127286463Y-97588640D01*
X123612342Y-97588640D01*
X123593397Y-97419745D01*
X123591080Y-97413091D01*
X123536064Y-97255106D01*
X123536062Y-97255103D01*
X123533745Y-97248448D01*
X123437626Y-97094624D01*
X123370114Y-97026639D01*
X123314778Y-96970915D01*
X123314774Y-96970912D01*
X123309815Y-96965918D01*
X123270972Y-96941267D01*
X123224174Y-96887880D01*
X123212908Y-96825498D01*
X123213299Y-96822717D01*
X123213506Y-96807881D01*
X123213561Y-96803962D01*
X123213561Y-96803957D01*
X123213616Y-96800000D01*
X123193397Y-96619745D01*
X123191080Y-96613091D01*
X123136064Y-96455106D01*
X123136062Y-96455103D01*
X123133745Y-96448448D01*
X123091501Y-96380843D01*
X123041359Y-96300598D01*
X123037626Y-96294624D01*
X123009120Y-96265918D01*
X122914778Y-96170915D01*
X122914774Y-96170912D01*
X122909815Y-96165918D01*
X122902928Y-96161547D01*
X122813237Y-96104628D01*
X122756666Y-96068727D01*
X122727463Y-96058328D01*
X122592425Y-96010243D01*
X122592420Y-96010242D01*
X122585790Y-96007881D01*
X122578802Y-96007048D01*
X122578799Y-96007047D01*
X122455698Y-95992368D01*
X122405680Y-95986404D01*
X122398677Y-95987140D01*
X122398676Y-95987140D01*
X122232288Y-96004628D01*
X122232286Y-96004629D01*
X122225288Y-96005364D01*
X122053579Y-96063818D01*
X122047575Y-96067512D01*
X121905095Y-96155166D01*
X121905092Y-96155168D01*
X121899088Y-96158862D01*
X121894053Y-96163793D01*
X121894050Y-96163795D01*
X121774525Y-96280843D01*
X121769493Y-96285771D01*
X121671235Y-96438238D01*
X121668826Y-96444858D01*
X121668824Y-96444861D01*
X121628698Y-96555106D01*
X121609197Y-96608685D01*
X121586463Y-96788640D01*
X117282565Y-96788640D01*
X117236064Y-96655106D01*
X117236062Y-96655103D01*
X117233745Y-96648448D01*
X117137626Y-96494624D01*
X117098383Y-96455106D01*
X117014778Y-96370915D01*
X117014774Y-96370912D01*
X117009815Y-96365918D01*
X116998697Y-96358862D01*
X116950538Y-96328300D01*
X116856666Y-96268727D01*
X116818582Y-96255166D01*
X116692425Y-96210243D01*
X116692420Y-96210242D01*
X116685790Y-96207881D01*
X116678802Y-96207048D01*
X116678799Y-96207047D01*
X116555698Y-96192368D01*
X116505680Y-96186404D01*
X116498677Y-96187140D01*
X116498676Y-96187140D01*
X116332288Y-96204628D01*
X116332286Y-96204629D01*
X116325288Y-96205364D01*
X116153579Y-96263818D01*
X116117895Y-96285771D01*
X116005095Y-96355166D01*
X116005092Y-96355168D01*
X115999088Y-96358862D01*
X115994053Y-96363793D01*
X115994050Y-96363795D01*
X115907606Y-96448448D01*
X115869493Y-96485771D01*
X115771235Y-96638238D01*
X115768826Y-96644858D01*
X115768824Y-96644861D01*
X115739021Y-96726744D01*
X115709197Y-96808685D01*
X115686463Y-96988640D01*
X115704163Y-97169160D01*
X115761418Y-97341273D01*
X115815435Y-97430465D01*
X115818106Y-97434876D01*
X115836285Y-97503505D01*
X115816243Y-97568399D01*
X115771235Y-97638238D01*
X115768826Y-97644858D01*
X115768824Y-97644861D01*
X115723583Y-97769160D01*
X115709197Y-97808685D01*
X115686463Y-97988640D01*
X110508500Y-97988640D01*
X110508500Y-94243365D01*
X111541500Y-94243365D01*
X111541501Y-94756634D01*
X111541764Y-94759492D01*
X111541764Y-94759501D01*
X111545026Y-94795004D01*
X111548247Y-94830062D01*
X111550246Y-94836440D01*
X111550246Y-94836441D01*
X111571579Y-94904513D01*
X111599528Y-94993699D01*
X111688361Y-95140381D01*
X111809619Y-95261639D01*
X111956301Y-95350472D01*
X111963548Y-95352743D01*
X111963550Y-95352744D01*
X112029836Y-95373517D01*
X112119938Y-95401753D01*
X112193365Y-95408500D01*
X112196263Y-95408500D01*
X112701314Y-95408499D01*
X113206634Y-95408499D01*
X113209492Y-95408236D01*
X113209501Y-95408236D01*
X113245004Y-95404974D01*
X113280062Y-95401753D01*
X113286447Y-95399752D01*
X113436450Y-95352744D01*
X113436452Y-95352743D01*
X113443699Y-95350472D01*
X113590381Y-95261639D01*
X113711639Y-95140381D01*
X113800472Y-94993699D01*
X113851753Y-94830062D01*
X113858500Y-94756635D01*
X113858499Y-94243366D01*
X113858234Y-94240474D01*
X113852364Y-94176592D01*
X113851753Y-94169938D01*
X113808616Y-94032288D01*
X113802744Y-94013550D01*
X113802743Y-94013548D01*
X113800472Y-94006301D01*
X113717915Y-93869982D01*
X113699736Y-93801352D01*
X113723755Y-93730650D01*
X113737237Y-93712094D01*
X113737238Y-93712092D01*
X113741118Y-93706752D01*
X113761437Y-93661116D01*
X113816109Y-93538319D01*
X113816109Y-93538318D01*
X113818794Y-93532288D01*
X113843740Y-93414926D01*
X113857128Y-93351944D01*
X113857128Y-93351939D01*
X113858500Y-93345487D01*
X113858500Y-93154513D01*
X113855497Y-93140381D01*
X113830481Y-93022695D01*
X113823242Y-92988640D01*
X119786463Y-92988640D01*
X119804163Y-93169160D01*
X119861418Y-93341273D01*
X119865065Y-93347295D01*
X119865066Y-93347297D01*
X119937992Y-93467712D01*
X119955380Y-93496424D01*
X120081382Y-93626902D01*
X120087278Y-93630760D01*
X120203406Y-93706752D01*
X120233159Y-93726222D01*
X120239763Y-93728678D01*
X120239765Y-93728679D01*
X120396558Y-93786990D01*
X120396560Y-93786990D01*
X120403168Y-93789448D01*
X120486995Y-93800633D01*
X120575980Y-93812507D01*
X120575984Y-93812507D01*
X120582961Y-93813438D01*
X120589972Y-93812800D01*
X120589976Y-93812800D01*
X120732459Y-93799832D01*
X120763600Y-93796998D01*
X120770302Y-93794820D01*
X120770304Y-93794820D01*
X120929409Y-93743124D01*
X120929412Y-93743123D01*
X120936108Y-93740947D01*
X121032513Y-93683478D01*
X121085860Y-93651677D01*
X121085862Y-93651676D01*
X121091912Y-93648069D01*
X121223266Y-93522982D01*
X121259553Y-93468365D01*
X121313910Y-93422695D01*
X121368879Y-93414926D01*
X121368933Y-93412359D01*
X121375982Y-93412507D01*
X121382961Y-93413438D01*
X121389972Y-93412800D01*
X121389976Y-93412800D01*
X121532459Y-93399832D01*
X121563600Y-93396998D01*
X121570302Y-93394820D01*
X121570304Y-93394820D01*
X121729409Y-93343124D01*
X121729412Y-93343123D01*
X121736108Y-93340947D01*
X121891912Y-93248069D01*
X122023266Y-93122982D01*
X122059553Y-93068365D01*
X122113910Y-93022695D01*
X122168879Y-93014926D01*
X122168933Y-93012359D01*
X122175982Y-93012507D01*
X122182961Y-93013438D01*
X122189972Y-93012800D01*
X122189976Y-93012800D01*
X122332459Y-92999832D01*
X122363600Y-92996998D01*
X122370302Y-92994820D01*
X122370304Y-92994820D01*
X122529409Y-92943124D01*
X122529412Y-92943123D01*
X122536108Y-92940947D01*
X122691912Y-92848069D01*
X122823266Y-92722982D01*
X122859553Y-92668365D01*
X122913910Y-92622695D01*
X122968879Y-92614926D01*
X122968933Y-92612359D01*
X122975982Y-92612507D01*
X122982961Y-92613438D01*
X122989972Y-92612800D01*
X122989976Y-92612800D01*
X123132459Y-92599832D01*
X123163600Y-92596998D01*
X123170302Y-92594820D01*
X123170304Y-92594820D01*
X123329409Y-92543124D01*
X123329412Y-92543123D01*
X123336108Y-92540947D01*
X123468385Y-92462094D01*
X123485860Y-92451677D01*
X123485862Y-92451676D01*
X123491912Y-92448069D01*
X123623266Y-92322982D01*
X123659553Y-92268365D01*
X123713910Y-92222695D01*
X123768879Y-92214926D01*
X123768933Y-92212359D01*
X123775982Y-92212507D01*
X123782961Y-92213438D01*
X123789972Y-92212800D01*
X123789976Y-92212800D01*
X123932459Y-92199832D01*
X123963600Y-92196998D01*
X123970302Y-92194820D01*
X123970304Y-92194820D01*
X124129409Y-92143124D01*
X124129412Y-92143123D01*
X124136108Y-92140947D01*
X124291912Y-92048069D01*
X124354318Y-91988640D01*
X128586463Y-91988640D01*
X128604163Y-92169160D01*
X128661418Y-92341273D01*
X128665065Y-92347295D01*
X128665066Y-92347297D01*
X128675978Y-92365314D01*
X128755380Y-92496424D01*
X128881382Y-92626902D01*
X128899483Y-92638747D01*
X128991653Y-92699061D01*
X129033159Y-92726222D01*
X129039763Y-92728678D01*
X129039765Y-92728679D01*
X129196558Y-92786990D01*
X129196560Y-92786990D01*
X129203168Y-92789448D01*
X129276839Y-92799278D01*
X129375980Y-92812507D01*
X129375984Y-92812507D01*
X129382961Y-92813438D01*
X129389972Y-92812800D01*
X129389976Y-92812800D01*
X129538548Y-92799278D01*
X129563600Y-92796998D01*
X129570302Y-92794820D01*
X129570304Y-92794820D01*
X129729409Y-92743124D01*
X129729412Y-92743123D01*
X129736108Y-92740947D01*
X129891912Y-92648069D01*
X130023266Y-92522982D01*
X130123643Y-92371902D01*
X130183273Y-92214926D01*
X130185555Y-92208920D01*
X130185556Y-92208918D01*
X130188055Y-92202338D01*
X130190191Y-92187140D01*
X130212748Y-92026639D01*
X130212748Y-92026636D01*
X130213299Y-92022717D01*
X130213616Y-92000000D01*
X130193397Y-91819745D01*
X130191080Y-91813091D01*
X130136064Y-91655106D01*
X130136062Y-91655103D01*
X130133745Y-91648448D01*
X130101994Y-91597635D01*
X130041359Y-91500598D01*
X130037626Y-91494624D01*
X130010703Y-91467512D01*
X129914778Y-91370915D01*
X129914774Y-91370912D01*
X129909815Y-91365918D01*
X129902465Y-91361253D01*
X129848335Y-91326902D01*
X129756666Y-91268727D01*
X129708784Y-91251677D01*
X129592425Y-91210243D01*
X129592420Y-91210242D01*
X129585790Y-91207881D01*
X129578802Y-91207048D01*
X129578799Y-91207047D01*
X129455698Y-91192368D01*
X129405680Y-91186404D01*
X129398677Y-91187140D01*
X129398676Y-91187140D01*
X129232288Y-91204628D01*
X129232286Y-91204629D01*
X129225288Y-91205364D01*
X129053579Y-91263818D01*
X128993240Y-91300939D01*
X128905095Y-91355166D01*
X128905092Y-91355168D01*
X128899088Y-91358862D01*
X128894053Y-91363793D01*
X128894050Y-91363795D01*
X128788138Y-91467512D01*
X128769493Y-91485771D01*
X128671235Y-91638238D01*
X128668826Y-91644858D01*
X128668824Y-91644861D01*
X128614243Y-91794820D01*
X128609197Y-91808685D01*
X128586463Y-91988640D01*
X124354318Y-91988640D01*
X124423266Y-91922982D01*
X124459553Y-91868365D01*
X124513910Y-91822695D01*
X124568879Y-91814926D01*
X124568933Y-91812359D01*
X124575982Y-91812507D01*
X124582961Y-91813438D01*
X124589972Y-91812800D01*
X124589976Y-91812800D01*
X124732459Y-91799832D01*
X124763600Y-91796998D01*
X124770302Y-91794820D01*
X124770304Y-91794820D01*
X124929409Y-91743124D01*
X124929412Y-91743123D01*
X124936108Y-91740947D01*
X125036935Y-91680842D01*
X125085860Y-91651677D01*
X125085862Y-91651676D01*
X125091912Y-91648069D01*
X125223266Y-91522982D01*
X125259553Y-91468365D01*
X125313910Y-91422695D01*
X125368879Y-91414926D01*
X125368933Y-91412359D01*
X125375982Y-91412507D01*
X125382961Y-91413438D01*
X125389972Y-91412800D01*
X125389976Y-91412800D01*
X125532459Y-91399832D01*
X125563600Y-91396998D01*
X125570302Y-91394820D01*
X125570304Y-91394820D01*
X125729409Y-91343124D01*
X125729412Y-91343123D01*
X125736108Y-91340947D01*
X125859296Y-91267512D01*
X125885860Y-91251677D01*
X125885862Y-91251676D01*
X125891912Y-91248069D01*
X126023266Y-91122982D01*
X126123643Y-90971902D01*
X126188055Y-90802338D01*
X126204034Y-90688640D01*
X132586463Y-90688640D01*
X132604163Y-90869160D01*
X132661418Y-91041273D01*
X132665065Y-91047295D01*
X132665066Y-91047297D01*
X132749817Y-91187238D01*
X132755380Y-91196424D01*
X132760269Y-91201487D01*
X132760270Y-91201488D01*
X132818269Y-91261547D01*
X132881382Y-91326902D01*
X132948641Y-91370915D01*
X133001285Y-91405364D01*
X133033159Y-91426222D01*
X133039763Y-91428678D01*
X133039765Y-91428679D01*
X133196558Y-91486990D01*
X133196560Y-91486990D01*
X133203168Y-91489448D01*
X133286732Y-91500598D01*
X133375980Y-91512507D01*
X133375984Y-91512507D01*
X133382961Y-91513438D01*
X133389972Y-91512800D01*
X133389976Y-91512800D01*
X133532459Y-91499832D01*
X133563600Y-91496998D01*
X133570302Y-91494820D01*
X133570304Y-91494820D01*
X133729409Y-91443124D01*
X133729412Y-91443123D01*
X133736108Y-91440947D01*
X133861970Y-91365918D01*
X133885860Y-91351677D01*
X133885862Y-91351676D01*
X133891912Y-91348069D01*
X134023266Y-91222982D01*
X134123643Y-91071902D01*
X134188055Y-90902338D01*
X134191076Y-90880842D01*
X134212748Y-90726639D01*
X134212748Y-90726636D01*
X134213299Y-90722717D01*
X134213616Y-90700000D01*
X134193397Y-90519745D01*
X134191080Y-90513091D01*
X134136064Y-90355106D01*
X134136062Y-90355103D01*
X134133745Y-90348448D01*
X134082826Y-90266960D01*
X134063691Y-90198594D01*
X134084732Y-90130468D01*
X134123643Y-90071902D01*
X134145115Y-90015379D01*
X134163982Y-89965711D01*
X134206871Y-89909133D01*
X134273540Y-89884724D01*
X134342822Y-89900234D01*
X134350762Y-89905022D01*
X134383159Y-89926222D01*
X134389763Y-89928678D01*
X134389765Y-89928679D01*
X134546558Y-89986990D01*
X134546560Y-89986990D01*
X134553168Y-89989448D01*
X134636995Y-90000633D01*
X134725980Y-90012507D01*
X134725984Y-90012507D01*
X134732961Y-90013438D01*
X134739972Y-90012800D01*
X134739976Y-90012800D01*
X134882459Y-89999832D01*
X134913600Y-89996998D01*
X134920302Y-89994820D01*
X134920304Y-89994820D01*
X135079409Y-89943124D01*
X135079412Y-89943123D01*
X135086108Y-89940947D01*
X135209296Y-89867512D01*
X135235860Y-89851677D01*
X135235862Y-89851676D01*
X135241912Y-89848069D01*
X135373266Y-89722982D01*
X135473643Y-89571902D01*
X135538055Y-89402338D01*
X135547064Y-89338238D01*
X135562748Y-89226639D01*
X135562748Y-89226636D01*
X135563299Y-89222717D01*
X135563616Y-89200000D01*
X135543397Y-89019745D01*
X135541080Y-89013091D01*
X135486064Y-88855106D01*
X135486062Y-88855103D01*
X135483745Y-88848448D01*
X135408906Y-88728679D01*
X135391359Y-88700598D01*
X135387626Y-88694624D01*
X135378835Y-88685771D01*
X135264778Y-88570915D01*
X135264774Y-88570912D01*
X135259815Y-88565918D01*
X135248697Y-88558862D01*
X135158289Y-88501488D01*
X135106666Y-88468727D01*
X135077463Y-88458328D01*
X134942425Y-88410243D01*
X134942420Y-88410242D01*
X134935790Y-88407881D01*
X134928802Y-88407048D01*
X134928799Y-88407047D01*
X134798433Y-88391502D01*
X134755680Y-88386404D01*
X134748677Y-88387140D01*
X134748676Y-88387140D01*
X134582288Y-88404628D01*
X134582286Y-88404629D01*
X134575288Y-88405364D01*
X134403579Y-88463818D01*
X134397575Y-88467512D01*
X134255095Y-88555166D01*
X134255092Y-88555168D01*
X134249088Y-88558862D01*
X134244053Y-88563793D01*
X134244050Y-88563795D01*
X134141849Y-88663878D01*
X134119493Y-88685771D01*
X134021235Y-88838238D01*
X134018826Y-88844858D01*
X134018824Y-88844861D01*
X133986607Y-88933377D01*
X133944513Y-88990548D01*
X133878191Y-89015886D01*
X133808700Y-89001345D01*
X133800710Y-88996678D01*
X133756666Y-88968727D01*
X133727463Y-88958328D01*
X133592425Y-88910243D01*
X133592420Y-88910242D01*
X133585790Y-88907881D01*
X133578802Y-88907048D01*
X133578799Y-88907047D01*
X133455698Y-88892368D01*
X133405680Y-88886404D01*
X133398677Y-88887140D01*
X133398676Y-88887140D01*
X133232288Y-88904628D01*
X133232286Y-88904629D01*
X133225288Y-88905364D01*
X133053579Y-88963818D01*
X133047575Y-88967512D01*
X132905095Y-89055166D01*
X132905092Y-89055168D01*
X132899088Y-89058862D01*
X132894053Y-89063793D01*
X132894050Y-89063795D01*
X132774525Y-89180843D01*
X132769493Y-89185771D01*
X132671235Y-89338238D01*
X132668826Y-89344858D01*
X132668824Y-89344861D01*
X132611606Y-89502066D01*
X132609197Y-89508685D01*
X132586463Y-89688640D01*
X132604163Y-89869160D01*
X132661418Y-90041273D01*
X132715868Y-90131180D01*
X132718106Y-90134876D01*
X132736285Y-90203505D01*
X132716243Y-90268399D01*
X132671235Y-90338238D01*
X132668826Y-90344858D01*
X132668824Y-90344861D01*
X132639021Y-90426744D01*
X132609197Y-90508685D01*
X132586463Y-90688640D01*
X126204034Y-90688640D01*
X126205017Y-90681646D01*
X126212748Y-90626639D01*
X126212748Y-90626636D01*
X126213299Y-90622717D01*
X126213452Y-90611738D01*
X126213561Y-90603962D01*
X126213561Y-90603957D01*
X126213616Y-90600000D01*
X126193397Y-90419745D01*
X126173913Y-90363795D01*
X126136064Y-90255106D01*
X126136062Y-90255103D01*
X126133745Y-90248448D01*
X126106823Y-90205364D01*
X126041359Y-90100598D01*
X126037626Y-90094624D01*
X126023940Y-90080842D01*
X125914778Y-89970915D01*
X125914774Y-89970912D01*
X125909815Y-89965918D01*
X125898697Y-89958862D01*
X125813858Y-89905022D01*
X125756666Y-89868727D01*
X125708784Y-89851677D01*
X125592425Y-89810243D01*
X125592420Y-89810242D01*
X125585790Y-89807881D01*
X125578802Y-89807048D01*
X125578799Y-89807047D01*
X125455698Y-89792368D01*
X125405680Y-89786404D01*
X125398677Y-89787140D01*
X125398676Y-89787140D01*
X125232288Y-89804628D01*
X125232286Y-89804629D01*
X125225288Y-89805364D01*
X125053579Y-89863818D01*
X125047575Y-89867512D01*
X124905095Y-89955166D01*
X124905092Y-89955168D01*
X124899088Y-89958862D01*
X124894053Y-89963793D01*
X124894050Y-89963795D01*
X124777665Y-90077768D01*
X124769493Y-90085771D01*
X124765679Y-90091689D01*
X124765675Y-90091694D01*
X124740229Y-90131180D01*
X124686515Y-90177605D01*
X124619396Y-90188039D01*
X124612678Y-90187238D01*
X124612674Y-90187238D01*
X124605680Y-90186404D01*
X124598677Y-90187140D01*
X124598676Y-90187140D01*
X124432288Y-90204628D01*
X124432286Y-90204629D01*
X124425288Y-90205364D01*
X124253579Y-90263818D01*
X124195940Y-90299278D01*
X124105095Y-90355166D01*
X124105092Y-90355168D01*
X124099088Y-90358862D01*
X124094053Y-90363793D01*
X124094050Y-90363795D01*
X123974526Y-90480842D01*
X123969493Y-90485771D01*
X123965679Y-90491689D01*
X123965675Y-90491694D01*
X123940229Y-90531180D01*
X123886515Y-90577605D01*
X123819396Y-90588039D01*
X123812678Y-90587238D01*
X123812674Y-90587238D01*
X123805680Y-90586404D01*
X123798677Y-90587140D01*
X123798676Y-90587140D01*
X123632288Y-90604628D01*
X123632286Y-90604629D01*
X123625288Y-90605364D01*
X123453579Y-90663818D01*
X123447575Y-90667512D01*
X123305095Y-90755166D01*
X123305092Y-90755168D01*
X123299088Y-90758862D01*
X123294053Y-90763793D01*
X123294050Y-90763795D01*
X123179630Y-90875844D01*
X123169493Y-90885771D01*
X123165679Y-90891689D01*
X123165675Y-90891694D01*
X123140229Y-90931180D01*
X123086515Y-90977605D01*
X123019396Y-90988039D01*
X123012678Y-90987238D01*
X123012674Y-90987238D01*
X123005680Y-90986404D01*
X122998677Y-90987140D01*
X122998676Y-90987140D01*
X122832288Y-91004628D01*
X122832286Y-91004629D01*
X122825288Y-91005364D01*
X122653579Y-91063818D01*
X122647575Y-91067512D01*
X122505095Y-91155166D01*
X122505092Y-91155168D01*
X122499088Y-91158862D01*
X122494053Y-91163793D01*
X122494050Y-91163795D01*
X122374526Y-91280842D01*
X122369493Y-91285771D01*
X122365679Y-91291689D01*
X122365675Y-91291694D01*
X122340229Y-91331180D01*
X122286515Y-91377605D01*
X122219396Y-91388039D01*
X122212678Y-91387238D01*
X122212674Y-91387238D01*
X122205680Y-91386404D01*
X122198677Y-91387140D01*
X122198676Y-91387140D01*
X122032288Y-91404628D01*
X122032286Y-91404629D01*
X122025288Y-91405364D01*
X121853579Y-91463818D01*
X121817895Y-91485771D01*
X121705095Y-91555166D01*
X121705092Y-91555168D01*
X121699088Y-91558862D01*
X121694053Y-91563793D01*
X121694050Y-91563795D01*
X121600807Y-91655106D01*
X121569493Y-91685771D01*
X121565679Y-91691689D01*
X121565675Y-91691694D01*
X121540229Y-91731180D01*
X121486515Y-91777605D01*
X121419396Y-91788039D01*
X121412678Y-91787238D01*
X121412674Y-91787238D01*
X121405680Y-91786404D01*
X121398677Y-91787140D01*
X121398676Y-91787140D01*
X121232288Y-91804628D01*
X121232286Y-91804629D01*
X121225288Y-91805364D01*
X121053579Y-91863818D01*
X121047575Y-91867512D01*
X120905095Y-91955166D01*
X120905092Y-91955168D01*
X120899088Y-91958862D01*
X120894053Y-91963793D01*
X120894050Y-91963795D01*
X120774526Y-92080842D01*
X120769493Y-92085771D01*
X120765679Y-92091689D01*
X120765675Y-92091694D01*
X120740229Y-92131180D01*
X120686515Y-92177605D01*
X120619396Y-92188039D01*
X120612678Y-92187238D01*
X120612674Y-92187238D01*
X120605680Y-92186404D01*
X120598677Y-92187140D01*
X120598676Y-92187140D01*
X120432288Y-92204628D01*
X120432286Y-92204629D01*
X120425288Y-92205364D01*
X120253579Y-92263818D01*
X120191109Y-92302250D01*
X120105095Y-92355166D01*
X120105092Y-92355168D01*
X120099088Y-92358862D01*
X120094053Y-92363793D01*
X120094050Y-92363795D01*
X119999126Y-92456752D01*
X119969493Y-92485771D01*
X119871235Y-92638238D01*
X119868826Y-92644858D01*
X119868824Y-92644861D01*
X119814243Y-92794820D01*
X119809197Y-92808685D01*
X119786463Y-92988640D01*
X113823242Y-92988640D01*
X113818794Y-92967712D01*
X113741118Y-92793248D01*
X113716618Y-92759526D01*
X113672687Y-92699061D01*
X113648828Y-92632193D01*
X113664909Y-92563042D01*
X113672687Y-92550939D01*
X113737237Y-92462094D01*
X113737238Y-92462093D01*
X113741118Y-92456752D01*
X113778896Y-92371902D01*
X113816109Y-92288319D01*
X113816109Y-92288318D01*
X113818794Y-92282288D01*
X113841261Y-92176592D01*
X113857128Y-92101944D01*
X113857128Y-92101939D01*
X113858500Y-92095487D01*
X113858500Y-91904513D01*
X113850817Y-91868365D01*
X113835184Y-91794820D01*
X113818794Y-91717712D01*
X113804573Y-91685771D01*
X113743803Y-91549278D01*
X113743802Y-91549276D01*
X113741118Y-91543248D01*
X113705791Y-91494624D01*
X113672687Y-91449061D01*
X113648828Y-91382193D01*
X113664909Y-91313042D01*
X113672687Y-91300939D01*
X113737237Y-91212094D01*
X113737238Y-91212093D01*
X113741118Y-91206752D01*
X113745717Y-91196424D01*
X113816109Y-91038319D01*
X113816109Y-91038318D01*
X113818794Y-91032288D01*
X113847898Y-90895366D01*
X113857128Y-90851944D01*
X113857128Y-90851939D01*
X113858500Y-90845487D01*
X113858500Y-90654513D01*
X113852576Y-90626639D01*
X113838647Y-90561113D01*
X113818794Y-90467712D01*
X113794475Y-90413091D01*
X113743803Y-90299278D01*
X113743802Y-90299276D01*
X113741118Y-90293248D01*
X113628866Y-90138747D01*
X113586497Y-90100598D01*
X113491852Y-90015379D01*
X113491851Y-90015378D01*
X113486944Y-90010960D01*
X113359431Y-89937340D01*
X113327279Y-89918777D01*
X113327278Y-89918776D01*
X113321556Y-89915473D01*
X113139928Y-89856458D01*
X113133367Y-89855768D01*
X113133365Y-89855768D01*
X113080111Y-89850171D01*
X112997610Y-89841500D01*
X112402390Y-89841500D01*
X112319889Y-89850171D01*
X112266635Y-89855768D01*
X112266633Y-89855768D01*
X112260072Y-89856458D01*
X112078444Y-89915473D01*
X112072722Y-89918776D01*
X112072721Y-89918777D01*
X112040569Y-89937340D01*
X111913056Y-90010960D01*
X111908149Y-90015378D01*
X111908148Y-90015379D01*
X111813503Y-90100598D01*
X111771134Y-90138747D01*
X111658882Y-90293248D01*
X111656198Y-90299276D01*
X111656197Y-90299278D01*
X111605525Y-90413091D01*
X111581206Y-90467712D01*
X111561353Y-90561113D01*
X111547425Y-90626639D01*
X111541500Y-90654513D01*
X111541500Y-90845487D01*
X111542872Y-90851939D01*
X111542872Y-90851944D01*
X111552102Y-90895366D01*
X111581206Y-91032288D01*
X111583891Y-91038318D01*
X111583891Y-91038319D01*
X111654284Y-91196424D01*
X111658882Y-91206752D01*
X111662762Y-91212093D01*
X111662763Y-91212094D01*
X111727313Y-91300939D01*
X111751172Y-91367807D01*
X111735091Y-91436958D01*
X111727313Y-91449061D01*
X111694210Y-91494624D01*
X111658882Y-91543248D01*
X111656198Y-91549276D01*
X111656197Y-91549278D01*
X111595427Y-91685771D01*
X111581206Y-91717712D01*
X111564816Y-91794820D01*
X111549184Y-91868365D01*
X111541500Y-91904513D01*
X111541500Y-92095487D01*
X111542872Y-92101939D01*
X111542872Y-92101944D01*
X111558739Y-92176592D01*
X111581206Y-92282288D01*
X111583891Y-92288318D01*
X111583891Y-92288319D01*
X111621105Y-92371902D01*
X111658882Y-92456752D01*
X111662762Y-92462093D01*
X111662763Y-92462094D01*
X111727313Y-92550939D01*
X111751172Y-92617807D01*
X111735091Y-92686958D01*
X111727313Y-92699061D01*
X111683383Y-92759526D01*
X111658882Y-92793248D01*
X111581206Y-92967712D01*
X111569519Y-93022695D01*
X111544504Y-93140381D01*
X111541500Y-93154513D01*
X111541500Y-93345487D01*
X111542872Y-93351939D01*
X111542872Y-93351944D01*
X111556260Y-93414926D01*
X111581206Y-93532288D01*
X111583891Y-93538318D01*
X111583891Y-93538319D01*
X111638564Y-93661116D01*
X111658882Y-93706752D01*
X111662762Y-93712092D01*
X111662763Y-93712094D01*
X111676245Y-93730650D01*
X111700103Y-93797518D01*
X111682085Y-93869982D01*
X111599528Y-94006301D01*
X111597257Y-94013548D01*
X111597256Y-94013550D01*
X111591384Y-94032288D01*
X111548247Y-94169938D01*
X111541500Y-94243365D01*
X110508500Y-94243365D01*
X110508500Y-87988640D01*
X118386463Y-87988640D01*
X118404163Y-88169160D01*
X118461418Y-88341273D01*
X118465065Y-88347295D01*
X118465066Y-88347297D01*
X118502132Y-88408500D01*
X118555380Y-88496424D01*
X118560269Y-88501487D01*
X118560270Y-88501488D01*
X118620440Y-88563795D01*
X118681382Y-88626902D01*
X118833159Y-88726222D01*
X118839763Y-88728678D01*
X118839765Y-88728679D01*
X118996558Y-88786990D01*
X118996560Y-88786990D01*
X119003168Y-88789448D01*
X119086995Y-88800633D01*
X119175980Y-88812507D01*
X119175984Y-88812507D01*
X119182961Y-88813438D01*
X119189972Y-88812800D01*
X119189976Y-88812800D01*
X119332459Y-88799832D01*
X119363600Y-88796998D01*
X119370302Y-88794820D01*
X119370304Y-88794820D01*
X119529409Y-88743124D01*
X119529412Y-88743123D01*
X119536108Y-88740947D01*
X119635701Y-88681577D01*
X119704454Y-88663878D01*
X119769210Y-88684375D01*
X119794002Y-88700598D01*
X119833159Y-88726222D01*
X119839763Y-88728678D01*
X119839765Y-88728679D01*
X119996558Y-88786990D01*
X119996560Y-88786990D01*
X120003168Y-88789448D01*
X120086995Y-88800633D01*
X120175980Y-88812507D01*
X120175984Y-88812507D01*
X120182961Y-88813438D01*
X120189972Y-88812800D01*
X120189976Y-88812800D01*
X120332459Y-88799832D01*
X120363600Y-88796998D01*
X120370302Y-88794820D01*
X120370304Y-88794820D01*
X120529409Y-88743124D01*
X120529412Y-88743123D01*
X120536108Y-88740947D01*
X120691912Y-88648069D01*
X120823266Y-88522982D01*
X120923643Y-88371902D01*
X120988055Y-88202338D01*
X120989035Y-88195366D01*
X121012748Y-88026639D01*
X121012748Y-88026636D01*
X121013299Y-88022717D01*
X121013616Y-88000000D01*
X120993397Y-87819745D01*
X120991080Y-87813091D01*
X120936064Y-87655106D01*
X120936062Y-87655103D01*
X120933745Y-87648448D01*
X120837626Y-87494624D01*
X120721588Y-87377773D01*
X120714778Y-87370915D01*
X120714774Y-87370912D01*
X120709815Y-87365918D01*
X120698935Y-87359013D01*
X120650538Y-87328300D01*
X120556666Y-87268727D01*
X120527463Y-87258328D01*
X120392425Y-87210243D01*
X120392420Y-87210242D01*
X120385790Y-87207881D01*
X120378802Y-87207048D01*
X120378799Y-87207047D01*
X120255698Y-87192368D01*
X120205680Y-87186404D01*
X120198677Y-87187140D01*
X120198676Y-87187140D01*
X120032288Y-87204628D01*
X120032286Y-87204629D01*
X120025288Y-87205364D01*
X119853579Y-87263818D01*
X119765946Y-87317731D01*
X119697447Y-87336388D01*
X119632412Y-87316797D01*
X119562620Y-87272505D01*
X119562616Y-87272503D01*
X119556666Y-87268727D01*
X119527463Y-87258328D01*
X119392425Y-87210243D01*
X119392420Y-87210242D01*
X119385790Y-87207881D01*
X119378802Y-87207048D01*
X119378799Y-87207047D01*
X119255698Y-87192368D01*
X119205680Y-87186404D01*
X119198677Y-87187140D01*
X119198676Y-87187140D01*
X119032288Y-87204628D01*
X119032286Y-87204629D01*
X119025288Y-87205364D01*
X118853579Y-87263818D01*
X118847575Y-87267512D01*
X118705095Y-87355166D01*
X118705092Y-87355168D01*
X118699088Y-87358862D01*
X118694053Y-87363793D01*
X118694050Y-87363795D01*
X118645728Y-87411116D01*
X118569493Y-87485771D01*
X118471235Y-87638238D01*
X118468826Y-87644858D01*
X118468824Y-87644861D01*
X118414243Y-87794820D01*
X118409197Y-87808685D01*
X118386463Y-87988640D01*
X110508500Y-87988640D01*
X110508500Y-86988640D01*
X123186463Y-86988640D01*
X123204163Y-87169160D01*
X123261418Y-87341273D01*
X123265065Y-87347295D01*
X123265066Y-87347297D01*
X123351264Y-87489627D01*
X123355380Y-87496424D01*
X123481382Y-87626902D01*
X123633159Y-87726222D01*
X123639763Y-87728678D01*
X123639765Y-87728679D01*
X123796558Y-87786990D01*
X123796560Y-87786990D01*
X123803168Y-87789448D01*
X123886995Y-87800633D01*
X123975980Y-87812507D01*
X123975984Y-87812507D01*
X123982961Y-87813438D01*
X123989972Y-87812800D01*
X123989976Y-87812800D01*
X124132459Y-87799832D01*
X124163600Y-87796998D01*
X124170302Y-87794820D01*
X124170304Y-87794820D01*
X124329409Y-87743124D01*
X124329412Y-87743123D01*
X124336108Y-87740947D01*
X124432513Y-87683478D01*
X124485860Y-87651677D01*
X124485862Y-87651676D01*
X124491912Y-87648069D01*
X124547128Y-87595487D01*
X136141500Y-87595487D01*
X136142872Y-87601939D01*
X136142872Y-87601944D01*
X136154172Y-87655106D01*
X136181206Y-87782288D01*
X136183891Y-87788318D01*
X136183891Y-87788319D01*
X136192959Y-87808685D01*
X136258882Y-87956752D01*
X136262762Y-87962093D01*
X136262763Y-87962094D01*
X136290304Y-88000000D01*
X136371134Y-88111253D01*
X136376044Y-88115674D01*
X136376045Y-88115675D01*
X136442870Y-88175844D01*
X136513056Y-88239040D01*
X136678444Y-88334527D01*
X136860072Y-88393542D01*
X136866633Y-88394232D01*
X136866635Y-88394232D01*
X136919889Y-88399829D01*
X137002390Y-88408500D01*
X137597610Y-88408500D01*
X137680111Y-88399829D01*
X137733365Y-88394232D01*
X137733367Y-88394232D01*
X137739928Y-88393542D01*
X137921556Y-88334527D01*
X138086944Y-88239040D01*
X138157131Y-88175844D01*
X138223955Y-88115675D01*
X138223956Y-88115674D01*
X138228866Y-88111253D01*
X138309696Y-88000000D01*
X138337237Y-87962094D01*
X138337238Y-87962093D01*
X138341118Y-87956752D01*
X138407042Y-87808685D01*
X138416109Y-87788319D01*
X138416109Y-87788318D01*
X138418794Y-87782288D01*
X138445828Y-87655106D01*
X138457128Y-87601944D01*
X138457128Y-87601939D01*
X138458500Y-87595487D01*
X138458500Y-87404513D01*
X138452817Y-87377773D01*
X138430441Y-87272506D01*
X138418794Y-87217712D01*
X138414046Y-87207047D01*
X138343803Y-87049278D01*
X138343802Y-87049276D01*
X138341118Y-87043248D01*
X138309697Y-87000000D01*
X138272687Y-86949061D01*
X138248828Y-86882193D01*
X138264909Y-86813042D01*
X138272687Y-86800939D01*
X138337237Y-86712094D01*
X138337238Y-86712093D01*
X138341118Y-86706752D01*
X138418794Y-86532288D01*
X138447898Y-86395366D01*
X138457128Y-86351944D01*
X138457128Y-86351939D01*
X138458500Y-86345487D01*
X138458500Y-86154513D01*
X138418794Y-85967712D01*
X138416109Y-85961681D01*
X138343803Y-85799278D01*
X138343802Y-85799276D01*
X138341118Y-85793248D01*
X138272687Y-85699061D01*
X138248828Y-85632193D01*
X138264909Y-85563042D01*
X138272687Y-85550939D01*
X138337237Y-85462094D01*
X138337238Y-85462093D01*
X138341118Y-85456752D01*
X138356272Y-85422717D01*
X138416109Y-85288319D01*
X138416109Y-85288318D01*
X138418794Y-85282288D01*
X138452656Y-85122982D01*
X138457128Y-85101944D01*
X138457128Y-85101939D01*
X138458500Y-85095487D01*
X138458500Y-84904513D01*
X138454517Y-84885771D01*
X138432520Y-84782288D01*
X138418794Y-84717712D01*
X138410232Y-84698482D01*
X138343803Y-84549278D01*
X138343802Y-84549276D01*
X138341118Y-84543248D01*
X138272687Y-84449061D01*
X138248828Y-84382193D01*
X138264909Y-84313042D01*
X138272687Y-84300939D01*
X138337237Y-84212094D01*
X138337238Y-84212093D01*
X138341118Y-84206752D01*
X138359568Y-84165314D01*
X138416109Y-84038319D01*
X138416109Y-84038318D01*
X138418794Y-84032288D01*
X138447236Y-83898482D01*
X138457128Y-83851944D01*
X138457128Y-83851939D01*
X138458500Y-83845487D01*
X138458500Y-83654513D01*
X138452598Y-83626744D01*
X138432520Y-83532288D01*
X138418794Y-83467712D01*
X138416109Y-83461681D01*
X138343803Y-83299278D01*
X138343802Y-83299276D01*
X138341118Y-83293248D01*
X138323755Y-83269350D01*
X138299897Y-83202482D01*
X138317915Y-83130018D01*
X138355034Y-83068727D01*
X138400472Y-82993699D01*
X138406593Y-82974169D01*
X138449752Y-82836446D01*
X138451753Y-82830062D01*
X138458500Y-82756635D01*
X138458499Y-82243366D01*
X138458234Y-82240474D01*
X138452364Y-82176592D01*
X138451753Y-82169938D01*
X138430445Y-82101944D01*
X138402744Y-82013550D01*
X138402743Y-82013548D01*
X138400472Y-82006301D01*
X138311639Y-81859619D01*
X138190381Y-81738361D01*
X138043699Y-81649528D01*
X138036452Y-81647257D01*
X138036450Y-81647256D01*
X137970164Y-81626483D01*
X137880062Y-81598247D01*
X137806635Y-81591500D01*
X137803737Y-81591500D01*
X137298686Y-81591501D01*
X136793366Y-81591501D01*
X136790508Y-81591764D01*
X136790499Y-81591764D01*
X136754996Y-81595026D01*
X136719938Y-81598247D01*
X136713560Y-81600246D01*
X136713559Y-81600246D01*
X136563550Y-81647256D01*
X136563548Y-81647257D01*
X136556301Y-81649528D01*
X136409619Y-81738361D01*
X136288361Y-81859619D01*
X136199528Y-82006301D01*
X136148247Y-82169938D01*
X136141500Y-82243365D01*
X136141501Y-82756634D01*
X136141764Y-82759492D01*
X136141764Y-82759501D01*
X136144374Y-82787906D01*
X136148247Y-82830062D01*
X136150246Y-82836440D01*
X136150246Y-82836441D01*
X136193408Y-82974169D01*
X136199528Y-82993699D01*
X136244966Y-83068727D01*
X136282085Y-83130018D01*
X136300264Y-83198648D01*
X136276245Y-83269350D01*
X136258882Y-83293248D01*
X136256198Y-83299276D01*
X136256197Y-83299278D01*
X136183891Y-83461681D01*
X136181206Y-83467712D01*
X136167480Y-83532288D01*
X136147403Y-83626744D01*
X136141500Y-83654513D01*
X136141500Y-83845487D01*
X136142872Y-83851939D01*
X136142872Y-83851944D01*
X136152764Y-83898482D01*
X136181206Y-84032288D01*
X136183891Y-84038318D01*
X136183891Y-84038319D01*
X136240433Y-84165314D01*
X136258882Y-84206752D01*
X136262762Y-84212093D01*
X136262763Y-84212094D01*
X136327313Y-84300939D01*
X136351172Y-84367807D01*
X136335091Y-84436958D01*
X136327313Y-84449061D01*
X136258882Y-84543248D01*
X136256198Y-84549276D01*
X136256197Y-84549278D01*
X136189768Y-84698482D01*
X136181206Y-84717712D01*
X136167480Y-84782288D01*
X136145484Y-84885771D01*
X136141500Y-84904513D01*
X136141500Y-85095487D01*
X136142872Y-85101939D01*
X136142872Y-85101944D01*
X136147344Y-85122982D01*
X136181206Y-85282288D01*
X136183891Y-85288318D01*
X136183891Y-85288319D01*
X136243729Y-85422717D01*
X136258882Y-85456752D01*
X136262762Y-85462093D01*
X136262763Y-85462094D01*
X136327313Y-85550939D01*
X136351172Y-85617807D01*
X136335091Y-85686958D01*
X136327313Y-85699061D01*
X136258882Y-85793248D01*
X136256198Y-85799276D01*
X136256197Y-85799278D01*
X136183891Y-85961681D01*
X136181206Y-85967712D01*
X136141500Y-86154513D01*
X136141500Y-86345487D01*
X136142872Y-86351939D01*
X136142872Y-86351944D01*
X136152102Y-86395366D01*
X136181206Y-86532288D01*
X136258882Y-86706752D01*
X136262762Y-86712093D01*
X136262763Y-86712094D01*
X136327313Y-86800939D01*
X136351172Y-86867807D01*
X136335091Y-86936958D01*
X136327313Y-86949061D01*
X136290304Y-87000000D01*
X136258882Y-87043248D01*
X136256198Y-87049276D01*
X136256197Y-87049278D01*
X136185954Y-87207047D01*
X136181206Y-87217712D01*
X136169559Y-87272506D01*
X136147184Y-87377773D01*
X136141500Y-87404513D01*
X136141500Y-87595487D01*
X124547128Y-87595487D01*
X124623266Y-87522982D01*
X124723643Y-87371902D01*
X124788055Y-87202338D01*
X124790191Y-87187140D01*
X124812748Y-87026639D01*
X124812748Y-87026636D01*
X124813299Y-87022717D01*
X124813616Y-87000000D01*
X124811601Y-86982035D01*
X124823885Y-86912109D01*
X124872297Y-86859762D01*
X124874276Y-86858582D01*
X124891912Y-86848069D01*
X125023266Y-86722982D01*
X125123643Y-86571902D01*
X125188055Y-86402338D01*
X125189035Y-86395366D01*
X125212748Y-86226639D01*
X125212748Y-86226636D01*
X125213299Y-86222717D01*
X125213616Y-86200000D01*
X125211601Y-86182035D01*
X125223885Y-86112109D01*
X125272297Y-86059762D01*
X125274276Y-86058582D01*
X125291912Y-86048069D01*
X125423266Y-85922982D01*
X125523643Y-85771902D01*
X125565423Y-85661917D01*
X125585555Y-85608920D01*
X125585556Y-85608918D01*
X125588055Y-85602338D01*
X125603773Y-85490499D01*
X125612748Y-85426639D01*
X125612748Y-85426636D01*
X125613299Y-85422717D01*
X125613616Y-85400000D01*
X125611601Y-85382035D01*
X125623885Y-85312109D01*
X125672297Y-85259762D01*
X125674276Y-85258582D01*
X125691912Y-85248069D01*
X125823266Y-85122982D01*
X125923643Y-84971902D01*
X125988055Y-84802338D01*
X125999041Y-84724169D01*
X126012748Y-84626639D01*
X126012748Y-84626636D01*
X126013299Y-84622717D01*
X126013616Y-84600000D01*
X126011601Y-84582035D01*
X126023885Y-84512109D01*
X126072297Y-84459762D01*
X126074276Y-84458582D01*
X126091912Y-84448069D01*
X126223266Y-84322982D01*
X126323643Y-84171902D01*
X126388055Y-84002338D01*
X126407883Y-83861253D01*
X126412748Y-83826639D01*
X126412748Y-83826636D01*
X126413299Y-83822717D01*
X126413616Y-83800000D01*
X126393397Y-83619745D01*
X126391080Y-83613091D01*
X126336064Y-83455106D01*
X126336062Y-83455103D01*
X126333745Y-83448448D01*
X126269408Y-83345487D01*
X126241359Y-83300598D01*
X126237626Y-83294624D01*
X126146125Y-83202482D01*
X126114778Y-83170915D01*
X126114774Y-83170912D01*
X126109815Y-83165918D01*
X126102249Y-83161116D01*
X126050538Y-83128300D01*
X125956666Y-83068727D01*
X125927463Y-83058328D01*
X125792425Y-83010243D01*
X125792420Y-83010242D01*
X125785790Y-83007881D01*
X125778802Y-83007048D01*
X125778799Y-83007047D01*
X125655698Y-82992368D01*
X125605680Y-82986404D01*
X125598677Y-82987140D01*
X125598676Y-82987140D01*
X125432288Y-83004628D01*
X125432286Y-83004629D01*
X125425288Y-83005364D01*
X125253579Y-83063818D01*
X125247575Y-83067512D01*
X125105095Y-83155166D01*
X125105092Y-83155168D01*
X125099088Y-83158862D01*
X125094053Y-83163793D01*
X125094050Y-83163795D01*
X124974525Y-83280843D01*
X124969493Y-83285771D01*
X124871235Y-83438238D01*
X124868826Y-83444858D01*
X124868824Y-83444861D01*
X124837003Y-83532288D01*
X124809197Y-83608685D01*
X124786463Y-83788640D01*
X124788856Y-83813042D01*
X124789550Y-83820125D01*
X124776290Y-83889873D01*
X124730175Y-83939736D01*
X124705092Y-83955168D01*
X124699088Y-83958862D01*
X124694056Y-83963789D01*
X124694053Y-83963792D01*
X124624108Y-84032288D01*
X124569493Y-84085771D01*
X124471235Y-84238238D01*
X124468826Y-84244858D01*
X124468824Y-84244861D01*
X124438622Y-84327841D01*
X124409197Y-84408685D01*
X124386463Y-84588640D01*
X124389038Y-84614904D01*
X124389550Y-84620125D01*
X124376290Y-84689873D01*
X124330175Y-84739736D01*
X124305092Y-84755168D01*
X124299088Y-84758862D01*
X124294056Y-84763789D01*
X124294053Y-84763792D01*
X124174525Y-84880843D01*
X124169493Y-84885771D01*
X124071235Y-85038238D01*
X124068826Y-85044858D01*
X124068824Y-85044861D01*
X124038622Y-85127841D01*
X124009197Y-85208685D01*
X123986463Y-85388640D01*
X123988906Y-85413554D01*
X123989550Y-85420125D01*
X123976290Y-85489873D01*
X123930175Y-85539736D01*
X123911966Y-85550939D01*
X123899088Y-85558862D01*
X123894056Y-85563789D01*
X123894053Y-85563792D01*
X123845588Y-85611253D01*
X123769493Y-85685771D01*
X123671235Y-85838238D01*
X123668826Y-85844858D01*
X123668824Y-85844861D01*
X123638622Y-85927841D01*
X123609197Y-86008685D01*
X123586463Y-86188640D01*
X123589038Y-86214904D01*
X123589550Y-86220125D01*
X123576290Y-86289873D01*
X123530175Y-86339736D01*
X123505092Y-86355168D01*
X123499088Y-86358862D01*
X123494056Y-86363789D01*
X123494053Y-86363792D01*
X123374525Y-86480843D01*
X123369493Y-86485771D01*
X123271235Y-86638238D01*
X123268826Y-86644858D01*
X123268824Y-86644861D01*
X123238622Y-86727841D01*
X123209197Y-86808685D01*
X123186463Y-86988640D01*
X110508500Y-86988640D01*
X110508500Y-85493365D01*
X111541500Y-85493365D01*
X111541501Y-86006634D01*
X111541764Y-86009492D01*
X111541764Y-86009501D01*
X111544861Y-86043211D01*
X111548247Y-86080062D01*
X111550246Y-86086440D01*
X111550246Y-86086441D01*
X111594182Y-86226639D01*
X111599528Y-86243699D01*
X111688361Y-86390381D01*
X111809619Y-86511639D01*
X111956301Y-86600472D01*
X111963548Y-86602743D01*
X111963550Y-86602744D01*
X112029836Y-86623517D01*
X112119938Y-86651753D01*
X112193365Y-86658500D01*
X112196263Y-86658500D01*
X112701314Y-86658499D01*
X113206634Y-86658499D01*
X113209492Y-86658236D01*
X113209501Y-86658236D01*
X113245004Y-86654974D01*
X113280062Y-86651753D01*
X113286447Y-86649752D01*
X113436450Y-86602744D01*
X113436452Y-86602743D01*
X113443699Y-86600472D01*
X113590381Y-86511639D01*
X113711639Y-86390381D01*
X113800472Y-86243699D01*
X113805819Y-86226639D01*
X113849752Y-86086446D01*
X113851753Y-86080062D01*
X113858500Y-86006635D01*
X113858499Y-85493366D01*
X113858234Y-85490474D01*
X113854581Y-85450722D01*
X113851753Y-85419938D01*
X113817961Y-85312109D01*
X113802744Y-85263550D01*
X113802743Y-85263548D01*
X113800472Y-85256301D01*
X113717915Y-85119982D01*
X113699736Y-85051352D01*
X113723755Y-84980650D01*
X113737237Y-84962094D01*
X113737238Y-84962092D01*
X113741118Y-84956752D01*
X113761437Y-84911116D01*
X113816109Y-84788319D01*
X113816109Y-84788318D01*
X113818794Y-84782288D01*
X113838647Y-84688888D01*
X113857128Y-84601944D01*
X113857128Y-84601939D01*
X113858500Y-84595487D01*
X113858500Y-84404513D01*
X113818794Y-84217712D01*
X113762687Y-84091693D01*
X113743803Y-84049278D01*
X113743802Y-84049276D01*
X113741118Y-84043248D01*
X113672687Y-83949061D01*
X113648828Y-83882193D01*
X113664909Y-83813042D01*
X113672687Y-83800939D01*
X113737237Y-83712094D01*
X113737238Y-83712093D01*
X113741118Y-83706752D01*
X113761437Y-83661116D01*
X113816109Y-83538319D01*
X113816109Y-83538318D01*
X113818794Y-83532288D01*
X113858500Y-83345487D01*
X113858500Y-83154513D01*
X113855497Y-83140381D01*
X113827332Y-83007881D01*
X113818794Y-82967712D01*
X113741118Y-82793248D01*
X113716618Y-82759526D01*
X113672687Y-82699061D01*
X113648828Y-82632193D01*
X113664909Y-82563042D01*
X113672687Y-82550939D01*
X113737237Y-82462094D01*
X113737238Y-82462093D01*
X113741118Y-82456752D01*
X113818794Y-82282288D01*
X113858500Y-82095487D01*
X113858500Y-81904513D01*
X113850340Y-81866120D01*
X113838647Y-81811112D01*
X113818794Y-81717712D01*
X113741118Y-81543248D01*
X113672687Y-81449061D01*
X113648828Y-81382193D01*
X113664909Y-81313042D01*
X113672687Y-81300939D01*
X113737237Y-81212094D01*
X113737238Y-81212093D01*
X113741118Y-81206752D01*
X113818794Y-81032288D01*
X113838647Y-80938888D01*
X113857128Y-80851944D01*
X113857128Y-80851939D01*
X113858500Y-80845487D01*
X113858500Y-80654513D01*
X113844873Y-80590401D01*
X113838647Y-80561113D01*
X113818794Y-80467712D01*
X113741118Y-80293248D01*
X113628866Y-80138747D01*
X113585833Y-80100000D01*
X113491852Y-80015379D01*
X113491851Y-80015378D01*
X113486944Y-80010960D01*
X113341078Y-79926744D01*
X113327279Y-79918777D01*
X113327278Y-79918776D01*
X113321556Y-79915473D01*
X113139928Y-79856458D01*
X113133367Y-79855768D01*
X113133365Y-79855768D01*
X113080111Y-79850171D01*
X112997610Y-79841500D01*
X112402390Y-79841500D01*
X112319889Y-79850171D01*
X112266635Y-79855768D01*
X112266633Y-79855768D01*
X112260072Y-79856458D01*
X112078444Y-79915473D01*
X112072722Y-79918776D01*
X112072721Y-79918777D01*
X112058922Y-79926744D01*
X111913056Y-80010960D01*
X111908149Y-80015378D01*
X111908148Y-80015379D01*
X111814167Y-80100000D01*
X111771134Y-80138747D01*
X111658882Y-80293248D01*
X111581206Y-80467712D01*
X111561353Y-80561113D01*
X111555128Y-80590401D01*
X111541500Y-80654513D01*
X111541500Y-80845487D01*
X111542872Y-80851939D01*
X111542872Y-80851944D01*
X111561353Y-80938888D01*
X111581206Y-81032288D01*
X111658882Y-81206752D01*
X111662762Y-81212093D01*
X111662763Y-81212094D01*
X111727313Y-81300939D01*
X111751172Y-81367807D01*
X111735091Y-81436958D01*
X111727313Y-81449061D01*
X111658882Y-81543248D01*
X111581206Y-81717712D01*
X111561353Y-81811112D01*
X111549661Y-81866120D01*
X111541500Y-81904513D01*
X111541500Y-82095487D01*
X111581206Y-82282288D01*
X111658882Y-82456752D01*
X111662762Y-82462093D01*
X111662763Y-82462094D01*
X111727313Y-82550939D01*
X111751172Y-82617807D01*
X111735091Y-82686958D01*
X111727313Y-82699061D01*
X111683383Y-82759526D01*
X111658882Y-82793248D01*
X111581206Y-82967712D01*
X111572668Y-83007881D01*
X111544504Y-83140381D01*
X111541500Y-83154513D01*
X111541500Y-83345487D01*
X111581206Y-83532288D01*
X111583891Y-83538318D01*
X111583891Y-83538319D01*
X111638564Y-83661116D01*
X111658882Y-83706752D01*
X111662762Y-83712093D01*
X111662763Y-83712094D01*
X111727313Y-83800939D01*
X111751172Y-83867807D01*
X111735091Y-83936958D01*
X111727313Y-83949061D01*
X111658882Y-84043248D01*
X111656198Y-84049276D01*
X111656197Y-84049278D01*
X111637313Y-84091693D01*
X111581206Y-84217712D01*
X111541500Y-84404513D01*
X111541500Y-84595487D01*
X111542872Y-84601939D01*
X111542872Y-84601944D01*
X111561353Y-84688888D01*
X111581206Y-84782288D01*
X111583891Y-84788318D01*
X111583891Y-84788319D01*
X111638564Y-84911116D01*
X111658882Y-84956752D01*
X111662762Y-84962092D01*
X111662763Y-84962094D01*
X111676245Y-84980650D01*
X111700103Y-85047518D01*
X111682085Y-85119982D01*
X111599528Y-85256301D01*
X111597257Y-85263548D01*
X111597256Y-85263550D01*
X111582039Y-85312109D01*
X111548247Y-85419938D01*
X111541500Y-85493365D01*
X110508500Y-85493365D01*
X110508500Y-78238640D01*
X121736463Y-78238640D01*
X121754163Y-78419160D01*
X121811418Y-78591273D01*
X121815065Y-78597295D01*
X121815066Y-78597297D01*
X121843872Y-78644861D01*
X121905380Y-78746424D01*
X122031382Y-78876902D01*
X122183159Y-78976222D01*
X122189763Y-78978678D01*
X122189765Y-78978679D01*
X122346558Y-79036990D01*
X122346560Y-79036990D01*
X122353168Y-79039448D01*
X122436995Y-79050633D01*
X122525980Y-79062507D01*
X122525984Y-79062507D01*
X122532961Y-79063438D01*
X122539972Y-79062800D01*
X122539976Y-79062800D01*
X122682459Y-79049832D01*
X122713600Y-79046998D01*
X122720302Y-79044820D01*
X122720304Y-79044820D01*
X122879409Y-78993124D01*
X122879412Y-78993123D01*
X122886108Y-78990947D01*
X123041912Y-78898069D01*
X123173266Y-78772982D01*
X123273643Y-78621902D01*
X123338055Y-78452338D01*
X123339035Y-78445366D01*
X123362748Y-78276639D01*
X123362748Y-78276636D01*
X123363299Y-78272717D01*
X123363616Y-78250000D01*
X123362342Y-78238640D01*
X126636463Y-78238640D01*
X126654163Y-78419160D01*
X126711418Y-78591273D01*
X126715065Y-78597295D01*
X126715066Y-78597297D01*
X126743872Y-78644861D01*
X126805380Y-78746424D01*
X126931382Y-78876902D01*
X127083159Y-78976222D01*
X127089763Y-78978678D01*
X127089765Y-78978679D01*
X127246558Y-79036990D01*
X127246560Y-79036990D01*
X127253168Y-79039448D01*
X127336995Y-79050633D01*
X127425980Y-79062507D01*
X127425984Y-79062507D01*
X127432961Y-79063438D01*
X127439972Y-79062800D01*
X127439976Y-79062800D01*
X127582459Y-79049832D01*
X127613600Y-79046998D01*
X127620302Y-79044820D01*
X127620304Y-79044820D01*
X127779409Y-78993124D01*
X127779412Y-78993123D01*
X127786108Y-78990947D01*
X127789978Y-78988640D01*
X132186463Y-78988640D01*
X132204163Y-79169160D01*
X132261418Y-79341273D01*
X132265065Y-79347295D01*
X132265066Y-79347297D01*
X132275978Y-79365314D01*
X132355380Y-79496424D01*
X132360269Y-79501487D01*
X132360270Y-79501488D01*
X132437121Y-79581068D01*
X132481382Y-79626902D01*
X132633159Y-79726222D01*
X132639763Y-79728678D01*
X132639765Y-79728679D01*
X132796558Y-79786990D01*
X132796560Y-79786990D01*
X132803168Y-79789448D01*
X132886995Y-79800633D01*
X132975980Y-79812507D01*
X132975984Y-79812507D01*
X132982961Y-79813438D01*
X132989972Y-79812800D01*
X132989976Y-79812800D01*
X133132459Y-79799832D01*
X133163600Y-79796998D01*
X133170302Y-79794820D01*
X133170304Y-79794820D01*
X133329409Y-79743124D01*
X133329412Y-79743123D01*
X133336108Y-79740947D01*
X133491912Y-79648069D01*
X133623266Y-79522982D01*
X133723643Y-79371902D01*
X133788055Y-79202338D01*
X133793390Y-79164374D01*
X133822677Y-79099700D01*
X133882281Y-79061127D01*
X133934828Y-79057016D01*
X133975979Y-79062507D01*
X133975984Y-79062507D01*
X133982961Y-79063438D01*
X133989972Y-79062800D01*
X133989976Y-79062800D01*
X134053524Y-79057016D01*
X134067324Y-79055760D01*
X134136976Y-79069505D01*
X134188141Y-79118726D01*
X134199914Y-79155702D01*
X134202010Y-79155256D01*
X134203476Y-79162151D01*
X134204163Y-79169160D01*
X134206387Y-79175845D01*
X134206387Y-79175846D01*
X134217392Y-79208927D01*
X134261418Y-79341273D01*
X134265065Y-79347295D01*
X134265066Y-79347297D01*
X134349327Y-79486430D01*
X134367506Y-79555060D01*
X134347464Y-79619954D01*
X134271235Y-79738238D01*
X134268826Y-79744858D01*
X134268824Y-79744861D01*
X134211606Y-79902066D01*
X134209197Y-79908685D01*
X134186463Y-80088640D01*
X134204163Y-80269160D01*
X134261418Y-80441273D01*
X134265065Y-80447295D01*
X134265066Y-80447297D01*
X134275978Y-80465314D01*
X134355380Y-80596424D01*
X134481382Y-80726902D01*
X134633159Y-80826222D01*
X134639763Y-80828678D01*
X134639765Y-80828679D01*
X134796558Y-80886990D01*
X134796560Y-80886990D01*
X134803168Y-80889448D01*
X134886995Y-80900633D01*
X134975980Y-80912507D01*
X134975984Y-80912507D01*
X134982961Y-80913438D01*
X134989972Y-80912800D01*
X134989976Y-80912800D01*
X135132459Y-80899832D01*
X135163600Y-80896998D01*
X135170302Y-80894820D01*
X135170304Y-80894820D01*
X135329409Y-80843124D01*
X135329412Y-80843123D01*
X135336108Y-80840947D01*
X135491912Y-80748069D01*
X135623266Y-80622982D01*
X135723643Y-80471902D01*
X135788055Y-80302338D01*
X135790083Y-80287906D01*
X135812748Y-80126639D01*
X135812748Y-80126636D01*
X135813299Y-80122717D01*
X135813616Y-80100000D01*
X135793397Y-79919745D01*
X135791080Y-79913091D01*
X135736064Y-79755106D01*
X135736062Y-79755103D01*
X135733745Y-79748448D01*
X135650625Y-79615427D01*
X135631490Y-79547060D01*
X135652532Y-79478933D01*
X135719742Y-79377773D01*
X135723643Y-79371902D01*
X135788055Y-79202338D01*
X135791778Y-79175846D01*
X135812748Y-79026639D01*
X135812748Y-79026636D01*
X135813299Y-79022717D01*
X135813616Y-79000000D01*
X135793397Y-78819745D01*
X135791080Y-78813091D01*
X135736064Y-78655106D01*
X135736062Y-78655103D01*
X135733745Y-78648448D01*
X135698018Y-78591273D01*
X135641359Y-78500598D01*
X135637626Y-78494624D01*
X135623941Y-78480843D01*
X135514778Y-78370915D01*
X135514774Y-78370912D01*
X135509815Y-78365918D01*
X135498697Y-78358862D01*
X135369133Y-78276639D01*
X135356666Y-78268727D01*
X135315201Y-78253962D01*
X135192425Y-78210243D01*
X135192420Y-78210242D01*
X135185790Y-78207881D01*
X135178802Y-78207048D01*
X135178799Y-78207047D01*
X135055698Y-78192368D01*
X135005680Y-78186404D01*
X134998677Y-78187140D01*
X134998676Y-78187140D01*
X134983293Y-78188757D01*
X134933240Y-78194018D01*
X134863404Y-78181246D01*
X134811557Y-78132745D01*
X134794856Y-78082752D01*
X134794182Y-78076744D01*
X134793397Y-78069745D01*
X134791080Y-78063091D01*
X134736064Y-77905106D01*
X134736062Y-77905103D01*
X134733745Y-77898448D01*
X134637626Y-77744624D01*
X134623941Y-77730843D01*
X134514778Y-77620915D01*
X134514774Y-77620912D01*
X134509815Y-77615918D01*
X134498697Y-77608862D01*
X134450538Y-77578300D01*
X134356666Y-77518727D01*
X134327463Y-77508328D01*
X134192425Y-77460243D01*
X134192420Y-77460242D01*
X134185790Y-77457881D01*
X134178802Y-77457048D01*
X134178799Y-77457047D01*
X134055698Y-77442368D01*
X134005680Y-77436404D01*
X133998677Y-77437140D01*
X133998676Y-77437140D01*
X133832288Y-77454628D01*
X133832286Y-77454629D01*
X133825288Y-77455364D01*
X133653579Y-77513818D01*
X133626637Y-77530393D01*
X133505095Y-77605166D01*
X133505092Y-77605168D01*
X133499088Y-77608862D01*
X133494053Y-77613793D01*
X133494050Y-77613795D01*
X133374525Y-77730843D01*
X133369493Y-77735771D01*
X133271235Y-77888238D01*
X133268826Y-77894858D01*
X133268824Y-77894861D01*
X133211606Y-78052066D01*
X133209197Y-78058685D01*
X133205963Y-78084282D01*
X133177583Y-78149355D01*
X133118524Y-78188757D01*
X133066040Y-78193601D01*
X133012674Y-78187238D01*
X133005680Y-78186404D01*
X132998677Y-78187140D01*
X132998676Y-78187140D01*
X132832288Y-78204628D01*
X132832286Y-78204629D01*
X132825288Y-78205364D01*
X132653579Y-78263818D01*
X132647575Y-78267512D01*
X132505095Y-78355166D01*
X132505092Y-78355168D01*
X132499088Y-78358862D01*
X132494053Y-78363793D01*
X132494050Y-78363795D01*
X132396912Y-78458920D01*
X132369493Y-78485771D01*
X132271235Y-78638238D01*
X132268826Y-78644858D01*
X132268824Y-78644861D01*
X132234050Y-78740401D01*
X132209197Y-78808685D01*
X132186463Y-78988640D01*
X127789978Y-78988640D01*
X127941912Y-78898069D01*
X128073266Y-78772982D01*
X128173643Y-78621902D01*
X128238055Y-78452338D01*
X128239035Y-78445366D01*
X128262748Y-78276639D01*
X128262748Y-78276636D01*
X128263299Y-78272717D01*
X128263616Y-78250000D01*
X128243397Y-78069745D01*
X128241080Y-78063091D01*
X128186064Y-77905106D01*
X128186062Y-77905103D01*
X128183745Y-77898448D01*
X128087626Y-77744624D01*
X128073941Y-77730843D01*
X127964778Y-77620915D01*
X127964774Y-77620912D01*
X127959815Y-77615918D01*
X127948697Y-77608862D01*
X127900538Y-77578300D01*
X127806666Y-77518727D01*
X127777463Y-77508328D01*
X127642425Y-77460243D01*
X127642420Y-77460242D01*
X127635790Y-77457881D01*
X127628802Y-77457048D01*
X127628799Y-77457047D01*
X127505698Y-77442368D01*
X127455680Y-77436404D01*
X127448677Y-77437140D01*
X127448676Y-77437140D01*
X127282288Y-77454628D01*
X127282286Y-77454629D01*
X127275288Y-77455364D01*
X127103579Y-77513818D01*
X127076637Y-77530393D01*
X126955095Y-77605166D01*
X126955092Y-77605168D01*
X126949088Y-77608862D01*
X126944053Y-77613793D01*
X126944050Y-77613795D01*
X126824525Y-77730843D01*
X126819493Y-77735771D01*
X126721235Y-77888238D01*
X126718826Y-77894858D01*
X126718824Y-77894861D01*
X126661606Y-78052066D01*
X126659197Y-78058685D01*
X126636463Y-78238640D01*
X123362342Y-78238640D01*
X123343397Y-78069745D01*
X123341080Y-78063091D01*
X123286064Y-77905106D01*
X123286062Y-77905103D01*
X123283745Y-77898448D01*
X123187626Y-77744624D01*
X123173941Y-77730843D01*
X123064778Y-77620915D01*
X123064774Y-77620912D01*
X123059815Y-77615918D01*
X123048697Y-77608862D01*
X123000538Y-77578300D01*
X122906666Y-77518727D01*
X122877463Y-77508328D01*
X122742425Y-77460243D01*
X122742420Y-77460242D01*
X122735790Y-77457881D01*
X122728802Y-77457048D01*
X122728799Y-77457047D01*
X122605698Y-77442368D01*
X122555680Y-77436404D01*
X122548677Y-77437140D01*
X122548676Y-77437140D01*
X122382288Y-77454628D01*
X122382286Y-77454629D01*
X122375288Y-77455364D01*
X122203579Y-77513818D01*
X122176637Y-77530393D01*
X122055095Y-77605166D01*
X122055092Y-77605168D01*
X122049088Y-77608862D01*
X122044053Y-77613793D01*
X122044050Y-77613795D01*
X121924525Y-77730843D01*
X121919493Y-77735771D01*
X121821235Y-77888238D01*
X121818826Y-77894858D01*
X121818824Y-77894861D01*
X121761606Y-78052066D01*
X121759197Y-78058685D01*
X121736463Y-78238640D01*
X110508500Y-78238640D01*
X110508500Y-76726657D01*
X119672000Y-76726657D01*
X119672301Y-76732805D01*
X119685812Y-76870603D01*
X119688195Y-76882638D01*
X119741767Y-77060076D01*
X119746441Y-77071416D01*
X119833460Y-77235077D01*
X119840249Y-77245294D01*
X119957397Y-77388933D01*
X119966041Y-77397637D01*
X120108856Y-77515784D01*
X120119027Y-77522644D01*
X120282076Y-77610804D01*
X120293381Y-77615556D01*
X120408692Y-77651250D01*
X120422795Y-77651456D01*
X120426000Y-77644701D01*
X120426000Y-77637924D01*
X120934000Y-77637924D01*
X120937973Y-77651455D01*
X120945768Y-77652575D01*
X121053521Y-77620862D01*
X121064889Y-77616269D01*
X121229154Y-77530393D01*
X121239415Y-77523679D01*
X121383873Y-77407532D01*
X121392632Y-77398954D01*
X121511778Y-77256961D01*
X121518708Y-77246841D01*
X121608002Y-77084415D01*
X121612834Y-77073142D01*
X121668880Y-76896462D01*
X121671430Y-76884468D01*
X121687607Y-76740239D01*
X121688000Y-76733215D01*
X121688000Y-76517026D01*
X121708002Y-76448905D01*
X121761658Y-76402412D01*
X121831932Y-76392308D01*
X121841486Y-76394061D01*
X122011494Y-76432062D01*
X122011501Y-76432063D01*
X122016543Y-76433190D01*
X122022088Y-76433500D01*
X122155244Y-76433500D01*
X122290037Y-76418857D01*
X122408190Y-76379094D01*
X122455204Y-76363272D01*
X122455206Y-76363271D01*
X122461675Y-76361094D01*
X122616905Y-76267823D01*
X122621862Y-76263135D01*
X122621865Y-76263133D01*
X122743527Y-76148082D01*
X122743529Y-76148080D01*
X122748485Y-76143393D01*
X122752317Y-76137755D01*
X122752320Y-76137751D01*
X122846442Y-75999255D01*
X122850277Y-75993612D01*
X122917530Y-75825466D01*
X122918644Y-75818738D01*
X122918645Y-75818734D01*
X122945993Y-75653539D01*
X122945993Y-75653536D01*
X122947108Y-75646802D01*
X122942203Y-75553198D01*
X127052892Y-75553198D01*
X127053249Y-75560015D01*
X127053249Y-75560019D01*
X127058151Y-75653539D01*
X127062370Y-75734047D01*
X127064181Y-75740620D01*
X127064181Y-75740623D01*
X127097738Y-75862452D01*
X127110461Y-75908641D01*
X127194922Y-76068836D01*
X127199327Y-76074049D01*
X127199330Y-76074053D01*
X127307406Y-76201943D01*
X127307410Y-76201947D01*
X127311813Y-76207157D01*
X127317237Y-76211304D01*
X127317238Y-76211305D01*
X127450257Y-76313006D01*
X127450261Y-76313009D01*
X127455678Y-76317150D01*
X127542372Y-76357576D01*
X127613631Y-76390805D01*
X127613634Y-76390806D01*
X127619808Y-76393685D01*
X127626456Y-76395171D01*
X127626459Y-76395172D01*
X127722686Y-76416681D01*
X127796543Y-76433190D01*
X127802088Y-76433500D01*
X127935244Y-76433500D01*
X128070037Y-76418857D01*
X128076501Y-76416682D01*
X128076504Y-76416681D01*
X128143716Y-76394061D01*
X128145811Y-76393356D01*
X128216753Y-76390586D01*
X128277932Y-76426609D01*
X128309923Y-76489990D01*
X128312000Y-76512775D01*
X128312000Y-76726657D01*
X128312301Y-76732805D01*
X128325812Y-76870603D01*
X128328195Y-76882638D01*
X128381767Y-77060076D01*
X128386441Y-77071416D01*
X128473460Y-77235077D01*
X128480249Y-77245294D01*
X128597397Y-77388933D01*
X128606041Y-77397637D01*
X128748856Y-77515784D01*
X128759027Y-77522644D01*
X128922076Y-77610804D01*
X128933381Y-77615556D01*
X129048692Y-77651250D01*
X129062795Y-77651456D01*
X129066000Y-77644701D01*
X129066000Y-77637924D01*
X129574000Y-77637924D01*
X129577973Y-77651455D01*
X129585768Y-77652575D01*
X129693521Y-77620862D01*
X129704889Y-77616269D01*
X129869154Y-77530393D01*
X129879415Y-77523679D01*
X130023873Y-77407532D01*
X130032632Y-77398954D01*
X130151778Y-77256961D01*
X130158708Y-77246841D01*
X130248002Y-77084415D01*
X130252834Y-77073142D01*
X130308880Y-76896462D01*
X130311430Y-76884468D01*
X130327607Y-76740239D01*
X130328000Y-76733215D01*
X130328000Y-76402115D01*
X130323525Y-76386876D01*
X130322135Y-76385671D01*
X130314452Y-76384000D01*
X129592115Y-76384000D01*
X129576876Y-76388475D01*
X129575671Y-76389865D01*
X129574000Y-76397548D01*
X129574000Y-77637924D01*
X129066000Y-77637924D01*
X129066000Y-75857885D01*
X129574000Y-75857885D01*
X129578475Y-75873124D01*
X129579865Y-75874329D01*
X129587548Y-75876000D01*
X130309885Y-75876000D01*
X130325124Y-75871525D01*
X130326329Y-75870135D01*
X130328000Y-75862452D01*
X130328000Y-75533343D01*
X130327699Y-75527195D01*
X130314188Y-75389397D01*
X130311805Y-75377362D01*
X130258233Y-75199924D01*
X130253559Y-75188584D01*
X130166540Y-75024923D01*
X130159751Y-75014706D01*
X130042603Y-74871067D01*
X130033959Y-74862363D01*
X129891144Y-74744216D01*
X129880973Y-74737356D01*
X129717924Y-74649196D01*
X129706619Y-74644444D01*
X129591308Y-74608750D01*
X129577205Y-74608544D01*
X129574000Y-74615299D01*
X129574000Y-75857885D01*
X129066000Y-75857885D01*
X129066000Y-74622076D01*
X129062027Y-74608545D01*
X129054232Y-74607425D01*
X128946479Y-74639138D01*
X128935111Y-74643731D01*
X128770846Y-74729607D01*
X128760585Y-74736321D01*
X128616127Y-74852468D01*
X128607368Y-74861046D01*
X128563000Y-74913921D01*
X128503890Y-74953248D01*
X128432902Y-74954374D01*
X128389952Y-74933028D01*
X128324322Y-74882850D01*
X128219186Y-74833825D01*
X128166369Y-74809195D01*
X128166366Y-74809194D01*
X128160192Y-74806315D01*
X128153544Y-74804829D01*
X128153541Y-74804828D01*
X127988494Y-74767936D01*
X127988495Y-74767936D01*
X127983457Y-74766810D01*
X127977912Y-74766500D01*
X127844756Y-74766500D01*
X127709963Y-74781143D01*
X127591810Y-74820906D01*
X127544796Y-74836728D01*
X127544794Y-74836729D01*
X127538325Y-74838906D01*
X127383095Y-74932177D01*
X127378138Y-74936865D01*
X127378135Y-74936867D01*
X127256473Y-75051918D01*
X127251515Y-75056607D01*
X127247683Y-75062245D01*
X127247680Y-75062249D01*
X127161823Y-75188584D01*
X127149723Y-75206388D01*
X127082470Y-75374534D01*
X127081356Y-75381262D01*
X127081355Y-75381266D01*
X127056179Y-75533343D01*
X127052892Y-75553198D01*
X122942203Y-75553198D01*
X122937987Y-75472766D01*
X122937630Y-75465953D01*
X122914304Y-75381266D01*
X122891352Y-75297941D01*
X122889539Y-75291359D01*
X122805078Y-75131164D01*
X122800673Y-75125951D01*
X122800670Y-75125947D01*
X122692594Y-74998057D01*
X122692590Y-74998053D01*
X122688187Y-74992843D01*
X122682762Y-74988695D01*
X122549743Y-74886994D01*
X122549739Y-74886991D01*
X122544322Y-74882850D01*
X122439186Y-74833825D01*
X122386369Y-74809195D01*
X122386366Y-74809194D01*
X122380192Y-74806315D01*
X122373544Y-74804829D01*
X122373541Y-74804828D01*
X122208494Y-74767936D01*
X122208495Y-74767936D01*
X122203457Y-74766810D01*
X122197912Y-74766500D01*
X122064756Y-74766500D01*
X121929963Y-74781143D01*
X121811810Y-74820906D01*
X121764796Y-74836728D01*
X121764794Y-74836729D01*
X121758325Y-74838906D01*
X121606349Y-74930222D01*
X121606346Y-74930223D01*
X121603095Y-74932177D01*
X121602745Y-74931594D01*
X121541083Y-74955065D01*
X121471609Y-74940439D01*
X121433609Y-74909085D01*
X121402603Y-74871067D01*
X121393959Y-74862363D01*
X121251144Y-74744216D01*
X121240973Y-74737356D01*
X121077924Y-74649196D01*
X121066619Y-74644444D01*
X120951308Y-74608750D01*
X120937205Y-74608544D01*
X120934000Y-74615299D01*
X120934000Y-77637924D01*
X120426000Y-77637924D01*
X120426000Y-76402115D01*
X120421525Y-76386876D01*
X120420135Y-76385671D01*
X120412452Y-76384000D01*
X119690115Y-76384000D01*
X119674876Y-76388475D01*
X119673671Y-76389865D01*
X119672000Y-76397548D01*
X119672000Y-76726657D01*
X110508500Y-76726657D01*
X110508500Y-73971585D01*
X111286698Y-73971585D01*
X111290830Y-74054586D01*
X111299034Y-74219371D01*
X111302936Y-74297759D01*
X111303577Y-74301490D01*
X111303578Y-74301498D01*
X111357499Y-74615299D01*
X111358241Y-74619619D01*
X111359329Y-74623258D01*
X111359330Y-74623261D01*
X111450665Y-74928661D01*
X111451814Y-74932504D01*
X111453327Y-74935975D01*
X111453329Y-74935981D01*
X111536126Y-75125947D01*
X111582297Y-75231881D01*
X111584220Y-75235152D01*
X111584222Y-75235156D01*
X111626584Y-75307215D01*
X111747802Y-75513414D01*
X111750103Y-75516429D01*
X111943631Y-75770012D01*
X111943636Y-75770017D01*
X111945931Y-75773025D01*
X112007931Y-75836670D01*
X112160818Y-75993612D01*
X112173814Y-76006953D01*
X112246635Y-76065607D01*
X112425196Y-76209431D01*
X112425201Y-76209435D01*
X112428149Y-76211809D01*
X112705253Y-76384627D01*
X113001112Y-76522903D01*
X113311440Y-76624634D01*
X113631742Y-76688346D01*
X113635514Y-76688633D01*
X113635522Y-76688634D01*
X113953602Y-76712829D01*
X113953607Y-76712829D01*
X113957379Y-76713116D01*
X114283633Y-76698586D01*
X114343425Y-76688634D01*
X114602037Y-76645590D01*
X114602042Y-76645589D01*
X114605778Y-76644967D01*
X114919149Y-76553034D01*
X114922616Y-76551544D01*
X114922620Y-76551543D01*
X115215721Y-76425616D01*
X115215723Y-76425615D01*
X115219205Y-76424119D01*
X115501601Y-76260091D01*
X115762245Y-76063324D01*
X115929532Y-75902059D01*
X115975356Y-75857885D01*
X119672000Y-75857885D01*
X119676475Y-75873124D01*
X119677865Y-75874329D01*
X119685548Y-75876000D01*
X120407885Y-75876000D01*
X120423124Y-75871525D01*
X120424329Y-75870135D01*
X120426000Y-75862452D01*
X120426000Y-74622076D01*
X120422027Y-74608545D01*
X120414232Y-74607425D01*
X120306479Y-74639138D01*
X120295111Y-74643731D01*
X120130846Y-74729607D01*
X120120585Y-74736321D01*
X119976127Y-74852468D01*
X119967368Y-74861046D01*
X119848222Y-75003039D01*
X119841292Y-75013159D01*
X119751998Y-75175585D01*
X119747166Y-75186858D01*
X119691120Y-75363538D01*
X119688570Y-75375532D01*
X119672393Y-75519761D01*
X119672000Y-75526785D01*
X119672000Y-75857885D01*
X115975356Y-75857885D01*
X115994632Y-75839303D01*
X115994635Y-75839300D01*
X115997363Y-75836670D01*
X116203549Y-75583410D01*
X116325962Y-75389397D01*
X116375788Y-75310428D01*
X116375790Y-75310425D01*
X116377815Y-75307215D01*
X116517638Y-75012084D01*
X116522318Y-74998057D01*
X116619790Y-74705897D01*
X116619792Y-74705891D01*
X116620992Y-74702293D01*
X116686381Y-74382329D01*
X116687220Y-74372021D01*
X116712674Y-74059061D01*
X116712856Y-74056826D01*
X116713451Y-74000000D01*
X133186693Y-74000000D01*
X133205885Y-74219371D01*
X133262880Y-74432076D01*
X133265205Y-74437061D01*
X133353618Y-74626666D01*
X133353621Y-74626671D01*
X133355944Y-74631653D01*
X133359100Y-74636160D01*
X133359101Y-74636162D01*
X133478244Y-74806315D01*
X133482251Y-74812038D01*
X133637962Y-74967749D01*
X133642471Y-74970906D01*
X133642473Y-74970908D01*
X133717241Y-75023261D01*
X133818346Y-75094056D01*
X134017924Y-75187120D01*
X134230629Y-75244115D01*
X134450000Y-75263307D01*
X134669371Y-75244115D01*
X134882076Y-75187120D01*
X135081654Y-75094056D01*
X135144342Y-75050161D01*
X136264393Y-75050161D01*
X136273687Y-75062175D01*
X136314088Y-75090464D01*
X136323584Y-75095947D01*
X136513113Y-75184326D01*
X136523405Y-75188072D01*
X136725401Y-75242196D01*
X136736196Y-75244099D01*
X136944525Y-75262326D01*
X136955475Y-75262326D01*
X137163804Y-75244099D01*
X137174599Y-75242196D01*
X137376595Y-75188072D01*
X137386887Y-75184326D01*
X137576416Y-75095947D01*
X137585912Y-75090464D01*
X137627148Y-75061590D01*
X137635523Y-75051112D01*
X137628457Y-75037668D01*
X136962811Y-74372021D01*
X136948868Y-74364408D01*
X136947034Y-74364539D01*
X136940420Y-74368790D01*
X136270820Y-75038391D01*
X136264393Y-75050161D01*
X135144342Y-75050161D01*
X135182759Y-75023261D01*
X135257527Y-74970908D01*
X135257529Y-74970906D01*
X135262038Y-74967749D01*
X135417749Y-74812038D01*
X135421757Y-74806315D01*
X135540899Y-74636162D01*
X135540900Y-74636160D01*
X135544056Y-74631653D01*
X135546379Y-74626671D01*
X135546382Y-74626666D01*
X135586081Y-74541530D01*
X135632998Y-74488245D01*
X135701276Y-74468784D01*
X135769235Y-74489326D01*
X135814471Y-74541530D01*
X135854054Y-74626417D01*
X135859534Y-74635907D01*
X135888411Y-74677149D01*
X135898887Y-74685523D01*
X135912334Y-74678455D01*
X136577979Y-74012811D01*
X136584356Y-74001132D01*
X137314408Y-74001132D01*
X137314539Y-74002966D01*
X137318790Y-74009580D01*
X137988391Y-74679180D01*
X138000161Y-74685607D01*
X138012176Y-74676311D01*
X138040466Y-74635907D01*
X138045946Y-74626417D01*
X138134326Y-74436887D01*
X138138072Y-74426595D01*
X138192196Y-74224599D01*
X138194099Y-74213804D01*
X138212326Y-74005475D01*
X138212326Y-73994525D01*
X138194099Y-73786196D01*
X138192196Y-73775401D01*
X138138072Y-73573405D01*
X138134326Y-73563113D01*
X138045946Y-73373583D01*
X138040466Y-73364093D01*
X138011589Y-73322851D01*
X138001113Y-73314477D01*
X137987666Y-73321545D01*
X137322021Y-73987189D01*
X137314408Y-74001132D01*
X136584356Y-74001132D01*
X136585592Y-73998868D01*
X136585461Y-73997034D01*
X136581210Y-73990420D01*
X135911609Y-73320820D01*
X135899839Y-73314393D01*
X135887824Y-73323689D01*
X135859534Y-73364093D01*
X135854054Y-73373583D01*
X135814471Y-73458470D01*
X135767554Y-73511755D01*
X135699276Y-73531216D01*
X135631316Y-73510674D01*
X135586081Y-73458470D01*
X135546382Y-73373334D01*
X135546379Y-73373329D01*
X135544056Y-73368347D01*
X135512786Y-73323689D01*
X135420908Y-73192473D01*
X135420906Y-73192470D01*
X135417749Y-73187962D01*
X135262038Y-73032251D01*
X135241602Y-73017941D01*
X135144342Y-72949839D01*
X135142982Y-72948887D01*
X136264477Y-72948887D01*
X136271545Y-72962334D01*
X136937189Y-73627979D01*
X136951132Y-73635592D01*
X136952966Y-73635461D01*
X136959580Y-73631210D01*
X137629180Y-72961609D01*
X137635607Y-72949839D01*
X137626313Y-72937825D01*
X137585912Y-72909536D01*
X137576416Y-72904053D01*
X137386887Y-72815674D01*
X137376595Y-72811928D01*
X137174599Y-72757804D01*
X137163804Y-72755901D01*
X136955475Y-72737674D01*
X136944525Y-72737674D01*
X136736196Y-72755901D01*
X136725401Y-72757804D01*
X136523405Y-72811928D01*
X136513113Y-72815674D01*
X136323583Y-72904054D01*
X136314093Y-72909534D01*
X136272851Y-72938411D01*
X136264477Y-72948887D01*
X135142982Y-72948887D01*
X135081654Y-72905944D01*
X134882076Y-72812880D01*
X134669371Y-72755885D01*
X134450000Y-72736693D01*
X134230629Y-72755885D01*
X134017924Y-72812880D01*
X133924562Y-72856415D01*
X133823334Y-72903618D01*
X133823329Y-72903621D01*
X133818347Y-72905944D01*
X133813840Y-72909100D01*
X133813838Y-72909101D01*
X133642473Y-73029092D01*
X133642470Y-73029094D01*
X133637962Y-73032251D01*
X133482251Y-73187962D01*
X133479094Y-73192470D01*
X133479092Y-73192473D01*
X133387214Y-73323689D01*
X133355944Y-73368347D01*
X133353621Y-73373329D01*
X133353618Y-73373334D01*
X133353502Y-73373583D01*
X133262880Y-73567924D01*
X133205885Y-73780629D01*
X133186693Y-74000000D01*
X116713451Y-74000000D01*
X116712874Y-73990420D01*
X116694026Y-73677793D01*
X116694026Y-73677789D01*
X116693798Y-73674015D01*
X116688650Y-73645824D01*
X116635805Y-73356473D01*
X116635804Y-73356469D01*
X116635125Y-73352751D01*
X116627722Y-73328907D01*
X116539404Y-73044477D01*
X116538282Y-73040863D01*
X116404670Y-72742869D01*
X116236226Y-72463084D01*
X116233899Y-72460100D01*
X116233894Y-72460093D01*
X116106433Y-72296657D01*
X119672000Y-72296657D01*
X119672301Y-72302805D01*
X119685812Y-72440603D01*
X119688195Y-72452638D01*
X119741767Y-72630076D01*
X119746441Y-72641416D01*
X119833460Y-72805077D01*
X119840249Y-72815294D01*
X119957397Y-72958933D01*
X119966041Y-72967637D01*
X120108856Y-73085784D01*
X120119027Y-73092644D01*
X120282076Y-73180804D01*
X120293381Y-73185556D01*
X120408692Y-73221250D01*
X120422795Y-73221456D01*
X120426000Y-73214701D01*
X120426000Y-73207924D01*
X120934000Y-73207924D01*
X120937973Y-73221455D01*
X120945768Y-73222575D01*
X121053521Y-73190862D01*
X121064889Y-73186269D01*
X121229154Y-73100393D01*
X121239415Y-73093679D01*
X121383873Y-72977532D01*
X121392632Y-72968954D01*
X121511778Y-72826961D01*
X121518708Y-72816841D01*
X121608002Y-72654415D01*
X121612834Y-72643142D01*
X121668880Y-72466462D01*
X121671430Y-72454468D01*
X121687607Y-72310239D01*
X121688000Y-72303215D01*
X121688000Y-72296657D01*
X128312000Y-72296657D01*
X128312301Y-72302805D01*
X128325812Y-72440603D01*
X128328195Y-72452638D01*
X128381767Y-72630076D01*
X128386441Y-72641416D01*
X128473460Y-72805077D01*
X128480249Y-72815294D01*
X128597397Y-72958933D01*
X128606041Y-72967637D01*
X128748856Y-73085784D01*
X128759027Y-73092644D01*
X128922076Y-73180804D01*
X128933381Y-73185556D01*
X129048692Y-73221250D01*
X129062795Y-73221456D01*
X129066000Y-73214701D01*
X129066000Y-73207924D01*
X129574000Y-73207924D01*
X129577973Y-73221455D01*
X129585768Y-73222575D01*
X129693521Y-73190862D01*
X129704889Y-73186269D01*
X129869154Y-73100393D01*
X129879415Y-73093679D01*
X130023873Y-72977532D01*
X130032632Y-72968954D01*
X130151778Y-72826961D01*
X130158708Y-72816841D01*
X130248002Y-72654415D01*
X130252834Y-72643142D01*
X130308880Y-72466462D01*
X130311430Y-72454468D01*
X130327607Y-72310239D01*
X130328000Y-72303215D01*
X130328000Y-72222115D01*
X130323525Y-72206876D01*
X130322135Y-72205671D01*
X130314452Y-72204000D01*
X129592115Y-72204000D01*
X129576876Y-72208475D01*
X129575671Y-72209865D01*
X129574000Y-72217548D01*
X129574000Y-73207924D01*
X129066000Y-73207924D01*
X129066000Y-72222115D01*
X129061525Y-72206876D01*
X129060135Y-72205671D01*
X129052452Y-72204000D01*
X128330115Y-72204000D01*
X128314876Y-72208475D01*
X128313671Y-72209865D01*
X128312000Y-72217548D01*
X128312000Y-72296657D01*
X121688000Y-72296657D01*
X121688000Y-72222115D01*
X121683525Y-72206876D01*
X121682135Y-72205671D01*
X121674452Y-72204000D01*
X120952115Y-72204000D01*
X120936876Y-72208475D01*
X120935671Y-72209865D01*
X120934000Y-72217548D01*
X120934000Y-73207924D01*
X120426000Y-73207924D01*
X120426000Y-72222115D01*
X120421525Y-72206876D01*
X120420135Y-72205671D01*
X120412452Y-72204000D01*
X119690115Y-72204000D01*
X119674876Y-72208475D01*
X119673671Y-72209865D01*
X119672000Y-72217548D01*
X119672000Y-72296657D01*
X116106433Y-72296657D01*
X116037726Y-72208558D01*
X116037724Y-72208556D01*
X116035390Y-72205563D01*
X115805070Y-71974034D01*
X115548603Y-71771852D01*
X115269705Y-71601945D01*
X115266261Y-71600379D01*
X115266257Y-71600377D01*
X115155667Y-71550095D01*
X114972414Y-71466775D01*
X114661037Y-71368300D01*
X114443492Y-71327390D01*
X114343809Y-71308645D01*
X114343807Y-71308645D01*
X114340086Y-71307945D01*
X114014208Y-71286586D01*
X114010428Y-71286794D01*
X114010427Y-71286794D01*
X113912897Y-71292162D01*
X113688124Y-71304532D01*
X113684397Y-71305193D01*
X113684393Y-71305193D01*
X113527341Y-71333027D01*
X113366557Y-71361522D01*
X113362941Y-71362624D01*
X113362933Y-71362626D01*
X113057789Y-71455627D01*
X113054167Y-71456731D01*
X112755477Y-71588781D01*
X112730041Y-71603914D01*
X112478074Y-71753817D01*
X112478068Y-71753821D01*
X112474814Y-71755757D01*
X112471812Y-71758073D01*
X112304671Y-71887022D01*
X112216244Y-71955243D01*
X112213534Y-71957911D01*
X111991123Y-72176856D01*
X111983513Y-72184347D01*
X111981149Y-72187314D01*
X111981146Y-72187317D01*
X111894017Y-72296657D01*
X111779991Y-72439751D01*
X111608626Y-72717757D01*
X111471902Y-73014336D01*
X111470741Y-73017940D01*
X111470741Y-73017941D01*
X111462196Y-73044477D01*
X111371797Y-73325192D01*
X111371079Y-73328903D01*
X111371078Y-73328907D01*
X111310482Y-73642105D01*
X111310481Y-73642114D01*
X111309763Y-73645824D01*
X111309496Y-73649600D01*
X111309495Y-73649605D01*
X111299824Y-73786196D01*
X111286698Y-73971585D01*
X110508500Y-73971585D01*
X110508500Y-70634500D01*
X110528502Y-70566379D01*
X110582158Y-70519886D01*
X110634500Y-70508500D01*
X120174701Y-70508500D01*
X120242822Y-70528502D01*
G37*
%TD.AperFunction*%
%TD*%
M02*
