%TF.GenerationSoftware,KiCad,Pcbnew,(6.0.9)*%
%TF.CreationDate,2022-12-02T14:17:12-08:00*%
%TF.ProjectId,controller,636f6e74-726f-46c6-9c65-722e6b696361,1*%
%TF.SameCoordinates,Original*%
%TF.FileFunction,Drillmap*%
%TF.FilePolarity,Positive*%
%FSLAX45Y45*%
G04 Gerber Fmt 4.5, Leading zero omitted, Abs format (unit mm)*
G04 Created by KiCad (PCBNEW (6.0.9)) date 2022-12-02 14:17:12*
%MOMM*%
%LPD*%
G01*
G04 APERTURE LIST*
%ADD10C,0.100000*%
%ADD11C,0.200000*%
%ADD12C,0.065000*%
G04 APERTURE END LIST*
D10*
X11000000Y-7000000D02*
X14000000Y-7000000D01*
X14000000Y-7000000D02*
X14000000Y-13000000D01*
X14000000Y-13000000D02*
X11000000Y-13000000D01*
X11000000Y-13000000D02*
X11000000Y-7000000D01*
D11*
D12*
X12178500Y-7527500D02*
X12243500Y-7592500D01*
X12243500Y-7527500D02*
X12178500Y-7592500D01*
X12756500Y-7527500D02*
X12821500Y-7592500D01*
X12821500Y-7527500D02*
X12756500Y-7592500D01*
D11*
X11252619Y-13315476D02*
X11252619Y-13115476D01*
X11300238Y-13115476D01*
X11328809Y-13125000D01*
X11347857Y-13144048D01*
X11357381Y-13163095D01*
X11366905Y-13201190D01*
X11366905Y-13229762D01*
X11357381Y-13267857D01*
X11347857Y-13286905D01*
X11328809Y-13305952D01*
X11300238Y-13315476D01*
X11252619Y-13315476D01*
X11452619Y-13315476D02*
X11452619Y-13182143D01*
X11452619Y-13220238D02*
X11462143Y-13201190D01*
X11471667Y-13191667D01*
X11490714Y-13182143D01*
X11509762Y-13182143D01*
X11576428Y-13315476D02*
X11576428Y-13182143D01*
X11576428Y-13115476D02*
X11566905Y-13125000D01*
X11576428Y-13134524D01*
X11585952Y-13125000D01*
X11576428Y-13115476D01*
X11576428Y-13134524D01*
X11700238Y-13315476D02*
X11681190Y-13305952D01*
X11671667Y-13286905D01*
X11671667Y-13115476D01*
X11805000Y-13315476D02*
X11785952Y-13305952D01*
X11776428Y-13286905D01*
X11776428Y-13115476D01*
X12033571Y-13315476D02*
X12033571Y-13115476D01*
X12100238Y-13258333D01*
X12166905Y-13115476D01*
X12166905Y-13315476D01*
X12347857Y-13315476D02*
X12347857Y-13210714D01*
X12338333Y-13191667D01*
X12319286Y-13182143D01*
X12281190Y-13182143D01*
X12262143Y-13191667D01*
X12347857Y-13305952D02*
X12328809Y-13315476D01*
X12281190Y-13315476D01*
X12262143Y-13305952D01*
X12252619Y-13286905D01*
X12252619Y-13267857D01*
X12262143Y-13248809D01*
X12281190Y-13239286D01*
X12328809Y-13239286D01*
X12347857Y-13229762D01*
X12443095Y-13182143D02*
X12443095Y-13382143D01*
X12443095Y-13191667D02*
X12462143Y-13182143D01*
X12500238Y-13182143D01*
X12519286Y-13191667D01*
X12528809Y-13201190D01*
X12538333Y-13220238D01*
X12538333Y-13277381D01*
X12528809Y-13296428D01*
X12519286Y-13305952D01*
X12500238Y-13315476D01*
X12462143Y-13315476D01*
X12443095Y-13305952D01*
X12624048Y-13296428D02*
X12633571Y-13305952D01*
X12624048Y-13315476D01*
X12614524Y-13305952D01*
X12624048Y-13296428D01*
X12624048Y-13315476D01*
X12624048Y-13191667D02*
X12633571Y-13201190D01*
X12624048Y-13210714D01*
X12614524Y-13201190D01*
X12624048Y-13191667D01*
X12624048Y-13210714D01*
D12*
X10930000Y-13612500D02*
X10995000Y-13677500D01*
X10995000Y-13612500D02*
X10930000Y-13677500D01*
D11*
X11290714Y-13535476D02*
X11309762Y-13535476D01*
X11328809Y-13545000D01*
X11338333Y-13554524D01*
X11347857Y-13573571D01*
X11357381Y-13611667D01*
X11357381Y-13659286D01*
X11347857Y-13697381D01*
X11338333Y-13716428D01*
X11328809Y-13725952D01*
X11309762Y-13735476D01*
X11290714Y-13735476D01*
X11271667Y-13725952D01*
X11262143Y-13716428D01*
X11252619Y-13697381D01*
X11243095Y-13659286D01*
X11243095Y-13611667D01*
X11252619Y-13573571D01*
X11262143Y-13554524D01*
X11271667Y-13545000D01*
X11290714Y-13535476D01*
X11443095Y-13716428D02*
X11452619Y-13725952D01*
X11443095Y-13735476D01*
X11433571Y-13725952D01*
X11443095Y-13716428D01*
X11443095Y-13735476D01*
X11624048Y-13535476D02*
X11585952Y-13535476D01*
X11566905Y-13545000D01*
X11557381Y-13554524D01*
X11538333Y-13583095D01*
X11528809Y-13621190D01*
X11528809Y-13697381D01*
X11538333Y-13716428D01*
X11547857Y-13725952D01*
X11566905Y-13735476D01*
X11605000Y-13735476D01*
X11624048Y-13725952D01*
X11633571Y-13716428D01*
X11643095Y-13697381D01*
X11643095Y-13649762D01*
X11633571Y-13630714D01*
X11624048Y-13621190D01*
X11605000Y-13611667D01*
X11566905Y-13611667D01*
X11547857Y-13621190D01*
X11538333Y-13630714D01*
X11528809Y-13649762D01*
X11824048Y-13535476D02*
X11728809Y-13535476D01*
X11719286Y-13630714D01*
X11728809Y-13621190D01*
X11747857Y-13611667D01*
X11795476Y-13611667D01*
X11814524Y-13621190D01*
X11824048Y-13630714D01*
X11833571Y-13649762D01*
X11833571Y-13697381D01*
X11824048Y-13716428D01*
X11814524Y-13725952D01*
X11795476Y-13735476D01*
X11747857Y-13735476D01*
X11728809Y-13725952D01*
X11719286Y-13716428D01*
X11957381Y-13535476D02*
X11976428Y-13535476D01*
X11995476Y-13545000D01*
X12005000Y-13554524D01*
X12014524Y-13573571D01*
X12024048Y-13611667D01*
X12024048Y-13659286D01*
X12014524Y-13697381D01*
X12005000Y-13716428D01*
X11995476Y-13725952D01*
X11976428Y-13735476D01*
X11957381Y-13735476D01*
X11938333Y-13725952D01*
X11928809Y-13716428D01*
X11919286Y-13697381D01*
X11909762Y-13659286D01*
X11909762Y-13611667D01*
X11919286Y-13573571D01*
X11928809Y-13554524D01*
X11938333Y-13545000D01*
X11957381Y-13535476D01*
X12109762Y-13735476D02*
X12109762Y-13602143D01*
X12109762Y-13621190D02*
X12119286Y-13611667D01*
X12138333Y-13602143D01*
X12166905Y-13602143D01*
X12185952Y-13611667D01*
X12195476Y-13630714D01*
X12195476Y-13735476D01*
X12195476Y-13630714D02*
X12205000Y-13611667D01*
X12224048Y-13602143D01*
X12252619Y-13602143D01*
X12271667Y-13611667D01*
X12281190Y-13630714D01*
X12281190Y-13735476D01*
X12376428Y-13735476D02*
X12376428Y-13602143D01*
X12376428Y-13621190D02*
X12385952Y-13611667D01*
X12405000Y-13602143D01*
X12433571Y-13602143D01*
X12452619Y-13611667D01*
X12462143Y-13630714D01*
X12462143Y-13735476D01*
X12462143Y-13630714D02*
X12471667Y-13611667D01*
X12490714Y-13602143D01*
X12519286Y-13602143D01*
X12538333Y-13611667D01*
X12547857Y-13630714D01*
X12547857Y-13735476D01*
X12938333Y-13525952D02*
X12766905Y-13783095D01*
X13195476Y-13535476D02*
X13214524Y-13535476D01*
X13233571Y-13545000D01*
X13243095Y-13554524D01*
X13252619Y-13573571D01*
X13262143Y-13611667D01*
X13262143Y-13659286D01*
X13252619Y-13697381D01*
X13243095Y-13716428D01*
X13233571Y-13725952D01*
X13214524Y-13735476D01*
X13195476Y-13735476D01*
X13176428Y-13725952D01*
X13166905Y-13716428D01*
X13157381Y-13697381D01*
X13147857Y-13659286D01*
X13147857Y-13611667D01*
X13157381Y-13573571D01*
X13166905Y-13554524D01*
X13176428Y-13545000D01*
X13195476Y-13535476D01*
X13347857Y-13716428D02*
X13357381Y-13725952D01*
X13347857Y-13735476D01*
X13338333Y-13725952D01*
X13347857Y-13716428D01*
X13347857Y-13735476D01*
X13481190Y-13535476D02*
X13500238Y-13535476D01*
X13519286Y-13545000D01*
X13528809Y-13554524D01*
X13538333Y-13573571D01*
X13547857Y-13611667D01*
X13547857Y-13659286D01*
X13538333Y-13697381D01*
X13528809Y-13716428D01*
X13519286Y-13725952D01*
X13500238Y-13735476D01*
X13481190Y-13735476D01*
X13462143Y-13725952D01*
X13452619Y-13716428D01*
X13443095Y-13697381D01*
X13433571Y-13659286D01*
X13433571Y-13611667D01*
X13443095Y-13573571D01*
X13452619Y-13554524D01*
X13462143Y-13545000D01*
X13481190Y-13535476D01*
X13624048Y-13554524D02*
X13633571Y-13545000D01*
X13652619Y-13535476D01*
X13700238Y-13535476D01*
X13719286Y-13545000D01*
X13728809Y-13554524D01*
X13738333Y-13573571D01*
X13738333Y-13592619D01*
X13728809Y-13621190D01*
X13614524Y-13735476D01*
X13738333Y-13735476D01*
X13919286Y-13535476D02*
X13824048Y-13535476D01*
X13814524Y-13630714D01*
X13824048Y-13621190D01*
X13843095Y-13611667D01*
X13890714Y-13611667D01*
X13909762Y-13621190D01*
X13919286Y-13630714D01*
X13928809Y-13649762D01*
X13928809Y-13697381D01*
X13919286Y-13716428D01*
X13909762Y-13725952D01*
X13890714Y-13735476D01*
X13843095Y-13735476D01*
X13824048Y-13725952D01*
X13814524Y-13716428D01*
X14100238Y-13535476D02*
X14062143Y-13535476D01*
X14043095Y-13545000D01*
X14033571Y-13554524D01*
X14014524Y-13583095D01*
X14005000Y-13621190D01*
X14005000Y-13697381D01*
X14014524Y-13716428D01*
X14024048Y-13725952D01*
X14043095Y-13735476D01*
X14081190Y-13735476D01*
X14100238Y-13725952D01*
X14109762Y-13716428D01*
X14119286Y-13697381D01*
X14119286Y-13649762D01*
X14109762Y-13630714D01*
X14100238Y-13621190D01*
X14081190Y-13611667D01*
X14043095Y-13611667D01*
X14024048Y-13621190D01*
X14014524Y-13630714D01*
X14005000Y-13649762D01*
X14195476Y-13535476D02*
X14195476Y-13573571D01*
X14271667Y-13535476D02*
X14271667Y-13573571D01*
X14566905Y-13811667D02*
X14557381Y-13802143D01*
X14538333Y-13773571D01*
X14528809Y-13754524D01*
X14519286Y-13725952D01*
X14509762Y-13678333D01*
X14509762Y-13640238D01*
X14519286Y-13592619D01*
X14528809Y-13564048D01*
X14538333Y-13545000D01*
X14557381Y-13516428D01*
X14566905Y-13506905D01*
X14633571Y-13554524D02*
X14643095Y-13545000D01*
X14662143Y-13535476D01*
X14709762Y-13535476D01*
X14728809Y-13545000D01*
X14738333Y-13554524D01*
X14747857Y-13573571D01*
X14747857Y-13592619D01*
X14738333Y-13621190D01*
X14624048Y-13735476D01*
X14747857Y-13735476D01*
X14985952Y-13735476D02*
X14985952Y-13535476D01*
X15071667Y-13735476D02*
X15071667Y-13630714D01*
X15062143Y-13611667D01*
X15043095Y-13602143D01*
X15014524Y-13602143D01*
X14995476Y-13611667D01*
X14985952Y-13621190D01*
X15195476Y-13735476D02*
X15176428Y-13725952D01*
X15166905Y-13716428D01*
X15157381Y-13697381D01*
X15157381Y-13640238D01*
X15166905Y-13621190D01*
X15176428Y-13611667D01*
X15195476Y-13602143D01*
X15224048Y-13602143D01*
X15243095Y-13611667D01*
X15252619Y-13621190D01*
X15262143Y-13640238D01*
X15262143Y-13697381D01*
X15252619Y-13716428D01*
X15243095Y-13725952D01*
X15224048Y-13735476D01*
X15195476Y-13735476D01*
X15376428Y-13735476D02*
X15357381Y-13725952D01*
X15347857Y-13706905D01*
X15347857Y-13535476D01*
X15528809Y-13725952D02*
X15509762Y-13735476D01*
X15471667Y-13735476D01*
X15452619Y-13725952D01*
X15443095Y-13706905D01*
X15443095Y-13630714D01*
X15452619Y-13611667D01*
X15471667Y-13602143D01*
X15509762Y-13602143D01*
X15528809Y-13611667D01*
X15538333Y-13630714D01*
X15538333Y-13649762D01*
X15443095Y-13668809D01*
X15614524Y-13725952D02*
X15633571Y-13735476D01*
X15671667Y-13735476D01*
X15690714Y-13725952D01*
X15700238Y-13706905D01*
X15700238Y-13697381D01*
X15690714Y-13678333D01*
X15671667Y-13668809D01*
X15643095Y-13668809D01*
X15624048Y-13659286D01*
X15614524Y-13640238D01*
X15614524Y-13630714D01*
X15624048Y-13611667D01*
X15643095Y-13602143D01*
X15671667Y-13602143D01*
X15690714Y-13611667D01*
X15766905Y-13811667D02*
X15776428Y-13802143D01*
X15795476Y-13773571D01*
X15805000Y-13754524D01*
X15814524Y-13725952D01*
X15824048Y-13678333D01*
X15824048Y-13640238D01*
X15814524Y-13592619D01*
X15805000Y-13564048D01*
X15795476Y-13545000D01*
X15776428Y-13516428D01*
X15766905Y-13506905D01*
X16128809Y-13811667D02*
X16119286Y-13802143D01*
X16100238Y-13773571D01*
X16090714Y-13754524D01*
X16081190Y-13725952D01*
X16071667Y-13678333D01*
X16071667Y-13640238D01*
X16081190Y-13592619D01*
X16090714Y-13564048D01*
X16100238Y-13545000D01*
X16119286Y-13516428D01*
X16128809Y-13506905D01*
X16205000Y-13602143D02*
X16205000Y-13735476D01*
X16205000Y-13621190D02*
X16214524Y-13611667D01*
X16233571Y-13602143D01*
X16262143Y-13602143D01*
X16281190Y-13611667D01*
X16290714Y-13630714D01*
X16290714Y-13735476D01*
X16414524Y-13735476D02*
X16395476Y-13725952D01*
X16385952Y-13716428D01*
X16376428Y-13697381D01*
X16376428Y-13640238D01*
X16385952Y-13621190D01*
X16395476Y-13611667D01*
X16414524Y-13602143D01*
X16443095Y-13602143D01*
X16462143Y-13611667D01*
X16471667Y-13621190D01*
X16481190Y-13640238D01*
X16481190Y-13697381D01*
X16471667Y-13716428D01*
X16462143Y-13725952D01*
X16443095Y-13735476D01*
X16414524Y-13735476D01*
X16538333Y-13602143D02*
X16614524Y-13602143D01*
X16566905Y-13535476D02*
X16566905Y-13706905D01*
X16576428Y-13725952D01*
X16595476Y-13735476D01*
X16614524Y-13735476D01*
X16833571Y-13602143D02*
X16833571Y-13802143D01*
X16833571Y-13611667D02*
X16852619Y-13602143D01*
X16890714Y-13602143D01*
X16909762Y-13611667D01*
X16919286Y-13621190D01*
X16928810Y-13640238D01*
X16928810Y-13697381D01*
X16919286Y-13716428D01*
X16909762Y-13725952D01*
X16890714Y-13735476D01*
X16852619Y-13735476D01*
X16833571Y-13725952D01*
X17043095Y-13735476D02*
X17024048Y-13725952D01*
X17014524Y-13706905D01*
X17014524Y-13535476D01*
X17205000Y-13735476D02*
X17205000Y-13630714D01*
X17195476Y-13611667D01*
X17176429Y-13602143D01*
X17138333Y-13602143D01*
X17119286Y-13611667D01*
X17205000Y-13725952D02*
X17185952Y-13735476D01*
X17138333Y-13735476D01*
X17119286Y-13725952D01*
X17109762Y-13706905D01*
X17109762Y-13687857D01*
X17119286Y-13668809D01*
X17138333Y-13659286D01*
X17185952Y-13659286D01*
X17205000Y-13649762D01*
X17271667Y-13602143D02*
X17347857Y-13602143D01*
X17300238Y-13535476D02*
X17300238Y-13706905D01*
X17309762Y-13725952D01*
X17328810Y-13735476D01*
X17347857Y-13735476D01*
X17490714Y-13725952D02*
X17471667Y-13735476D01*
X17433571Y-13735476D01*
X17414524Y-13725952D01*
X17405000Y-13706905D01*
X17405000Y-13630714D01*
X17414524Y-13611667D01*
X17433571Y-13602143D01*
X17471667Y-13602143D01*
X17490714Y-13611667D01*
X17500238Y-13630714D01*
X17500238Y-13649762D01*
X17405000Y-13668809D01*
X17671667Y-13735476D02*
X17671667Y-13535476D01*
X17671667Y-13725952D02*
X17652619Y-13735476D01*
X17614524Y-13735476D01*
X17595476Y-13725952D01*
X17585952Y-13716428D01*
X17576429Y-13697381D01*
X17576429Y-13640238D01*
X17585952Y-13621190D01*
X17595476Y-13611667D01*
X17614524Y-13602143D01*
X17652619Y-13602143D01*
X17671667Y-13611667D01*
X17747857Y-13811667D02*
X17757381Y-13802143D01*
X17776429Y-13773571D01*
X17785952Y-13754524D01*
X17795476Y-13725952D01*
X17805000Y-13678333D01*
X17805000Y-13640238D01*
X17795476Y-13592619D01*
X17785952Y-13564048D01*
X17776429Y-13545000D01*
X17757381Y-13516428D01*
X17747857Y-13506905D01*
M02*
